<svg xmlns="http://www.w3.org/2000/svg" width="52" height="52" viewBox="0 0 52 52">
    <g fill="none" fill-rule="evenodd">
        <ellipse cx="26" cy="50.132" fill="#DCE0E9" fill-rule="nonzero" rx="26" ry="1.868"/>
        <rect width="8.861" height="1.198" x="36.492" y="7.157" fill="#E7E9E6" fill-rule="nonzero" rx=".599"/>
        <path fill="#D7D7D7" fill-rule="nonzero" d="M37.125 8.354H44.72V9.354H37.125z"/>
        <path fill="#A2DBEF" fill-rule="nonzero" d="M43.955 4.008H37.89c-.422 0-.765.343-.765.765v2.384h7.595V4.773c0-.422-.342-.765-.765-.765z"/>
        <path fill="#F4F2EF" fill-rule="nonzero" d="M37.516 9.254h6.764c3.26 0 5.901 2.642 5.901 5.9v30.918c0 1.766-1.431 3.197-3.197 3.197H34.812c-1.765 0-3.197-1.431-3.197-3.197V15.155c0-3.26 2.642-5.901 5.901-5.901z"/>
        <path fill="#A2DBEF" fill-rule="nonzero" d="M46.668 29.262c.064 1.608-.349 3.199-1.186 4.574-1.018 1.537-2.74 2.461-4.584 2.461-1.844 0-3.565-.924-4.584-2.461-.837-1.375-1.25-2.966-1.186-4.575 0-6.118 4.43-13.371 5.527-15.074.054-.082.145-.132.243-.132.099 0 .19.05.244.132 1.097 1.703 5.526 8.957 5.526 15.075z"/>
        <circle cx="40.898" cy="19.025" r="1.27" fill="#F44774" fill-rule="nonzero"/>
        <rect width="8.53" height="1.595" x="36.633" y="31.136" fill="#089BDE" fill-rule="nonzero" rx=".798"/>
        <path fill="#333" fill-rule="nonzero" d="M48.585 15.802c-.138 0-.25-.112-.25-.25-.003-2.393-1.942-4.331-4.334-4.334h-.067c-.138 0-.25-.112-.25-.25s.112-.25.25-.25H44c2.668.003 4.83 2.165 4.834 4.834 0 .066-.026.13-.073.177-.047.046-.11.073-.177.073zM46.983 49.277h-7.355c-.138 0-.25-.112-.25-.25s.112-.25.25-.25h7.355c.758-.008 1.478-.33 1.99-.888s.77-1.304.712-2.059V31.136c0-.138.112-.25.25-.25.139 0 .25.112.25.25V45.83c.052.887-.26 1.756-.865 2.407-.605.65-1.449 1.026-2.337 1.04zM31.364 18.128c-.138 0-.25-.112-.25-.25v-2.48c.1-3.18 2.541-5.795 5.707-6.112l.137-.014c.066-.008.133.012.184.055.052.043.083.105.087.172.013.137-.089.259-.226.271l-.127.013c-2.914.287-5.165 2.688-5.262 5.615v2.48c0 .138-.112.25-.25.25z"/>
        <path fill="#FFC469" fill-rule="nonzero" d="M20.741 4.342H27.666V8.384H20.741z"/>
        <path fill="#FFD56C" fill-rule="nonzero" d="M27.672 3.21v1.132h-6.93V3.276c0-.528.427-.955.955-.955h5.085c.49.001.888.398.89.889zM29.845 49.58H18.561c-1.256.002-2.314-.938-2.461-2.185-.9-7.635-3.23-32.982 4.64-39.012h6.925c7.873 6.03 5.542 31.378 4.641 39.012-.147 1.248-1.205 2.187-2.46 2.186z"/>
        <path fill="#FFFBB4" fill-rule="nonzero" d="M24.204 44.73s-12.107.908-.29-29.88c.046-.12.161-.198.29-.198.128 0 .243.079.29.199 11.814 30.787-.29 29.878-.29 29.878z"/>
        <path fill="#EA645F" fill-rule="nonzero" d="M21.926 25.88c-5.455 0-1.418-8.775-.276-11.056.052-.105.16-.171.276-.171.118 0 .225.066.277.17 1.142 2.282 5.179 11.057-.277 11.057z"/>
        <path fill="#333" fill-rule="nonzero" d="M29.845 49.83c-.138 0-.25-.111-.25-.25 0-.137.112-.25.25-.25 1.129.001 2.08-.843 2.214-1.964.498-4.23 1.564-15.07.697-24.358-.006-.066.014-.132.056-.183.043-.051.103-.083.17-.09.136-.01.256.09.272.226.872 9.336-.198 20.218-.7 24.464-.163 1.372-1.327 2.406-2.71 2.406z"/>
        <path fill="#CCC" fill-rule="nonzero" d="M1.959 34.781h23.027v6.016c0 4.721-3.827 8.549-8.549 8.549h-5.93c-4.721 0-8.549-3.828-8.549-8.549v-6.016z"/>
        <path fill="#A2DBEF" fill-rule="nonzero" d="M1.959 34.781c0-.975.79-1.765 1.764-1.765h19.498c.468 0 .917.186 1.248.517.331.331.517.78.517 1.248H1.96z"/>
        <path fill="#FAF6F5" fill-rule="nonzero" d="M24.985 34.781v6.075c-.267-.025-.536-.037-.808-.037-4.777-.001-8.71 3.754-8.929 8.526h-4.08c-.22-4.772-4.154-8.527-8.932-8.526-.093 0-.185 0-.278.006v-6.044h23.027z"/>
        <path fill="#A2DBEF" fill-rule="nonzero" d="M1.959 36.73H5.42c.651 0 1.18.528 1.18 1.18-.001.65-.529 1.178-1.18 1.178H1.959V36.73zM21.524 36.73h3.461v2.358h-3.461c-.651 0-1.18-.528-1.18-1.179s.529-1.179 1.18-1.179z"/>
        <path fill="#333" fill-rule="nonzero" d="M5.42 39.338H1.959c-.138 0-.25-.112-.25-.25s.112-.25.25-.25H5.42c.51-.005.92-.42.92-.93 0-.508-.41-.923-.92-.928H1.959c-.138 0-.25-.112-.25-.25s.112-.25.25-.25H5.42c.785.007 1.417.644 1.417 1.429s-.632 1.422-1.417 1.429zM24.985 39.338h-3.462c-.784-.007-1.417-.644-1.417-1.43 0-.784.633-1.421 1.417-1.428h3.462c.138 0 .25.112.25.25s-.112.25-.25.25h-3.462c-.509.005-.919.42-.919.929 0 .51.41.924.92.929h3.461c.138 0 .25.112.25.25s-.112.25-.25.25z"/>
        <rect width="7.301" height="1" x="20.553" y="4.16" fill="#FFA66C" fill-rule="nonzero" rx=".3"/>
        <path fill="#FFA66C" fill-rule="nonzero" d="M23.226 4.76h1.955v.977c0 .54-.438.978-.978.978s-.977-.438-.977-.978v-.978z"/>
        <path fill="#333" fill-rule="nonzero" d="M44.72 7.406h-7.595c-.138 0-.25-.112-.25-.25s.112-.25.25-.25h7.595c.138 0 .25.112.25.25s-.112.25-.25.25zM27.596 8.769h-6.924c-.138 0-.25-.112-.25-.25s.112-.25.25-.25h6.924c.138 0 .25.112.25.25s-.112.25-.25.25zM10.497 46.097c-.101 0-.193-.062-.231-.156-.67-1.631-1.886-2.979-3.44-3.813-.083-.036-.14-.114-.149-.204-.009-.09.032-.178.106-.23.074-.052.17-.06.252-.02 1.675.88 2.983 2.325 3.694 4.078.031.077.022.165-.024.234-.047.07-.125.11-.208.11zM15.926 46.097c-.084 0-.161-.042-.208-.11-.046-.07-.055-.158-.024-.235.73-1.77 2.074-3.218 3.783-4.08.127-.055.274.002.33.128.057.126 0 .274-.126.33-1.586.818-2.833 2.167-3.524 3.811-.038.094-.13.156-.231.156z"/>
        <path d="M0 0H52V52H0z"/>
    </g>
</svg>
