<svg width="339" height="281" viewBox="0 0 339 281" fill="none" xmlns="http://www.w3.org/2000/svg">
<path d="M120.5 40V150" stroke="black" stroke-width="1.6" stroke-linecap="round"/>
<path fill-rule="evenodd" clip-rule="evenodd" d="M20 256.514C20 249.066 86.9334 243.029 169.5 243.029C252.067 243.029 319 249.066 319 256.514C319 263.962 252.067 270 169.5 270C86.9334 270 20 263.962 20 256.514Z" fill="#DCE0E9"/>
<path d="M245.98 39.0073H43.0776V245.209H245.98V39.0073Z" fill="#DEEDF9"/>
<path d="M235.258 152.006H41.428V160.254H235.258V152.006Z" fill="#A09C8D"/>
<path d="M235.258 242.46H41.428V250.708H235.258V242.46Z" fill="#A09C8D"/>
<path d="M146.454 250.158V38.1821H138.206V250.158H146.454Z" fill="#A09C8D"/>
<path d="M234.409 250.952C230.113 250.964 225.818 250.976 221.529 250.989C221.529 181.986 221.529 112.977 221.529 43.9741C225.635 43.9802 229.735 43.9863 233.84 43.9924C232.912 50.3649 233.565 56.7984 233.028 63.2013C232.405 70.6551 232.844 78.17 232.545 85.6727C231.928 101.069 232.808 116.496 232.007 131.905C231.751 136.902 232.154 141.937 232.288 146.953C232.722 163.345 232.056 179.756 232.881 196.154C233.205 202.563 233.04 208.991 233.254 215.412C233.602 225.939 233.999 236.46 234.427 246.981C234.427 248.307 234.415 249.626 234.409 250.952Z" fill="#E8705E"/>
<path d="M213.611 250.958C209.316 250.97 205.021 250.976 200.732 250.989C200.732 181.986 200.732 112.983 200.732 43.9741C204.832 43.9802 208.937 43.9863 213.037 43.9924C212.096 50.1144 212.78 56.2974 212.236 62.4559C211.601 69.6592 212.053 76.9298 211.748 84.182C211.131 98.833 211.907 113.515 211.241 128.19C210.911 135.577 211.296 143.006 211.473 150.417C211.888 168.05 211.461 185.694 212.114 203.333C212.273 207.604 212.353 211.887 212.463 216.157C212.725 226.44 213.159 236.71 213.623 246.987C213.623 248.313 213.611 249.632 213.605 250.958H213.611Z" fill="#E8705E"/>
<path d="M192.808 250.958C188.513 250.964 184.217 250.97 179.928 250.983C179.928 181.98 179.928 112.977 179.935 43.9741C184.034 43.9802 188.134 43.9925 192.233 43.9986C191.311 49.7905 191.965 55.6436 191.439 61.4723C190.822 68.3457 191.128 75.2924 190.969 82.2024C190.565 99.499 190.816 116.808 190.4 134.11C190.236 140.929 190.4 147.766 190.7 154.602C191.286 168.343 190.4 182.114 191.256 195.873C191.696 202.936 191.372 210.023 191.653 217.104C191.958 224.913 192.429 232.727 192.343 240.553C192.618 244.018 192.973 247.482 192.808 250.964V250.958Z" fill="#E8705E"/>
<path d="M65.0235 250.97C60.7284 250.97 56.4333 250.97 52.1382 250.976C52.297 247.176 52.462 243.37 52.6208 239.57C53.0546 231.688 53.0363 223.801 53.5434 215.919C54.0016 208.777 53.6656 201.61 53.9894 194.444C54.5393 182.352 54.1971 170.237 54.4904 158.128C55.0036 136.957 54.5332 115.769 54.1116 94.5929C53.9833 88.2571 53.9283 81.9214 53.7939 75.5918C53.5801 65.0525 52.963 54.5194 53.1157 43.9741C57.0809 43.9741 61.0461 43.9741 65.0113 43.9741C65.0113 112.971 65.0113 181.974 65.0113 250.97H65.0235Z" fill="#E8705E"/>
<path d="M85.8271 250.965C81.532 250.965 77.2368 250.971 72.9417 250.977C72.6179 247.317 73.7726 243.725 73.4244 240.065C74.0231 232.361 73.7849 224.62 74.3409 216.903C74.8357 210.097 74.4692 203.254 74.793 196.417C75.349 184.742 75.074 173.03 75.2756 161.336C75.6605 138.76 75.5628 116.173 74.9213 93.5975C74.738 87.2618 74.738 80.926 74.5975 74.5903C74.3775 64.381 73.7665 54.1778 73.9315 43.9624C77.8967 43.9624 81.8558 43.9624 85.821 43.9624C85.821 112.959 85.821 181.956 85.8271 250.952V250.965Z" fill="#E8705E"/>
<path d="M106.631 250.958C102.335 250.964 98.0403 250.971 93.7452 250.977C93.4764 247.482 94.5761 244.054 94.2278 240.554C94.7533 233.008 94.6128 225.438 95.1504 217.887C95.6331 211.16 95.2665 204.403 95.5964 197.645C96.1585 186.22 95.9019 174.752 96.0852 163.309C96.4579 139.988 96.4029 116.661 95.7308 93.3407C95.5414 86.7605 95.5598 80.1743 95.4009 73.5941C95.1687 63.7209 94.5761 53.8415 94.735 43.9561C98.694 43.9561 102.659 43.9561 106.618 43.9561C106.618 112.953 106.618 181.949 106.624 250.946L106.631 250.958Z" fill="#E8705E"/>
<path d="M106.5 145V45" stroke="black" stroke-width="2" stroke-linecap="round"/>
<path d="M253.361 43.9924C253.361 112.183 253.361 180.373 253.41 248.563C253.41 250.42 253.043 251.233 250.99 251.099C248.119 250.909 245.223 251.019 242.339 251.001C242.339 181.998 242.339 112.989 242.339 43.9863C246.011 43.9863 249.689 43.9924 253.361 43.9985V43.9924Z" fill="#E8715F"/>
<path d="M138 39.5001V146.5M146.5 39.5001V143.5M161 39.5001H126M126 29.0001H161V251H165M191.5 251H218H253V235M253 182V212.5" stroke="black" stroke-width="2" stroke-linecap="round"/>
<path d="M44.2202 250.971C41.1654 250.995 41.1776 250.971 38.1289 251.074C36.7053 251.123 33.0884 247.415 33.2656 246.034C33.2961 245.79 33.2656 245.539 33.2656 245.295C33.2656 177.618 33.2656 113.13 33.2656 45.4529C33.2656 44.958 33.3083 44.4631 33.3267 43.9683C36.9497 43.9683 40.5789 43.9683 44.2019 43.9744C44.2019 112.971 44.2019 181.974 44.208 250.971H44.2202Z" fill="#E8715F"/>
<path d="M172.004 250.964C168.949 250.995 165.901 250.964 162.852 251.08C161.379 251.141 160.933 250.537 161.098 249.205C161.129 248.96 161.098 248.71 161.098 248.465C161.098 180.959 161.098 113.453 161.098 45.9476C161.098 45.2877 161.147 44.6279 161.172 43.9741C164.587 43.9863 168.002 43.9986 171.418 44.0108C170.458 49.7172 171.161 55.4909 170.636 61.234C170 68.1868 170.446 75.2068 170.141 82.2085C169.536 95.8698 170.128 109.549 169.664 123.235C169.298 133.921 169.414 144.637 169.89 155.354C170.507 169.259 169.609 183.202 170.452 197.12C170.862 203.938 170.568 210.775 170.843 217.611C171.149 225.09 171.564 232.58 171.521 240.071C171.43 243.718 172.34 247.317 171.998 250.97L172.004 250.964Z" fill="#E8705E"/>
<path d="M125.479 43.9741C125.497 45.1289 125.522 46.2836 125.522 47.4383C125.522 114.211 125.522 180.984 125.522 247.757C125.522 251.502 125.943 251.019 122.229 251.044C119.669 251.062 117.115 251.007 114.555 250.989C114.286 247.818 115.392 244.72 115.025 241.543C115.453 233.833 115.435 226.098 115.96 218.387C116.412 211.826 116.07 205.233 116.4 198.641C116.968 187.46 116.712 176.249 116.883 165.05C117.261 140.825 117.219 116.588 116.528 92.3629C116.345 85.9477 116.357 79.5264 116.204 73.1112C115.978 63.4029 115.404 53.6946 115.538 43.9741C118.85 43.9741 122.161 43.9741 125.473 43.9741H125.479Z" fill="#E8705E"/>
<path d="M44.22 250.97C44.22 181.974 44.22 112.971 44.2139 43.9742C44.2139 37.2169 44.2139 30.4535 44.22 23.6962C44.6415 21.5028 45.4175 20.0182 48.1852 20.0059C50.9773 19.9937 51.6982 21.5395 52.1381 23.7084C51.8754 27.5147 52.969 31.26 52.633 35.0663C51.8204 35.7934 52.1504 36.7648 52.1504 37.6324C52.132 104.094 52.132 170.549 52.1504 237.01C52.1504 237.871 51.8143 238.843 52.6208 239.576C52.4619 243.376 52.297 247.182 52.1381 250.983C49.4987 251.288 46.8594 251.294 44.22 250.983V250.97Z" fill="#D65548"/>
<path d="M73.4243 240.065C73.7725 243.725 72.6178 247.317 72.9416 250.977C70.3022 251.276 67.6628 251.294 65.0234 250.965C65.0234 181.968 65.0234 112.965 65.0234 43.9683C65.0234 37.211 65.0234 30.4598 65.0295 23.7025C65.4633 21.5274 66.2209 20.0061 68.9947 20C71.7746 20 72.5322 21.503 72.9477 23.6903C72.685 27.1728 73.7725 30.5881 73.4426 34.0706C72.63 34.8038 72.966 35.7691 72.9599 36.6367C72.9416 103.587 72.9416 170.543 72.9599 237.493C72.9599 238.354 72.6239 239.326 73.4304 240.059L73.4243 240.065Z" fill="#D65548"/>
<path d="M94.228 240.56C94.5823 244.054 93.4765 247.488 93.7453 250.983C91.1059 251.276 88.4665 251.3 85.8272 250.964C85.8272 181.968 85.8272 112.971 85.821 43.9743C85.821 37.2231 85.821 30.4658 85.8272 23.7146C86.4076 22.065 86.5298 20.1343 89.0592 20.061C92.3279 19.9693 92.8533 20.2748 93.7453 23.684C93.5254 27.0016 94.5884 30.2519 94.2402 33.5817C93.4276 34.3149 93.7575 35.2802 93.7575 36.1478C93.7392 103.434 93.7392 170.714 93.7575 238C93.7575 238.861 93.4215 239.833 94.228 240.566V240.56Z" fill="#D65548"/>
<path d="M115.019 241.537C115.379 244.714 114.28 247.812 114.549 250.983C111.909 251.264 109.27 251.3 106.63 250.958C106.63 181.962 106.63 112.965 106.624 43.9681C106.624 37.2169 106.624 30.4657 106.63 23.7145C107.247 22.0955 107.327 20.1281 109.862 20.0548C113.131 19.9571 113.748 20.3237 114.549 23.6595C114.347 26.6533 115.379 29.5798 115.037 32.5858C114.231 33.319 114.561 34.2904 114.561 35.1519C114.542 103.085 114.542 171.025 114.561 238.959C114.561 239.826 114.225 240.792 115.025 241.531L115.019 241.537Z" fill="#D65548"/>
<path d="M172.004 250.965C172.346 247.311 171.436 243.706 171.527 240.065C173.22 239.539 172.45 238.128 172.45 237.144C172.487 170.427 172.487 103.709 172.487 36.9911C172.487 36.3313 172.481 35.6714 172.456 35.0116C172.438 34.4128 172.059 34.1501 171.509 34.0768C171.411 30.6126 172.346 27.2034 172.004 23.727C172.646 22.1323 172.67 20.1284 175.224 20.0612C178.493 19.9756 179.134 20.3544 179.922 23.6598C179.922 30.4354 179.922 37.2049 179.922 43.9806C179.922 112.983 179.922 181.986 179.916 250.989C177.277 251.276 174.637 251.301 171.998 250.971L172.004 250.965Z" fill="#D65447"/>
<path d="M192.808 250.958C192.973 247.476 192.618 244.012 192.343 240.547C194.03 240.016 193.26 238.604 193.26 237.621C193.296 170.573 193.296 103.531 193.296 36.4838C193.296 35.8239 193.29 35.1641 193.266 34.5042C193.248 33.9055 192.869 33.6428 192.319 33.5694C193.168 30.3191 192.759 27.0076 192.808 23.7206C193.449 22.016 193.602 20.0059 196.284 20.0365C199.437 20.0731 199.993 20.3847 200.732 23.6412C200.732 30.4168 200.732 37.1925 200.732 43.9681C200.732 112.971 200.732 181.974 200.732 250.983C198.093 251.258 195.447 251.3 192.808 250.952V250.958Z" fill="#D65548"/>
<path d="M213.611 250.959C213.611 249.633 213.623 248.313 213.629 246.987C214.418 246.248 214.082 245.277 214.082 244.415C214.1 173.011 214.1 101.613 214.082 30.2095C214.082 29.342 214.411 28.3766 213.611 27.6435C213.611 26.3421 213.611 25.0407 213.611 23.7394C214.259 21.9187 214.546 19.9086 217.338 20.043C220.332 20.1835 220.888 20.4829 221.535 23.6416C221.535 30.4173 221.535 37.199 221.535 43.9747C221.535 112.977 221.535 181.986 221.535 250.989C218.896 251.252 216.25 251.307 213.617 250.953L213.611 250.959Z" fill="#D65548"/>
<path d="M242.339 43.9804C242.339 112.983 242.339 181.992 242.339 250.995C239.7 251.258 237.054 251.313 234.421 250.952C234.421 249.626 234.433 248.307 234.439 246.981C235.227 246.236 234.891 245.27 234.891 244.409C234.91 173.011 234.91 101.607 234.891 30.2092C234.891 29.3416 235.221 28.3763 234.421 27.6431C234.421 26.3479 234.421 25.0465 234.421 23.7513C235.093 21.9489 235.356 19.9144 238.154 20.0488C241.154 20.1893 241.74 20.507 242.351 23.6413C242.351 30.423 242.351 37.2048 242.351 43.9866L242.339 43.9804Z" fill="#D65548"/>
<path d="M161.013 39.0558C149.24 39.0558 137.472 39.0435 125.699 39.0435C125.479 35.726 125.479 32.4084 125.699 29.097C137.46 29.0847 149.221 29.0786 160.988 29.0664C160.995 32.3962 161.007 35.726 161.013 39.0619V39.0558Z" fill="#DAD1CE"/>
<path d="M234.409 23.745C234.409 25.0402 234.409 26.3416 234.409 27.6368C234.219 33.0867 234.03 38.5426 233.846 43.9925C229.741 43.9864 225.641 43.9803 221.535 43.9742C221.535 37.1985 221.535 30.4168 221.535 23.6411C225.831 23.6778 230.12 23.7083 234.415 23.745H234.409Z" fill="#DB6053"/>
<path d="M213.611 23.7393C213.611 25.0407 213.611 26.3421 213.611 27.6434C213.422 33.0933 213.232 38.5492 213.043 43.9991C208.943 43.993 204.838 43.9869 200.738 43.9807C200.738 37.2051 200.738 30.4295 200.738 23.6538C205.033 23.6844 209.322 23.7088 213.617 23.7393H213.611Z" fill="#DB6053"/>
<path d="M192.808 23.7332C192.759 27.0202 193.168 30.3317 192.319 33.5821C192.288 37.0524 192.264 40.5288 192.233 43.9991C188.134 43.993 184.034 43.9807 179.935 43.9746C179.935 37.2051 179.935 30.4295 179.935 23.6538C184.23 23.6782 188.525 23.7027 192.814 23.7271L192.808 23.7332Z" fill="#DB6053"/>
<path d="M65.0236 23.7026C65.0236 30.46 65.0236 37.2112 65.0175 43.9685C61.0523 43.9685 57.0871 43.9685 53.1219 43.9685C52.0588 41.048 52.9142 38.0237 52.6331 35.0605C52.9691 31.2542 51.8694 27.509 52.1382 23.7026C56.4333 23.7026 60.7284 23.7026 65.0236 23.7026Z" fill="#DB6053"/>
<path d="M85.827 23.7149C85.827 30.4661 85.827 37.2234 85.8209 43.9746C81.8557 43.9746 77.8966 43.9746 73.9315 43.9746C73.1555 40.7059 73.5282 37.3822 73.4366 34.083C73.7726 30.6005 72.6851 27.1852 72.9417 23.7026C77.2368 23.7087 81.5319 23.7149 85.827 23.721V23.7149Z" fill="#DB6053"/>
<path d="M106.625 23.7207C106.625 30.4719 106.625 37.2232 106.618 43.9744C102.659 43.9744 98.6942 43.9744 94.7351 43.9744C94.0875 40.5346 94.2525 37.0521 94.2341 33.5818C94.5824 30.2581 93.5193 27.0016 93.7392 23.6841C98.0344 23.6963 102.329 23.7085 106.625 23.7207Z" fill="#DB6053"/>
<path d="M242.339 43.98C242.339 37.1983 242.339 30.4165 242.339 23.6348C244.539 23.6531 246.738 23.6898 248.938 23.6959C252.891 23.7081 253.477 24.258 253.63 28.1193C253.642 28.4431 253.709 28.7669 253.752 29.0846C253.746 32.3961 253.734 35.7014 253.728 39.0129C253.605 40.6686 253.483 42.3304 253.367 43.9861C249.695 43.9861 246.017 43.98 242.345 43.9739L242.339 43.98Z" fill="#DB6053"/>
<path d="M44.22 23.6963C44.22 30.4536 44.22 37.217 44.2139 43.9743C40.5909 43.9743 36.9617 43.9743 33.3387 43.9682C33.2592 42.3431 33.1798 40.7118 33.1004 39.0866C33.3203 35.7324 33.3875 32.3782 33.0637 29.0239C33.1187 28.2969 33.2104 27.5637 33.2104 26.8367C33.2104 24.7044 34.2918 23.7024 36.3874 23.7024C38.9962 23.7024 41.6112 23.7024 44.22 23.7024V23.6963Z" fill="#DB6053"/>
<path d="M161.013 39.0564C161.007 35.7267 160.994 32.3969 160.988 29.061C161.025 28.3278 161.11 27.6008 161.086 26.8737C161.025 24.7231 162.125 23.7211 164.196 23.7089C166.799 23.6906 169.407 23.7211 172.01 23.7272C172.352 27.2036 171.424 30.6129 171.515 34.077C171.485 37.3824 171.454 40.6938 171.43 43.9992C168.014 43.987 164.599 43.9747 161.184 43.9625C161.129 42.3251 161.074 40.6877 161.019 39.0564H161.013Z" fill="#DB6053"/>
<path d="M125.699 29.0912C125.479 32.4087 125.479 35.7263 125.699 39.0377C125.625 40.6812 125.552 42.3309 125.479 43.9744C122.167 43.9744 118.856 43.9744 115.544 43.9744C114.94 40.1986 115.037 36.3984 115.037 32.5981C115.379 29.5983 114.347 26.6656 114.549 23.6719C116.846 23.6841 119.149 23.6963 121.446 23.7024C124.972 23.7146 125.522 24.2645 125.625 27.8631C125.638 28.2725 125.674 28.6818 125.699 29.0912Z" fill="#DB6053"/>
<path d="M33.0638 29.0237C33.3815 32.3779 33.3204 35.7321 33.1004 39.0863C30.4733 39.0619 27.8461 39.068 25.2189 39.0069C22.4635 38.9458 20.0562 36.6669 20.0013 34.1192C19.9402 31.2415 22.103 29.1276 25.1823 29.0848C27.8094 29.0481 30.4366 29.0359 33.0638 29.0176V29.0237Z" fill="#D3D0CE"/>
<path d="M253.721 39.0135C253.727 35.7021 253.74 32.3967 253.746 29.0853C255.304 29.0853 256.855 29.067 258.413 29.0853C261.474 29.1281 263.631 31.2359 263.576 34.1136C263.527 36.6491 261.126 38.9341 258.389 39.0013C256.837 39.038 255.279 39.0074 253.721 39.0074V39.0135Z" fill="#D3D0CE"/>
<path d="M233.846 43.9987C234.036 38.5489 234.225 33.0929 234.409 27.6431C235.209 28.3762 234.879 29.3477 234.879 30.2152C234.897 101.613 234.897 173.017 234.879 244.415C234.879 245.282 235.215 246.248 234.427 246.987C233.999 236.466 233.602 225.939 233.254 215.418C233.04 208.997 233.205 202.57 232.881 196.16C232.062 179.762 232.728 163.351 232.289 146.959C232.154 141.943 231.751 136.909 232.007 131.911C232.808 116.502 231.928 101.075 232.545 85.679C232.844 78.1824 232.411 70.6675 233.028 63.2076C233.559 56.8046 232.912 50.3711 233.84 43.9987H233.846Z" fill="black"/>
<path d="M213.043 43.9987C213.233 38.5489 213.422 33.0929 213.611 27.6431C214.418 28.3762 214.082 29.3477 214.082 30.2091C214.1 101.613 214.1 173.011 214.082 244.415C214.082 245.282 214.418 246.248 213.63 246.987C213.159 236.717 212.732 226.44 212.469 216.157C212.359 211.893 212.279 207.61 212.121 203.333C211.467 185.701 211.895 168.05 211.479 150.417C211.302 143.006 210.917 135.577 211.247 128.19C211.907 113.515 211.131 98.8393 211.754 84.1821C212.06 76.9299 211.607 69.6594 212.243 62.4561C212.787 56.2975 212.108 50.1084 213.043 43.9926V43.9987Z" fill="#C7433A"/>
<path d="M192.233 43.9991C192.264 40.5287 192.288 37.0523 192.319 33.582C192.869 33.6553 193.248 33.9181 193.266 34.5168C193.29 35.1767 193.297 35.8365 193.297 36.4964C193.297 103.544 193.297 170.586 193.26 237.633C193.26 238.617 194.03 240.028 192.343 240.56C192.423 232.733 191.959 224.919 191.653 217.111C191.372 210.03 191.696 202.943 191.256 195.88C190.394 182.127 191.286 168.35 190.7 154.609C190.407 147.772 190.242 140.941 190.401 134.117C190.816 116.814 190.559 99.5056 190.969 82.209C191.128 75.299 190.822 68.3523 191.439 61.4789C191.965 55.6502 191.311 49.7971 192.233 44.0052V43.9991Z" fill="black"/>
<path d="M52.6331 35.0603C52.9142 38.0235 52.0588 41.0478 53.1219 43.9682C52.9692 54.5136 53.5801 65.0467 53.8001 75.5859C53.9284 81.9155 53.9895 88.2574 54.1178 94.587C54.5394 115.763 55.0098 136.945 54.4966 158.122C54.2033 170.231 54.5455 182.353 53.9956 194.438C53.6718 201.604 54.0078 208.771 53.5496 215.913C53.0425 223.795 53.0608 231.688 52.627 239.564C51.8206 238.831 52.1566 237.859 52.1566 236.998C52.1383 170.537 52.1383 104.081 52.1566 37.6203C52.1566 36.7527 51.8267 35.7874 52.6393 35.0542L52.6331 35.0603Z" fill="black"/>
<path d="M73.4366 34.0767C73.5283 37.3759 73.1556 40.7057 73.9315 43.9682C73.7727 54.1836 74.3775 64.3868 74.5975 74.5961C74.738 80.9257 74.738 87.2676 74.9213 93.6033C75.5628 116.179 75.6667 138.766 75.2756 161.341C75.074 173.035 75.349 184.748 74.793 196.423C74.4692 203.26 74.8296 210.103 74.3409 216.909C73.7849 224.626 74.0293 232.36 73.4244 240.071C72.6179 239.338 72.9539 238.366 72.9539 237.505C72.9356 170.555 72.9356 103.599 72.9539 36.6488C72.9539 35.7813 72.624 34.8159 73.4366 34.0828V34.0767Z" fill="#C64238"/>
<path d="M94.234 33.5757C94.2523 37.046 94.0873 40.5285 94.735 43.9683C94.5761 53.8537 95.1626 63.727 95.4009 73.6064C95.5598 80.1865 95.5353 86.7727 95.7308 93.3529C96.4029 116.674 96.4518 140 96.0852 163.321C95.9019 174.771 96.1585 186.232 95.5964 197.657C95.2665 204.415 95.6331 211.172 95.1504 217.899C94.6128 225.45 94.7594 233.02 94.2279 240.566C93.4214 239.833 93.7574 238.861 93.7574 238C93.7391 170.714 93.7391 103.434 93.7574 36.1479C93.7574 35.2803 93.4275 34.315 94.2401 33.5818L94.234 33.5757Z" fill="black"/>
<path d="M171.424 43.9988C171.454 40.6935 171.485 37.382 171.509 34.0767C172.059 34.15 172.438 34.4127 172.456 35.0114C172.481 35.6713 172.487 36.3311 172.487 36.991C172.487 103.709 172.487 170.427 172.45 237.144C172.45 238.128 173.22 239.539 171.528 240.065C171.57 232.568 171.149 225.078 170.85 217.606C170.575 210.769 170.868 203.932 170.459 197.114C169.621 183.196 170.514 169.254 169.896 155.348C169.42 144.631 169.304 133.915 169.67 123.229C170.135 109.55 169.542 95.8639 170.147 82.2027C170.459 75.201 170.006 68.1809 170.642 61.2281C171.167 55.4789 170.465 49.7052 171.424 44.0049V43.9988Z" fill="#C64238"/>
<path d="M115.038 32.5918C115.038 36.392 114.94 40.1984 115.545 43.968C115.41 53.6885 115.979 63.3968 116.211 73.1051C116.363 79.5203 116.351 85.9416 116.535 92.3568C117.219 116.582 117.268 140.819 116.889 165.044C116.712 176.243 116.968 187.46 116.406 198.635C116.07 205.227 116.412 211.813 115.966 218.381C115.441 226.098 115.459 233.827 115.032 241.537C114.237 240.798 114.567 239.832 114.567 238.965C114.549 171.031 114.555 103.091 114.567 35.1579C114.567 34.2903 114.237 33.325 115.044 32.5918H115.038Z" fill="#C64238"/>
<path d="M33 39.5V247.5" stroke="black" stroke-width="2" stroke-linecap="round"/>
<path d="M42.6309 39.7617L42.9298 248.176C42.9298 248.176 42.777 250.799 47.7134 250.111L60.4166 249.828" stroke="#414042" stroke-width="1.97619" stroke-miterlimit="10" stroke-linecap="round"/>
<path d="M39.3082 200.621L39.2844 200.554C38.4747 200.932 37.6602 201.297 36.8553 201.684C35.7693 202.206 34.9691 202.936 34.9453 204.188C34.8929 206.926 35.0596 209.655 35.4216 212.523C36.117 212.172 36.6886 211.888 37.2601 211.6C37.7126 211.699 38.127 211.24 38.6795 211.564C38.389 211.911 38.1079 212.244 37.8317 212.573C36.6552 213.027 35.6598 213.712 35.2549 214.883C33.9308 218.751 34.7501 222.682 34.8358 226.636C35.5693 226.15 36.198 225.713 36.4695 224.974C37.3697 224.429 38.2699 223.884 39.5083 223.137C38.8272 224.344 38.3509 225.181 37.8793 226.019C37.103 226.816 36.3933 227.69 35.5312 228.397C34.2642 229.423 33.8546 230.684 33.8451 232.206C33.826 234.728 33.445 237.232 33.4355 239.762C33.4355 241.109 33.4355 242.856 32.4162 243.64C31.4493 244.383 31.2064 245.121 30.973 246.053C30.4586 247.012 30.1538 248.026 30.0823 249.097L30.1205 249.133C29.8347 249.165 29.868 249.359 29.8871 249.543C29.6346 250.552 29.3917 251.561 29.1202 252.56C28.7963 253.758 29.1821 254.231 30.5539 254.028C33.6212 253.578 36.6933 253.164 39.5749 251.984C40.7562 251.502 41.9802 251.097 43.2805 251.169C48.2197 251.434 53.1732 251.579 58.0886 252.065C66.4523 252.893 74.7542 254.204 83.1799 254.528C89.548 254.776 95.8827 254.474 102.208 253.934C109.252 253.33 116.073 251.592 122.936 250.066C125.908 249.404 128.895 248.737 132.458 248.462C131.438 249.174 130.829 249.597 130.109 250.102C131.753 250.691 133.334 250.75 134.863 251.043C140.455 252.128 146.027 253.299 151.471 254.947C152.138 255.15 153.048 255.672 153.124 254.276C153.481 247.701 153.362 241.221 149.385 235.426C149.209 235.169 149.047 234.512 148.78 234.737C147.685 235.665 147.823 234.48 147.775 234.183C147.447 232.139 146.88 230.126 146.88 228.036C146.88 224.339 146.956 220.651 147.213 216.954C147.689 210.218 148.147 203.476 148.49 196.731C149.037 185.86 148.49 175.012 148.071 164.16C148.047 163.52 148.528 162.3 146.823 162.732C146.394 162.84 146.284 162.021 146.332 161.593C146.446 160.616 146.784 159.688 147.256 158.806C148.413 156.649 149.604 154.501 150.685 152.312C152.238 149.178 153.71 146.03 153.524 142.423C153.405 140.131 153.496 140.118 151.028 140.608C150.261 140.762 149.514 140.973 148.756 141.162C140.493 143.031 132.8 146.093 125.923 150.871C125.294 151.047 124.718 151.601 124.032 151.317C121.25 150.164 118.24 150.187 115.32 149.826C110.691 149.259 106.052 148.701 101.37 148.62C97.8069 148.07 94.1966 147.989 90.6053 147.917C81.3795 147.732 72.1584 147.764 62.9516 148.538C61.3322 148.674 59.9747 148.52 61.0369 150.646C61.1559 150.889 61.2274 151.312 60.7654 151.596C60.1748 151.231 59.5318 150.898 58.9697 150.479C55.3404 147.777 51.1251 146.386 46.6765 145.499C45.5144 145.269 44.557 145.283 44.5903 146.773C44.2665 146.562 43.9426 146.35 43.6187 146.138C40.6037 142.783 37.3744 139.663 33.1449 137.659C30.8492 136.574 30.7158 136.682 30.5682 139.163C30.1967 145.503 31.2255 151.673 33.2545 157.684C34.8882 162.53 36.2694 167.452 38.2508 172.189C38.408 173.31 39.0558 174.256 39.4749 175.287C39.432 175.53 39.3939 175.773 39.3511 176.021C38.6176 175.751 38.2794 175.075 37.746 174.602C37.5697 174.319 37.4173 173.819 37.2125 173.796C36.6886 173.747 36.8696 174.265 36.7838 174.557C36.579 175.273 36.4076 175.998 36.1789 176.71C33.7594 184.253 33.245 191.84 35.6645 199.581C37.1077 198.91 38.6128 198.208 40.1227 197.505C40.4704 197.411 40.8085 197.267 41.161 197.235C41.6611 197.186 42.2994 196.722 42.6328 197.366C42.9662 198.005 42.428 198.433 41.9183 198.789C41.1896 199.297 40.4561 199.802 39.7226 200.311C39.513 200.329 39.313 200.356 39.332 200.626L39.3082 200.621Z" fill="#213935"/>
<path d="M38.7224 197.419C39.4559 196.91 39.5369 194.591 40.2656 194.082C40.7753 193.727 42.9424 198.005 42.609 197.365C42.2756 196.721 41.6374 197.185 41.1372 197.235C40.7848 197.266 40.4466 197.41 40.0989 197.505C40.4466 195.195 40.4466 195.132 37.9985 195.1C36.7125 195.082 36.441 194.411 36.4219 193.457C36.3933 191.786 36.4076 190.111 36.4029 188.44C36.3838 183.788 36.6791 179.159 37.7222 174.598C38.2604 175.07 38.5938 175.746 39.3273 176.016C39.3273 178.502 40.0275 174.021 39.4512 175.282C39.032 174.255 38.3795 173.305 38.2271 172.184C38.8891 172.098 38.9129 171.765 38.8177 171.198C37.1125 161.241 34.9216 151.352 34.3453 141.148C35.1788 141.482 35.7741 142.094 36.1885 142.743C37.4555 144.737 39.1559 146.395 40.6752 148.191C41.0706 148.66 41.5088 149.452 42.2327 149.159C43.0043 148.844 42.3375 148.083 42.2184 147.646C41.8612 146.359 42.2994 145.962 43.5949 146.138C43.9188 146.35 44.2427 146.561 44.5713 146.773C48.9485 148.507 53.4971 149.884 57.5028 152.384C58.5602 153.046 59.7985 152.974 60.8083 152.478C61.4703 152.154 62.1467 151.92 62.823 151.776C66.681 150.97 70.6295 150.645 74.5494 150.366C80.4936 149.943 86.4712 149.952 92.4201 149.569C95.2207 149.389 98.0118 149.245 100.812 149.29C101.365 149.299 101.66 149.186 101.355 148.615C106.037 148.691 110.677 149.25 115.306 149.821C118.226 150.182 121.236 150.159 124.018 151.312C124.703 151.596 125.285 151.042 125.909 150.866C125.87 151.033 125.823 151.199 125.794 151.37C125.689 152.001 124.894 152.694 125.718 153.244C126.437 153.721 127.228 153.428 127.89 152.902C128.166 152.681 128.495 152.519 128.785 152.307C131.743 150.155 135.12 148.718 138.468 147.232C138.283 147.655 138.154 148.11 137.906 148.498C135.315 152.577 133.42 156.923 132.191 161.534C129.928 170.031 130.181 178.754 129.69 187.395C129.4 192.56 130.181 197.712 130.681 202.868C131.329 209.515 132.529 216.053 134.253 222.515C135.634 227.698 137.106 232.859 138.607 238.01C138.94 239.159 138.945 239.631 137.416 239.532C134.62 239.352 131.834 239.523 129.066 240.077C124.646 240.96 120.417 242.428 116.111 243.657C108.195 245.922 100.174 247.742 91.9676 248.755C87.2809 249.336 82.5989 249.971 77.874 250.313C75.3782 250.493 72.8729 250.385 70.4009 250.655C63.9947 251.358 57.66 250.741 51.3062 250.056C47.5101 249.646 43.7569 248.962 39.9179 248.822C36.6172 248.701 33.3641 249.399 30.0681 249.097C30.1396 248.025 30.4444 247.012 30.9588 246.053C31.216 243.954 31.5161 239.303 32.321 235.813C33.1879 232.048 33.8309 234.354 34.9692 230.594C35.4455 229.756 34.7263 228.252 35.4122 227.045C34.1786 227.793 37.365 224.424 36.4648 224.969C37.665 220.907 36.7172 216.634 37.827 212.568C38.108 212.234 35.5598 214.873 35.8504 214.527C35.2979 214.202 36.3028 211.077 35.8504 210.978C35.1311 208.321 36.2885 206.38 38.0842 203.899C38.7605 202.967 36.2171 202.251 36.0695 200.963L35.4074 197.626C35.536 197.523 38.5891 197.523 38.7177 197.419H38.7224ZM100.822 179.7C100.312 179.524 100.327 179.88 100.289 180.177C96.0018 184.306 93.6156 188.526 94.5682 190.471C95.0635 189.417 95.5303 188.422 95.9923 187.431C96.0971 187.814 96.14 188.228 96.3257 188.575C96.5591 189.003 96.4115 189.723 97.1211 189.805C97.7117 189.872 97.8737 189.264 98.1357 188.922C98.9215 187.9 99.6503 186.841 100.355 185.774C102.703 182.217 106.128 179.416 108.295 175.579C106.266 175.178 104.804 176.259 103.303 177.128C102.47 177.61 101.341 177.957 101.494 179.236L101.451 179.227C101.084 179.168 100.722 179.114 100.87 179.664L100.808 179.704L100.822 179.7ZM74.5876 201.337C75.302 201.139 76.0164 200.936 77.1167 200.625C73.8207 199.815 70.9582 199.761 68.0956 200.675C67.324 200.634 66.7191 200.941 66.6715 201.675C66.6334 202.287 67.3383 202.562 67.8241 202.598C69.7484 202.742 71.6869 202.958 73.5921 202.4C74.1875 202.224 74.5542 201.94 74.578 201.337H74.5876ZM80.5936 190.034C81.0795 190.16 81.4367 190.75 82.3178 190.282C80.8842 188.521 79.6839 186.657 77.674 185.437C77.0119 185.409 76.6023 184.968 76.126 184.621C75.7259 184.333 75.2448 184.14 74.8114 184.5C74.4066 184.838 74.7162 185.238 74.8686 185.599C75.6592 187.431 76.9214 188.94 78.5503 190.147C79.1743 190.611 79.9649 190.894 80.5984 190.034H80.5936ZM93.6156 210.861C93.2822 210.415 92.944 209.974 92.4344 209.298C92.5344 212.041 93.6347 213.878 95.9637 215.022C96.4829 216.58 97.707 217.62 99.0263 218.53C99.4502 218.823 100.198 219.241 100.712 218.845C101.308 218.386 101.027 217.679 100.712 217.102C99.3312 214.599 97.5308 212.365 95.5589 210.258C94.6063 209.24 93.8728 209.524 93.6204 210.857L93.6156 210.861ZM109.057 217.544C110.038 216.756 109.914 216.058 108.986 215.27C105.756 212.532 102.189 210.244 98.3976 208.285C97.4641 207.803 96.6829 206.858 95.2398 206.97C95.6113 207.493 95.878 207.871 96.14 208.245C100.812 214.41 107.928 219.444 111.886 219.264C110.872 218.647 109.967 218.093 109.062 217.539L109.057 217.544ZM84.3278 184.563C85.0756 186.103 85.4614 187.805 86.695 189.179C84.6707 183.725 83.6753 178.087 83.1133 172.364C82.3798 175.169 82.9227 177.93 83.2562 180.695C81.9559 180.127 82.3274 178.835 81.9749 177.885C81.2938 176.066 80.8366 174.174 80.2841 172.31C78.8361 176.727 79.5172 180.839 81.4557 184.806C81.8177 185.554 82.3274 186.351 83.2704 186.328C84.4231 186.301 83.9325 185.139 84.3326 184.563H84.3278ZM100.327 188.215C99.4169 189.138 98.3357 189.958 97.9737 191.538C98.8739 190.813 99.5598 190.264 100.241 189.714C100.56 190.575 101.16 190.737 101.946 190.286C104.027 189.089 105.98 187.729 107.476 185.887C107.985 185.261 108.881 184.513 108.038 183.617C107.281 182.82 106.185 182.708 105.171 183.09C102.675 184.027 100.865 185.594 100.327 188.215ZM65.4951 208.038C65.2807 207.006 64.5996 207.159 63.8328 207.421C58.8031 209.145 55.5357 212.523 53.5591 217.134C53.1828 218.016 53.721 217.971 54.3211 217.967C54.7736 218.904 55.1404 218.007 55.3547 217.845C58.0315 215.846 60.6559 213.779 63.3184 211.766C65.9809 209.753 68.6243 207.713 71.9441 206.669C73.7969 206.088 75.7402 206.038 77.7549 205.705C75.7069 204.714 72.1394 204.876 69.5436 206.056C68.1766 206.678 66.843 207.371 65.4951 208.033V208.038ZM112.02 190.962C112.844 190.786 113.668 190.611 114.692 190.39C108.195 188.544 100.069 191.853 97.5974 196.028C98.2976 196.163 98.6405 195.496 99.2264 195.411C100.008 196.298 100.77 197.055 102.232 196.838C105.271 196.388 108.162 195.605 110.577 193.754C111.439 193.096 112.577 192.367 112.02 190.962ZM84.2897 218.125C84.6993 223.907 86.433 229.297 89.6004 234.268C92.5201 234.318 93.1965 233.759 92.3296 231.841C89.829 226.311 89.4575 220.417 88.8812 214.549C88.7431 213.131 88.524 211.717 88.3097 210.303C88.1858 209.497 87.7714 209.172 86.9665 209.717C85.7472 209.582 85.6567 210.564 85.3614 211.248C84.5803 213.072 84.5374 215.04 84.2897 216.963C83.3324 216.4 83.9182 215.499 83.7563 214.761C83.6658 214.337 83.923 213.689 83.299 213.585C82.4941 213.455 82.5417 214.265 82.4512 214.675C82.194 215.846 81.9416 217.053 81.9797 218.237C82.0178 219.417 82.1083 220.66 82.818 221.714C83.0275 222.024 83.2943 222.47 83.8087 222.294C84.2373 222.146 84.0944 221.714 84.1182 221.385C84.1992 220.3 83.9706 219.196 84.2897 218.12V218.125ZM62.2515 180.465C60.8512 180.163 60.8654 178.538 59.7128 177.966C59.3937 178.434 59.4747 178.907 59.5794 179.326C60.3749 182.46 61.4656 185.486 63.3708 188.21C64.9997 190.539 66.8287 192.655 69.6388 193.785C71.4726 194.524 72.2299 194.091 72.3871 192.29C74.6733 193.245 76.8309 194.663 79.5887 194.159C71.0391 192.124 67.0764 185.301 62.2705 179.335C61.8657 179.853 62.2705 180.141 62.2515 180.47V180.465ZM112.725 206.191C113.525 204.804 113.168 203.593 111.71 203.021C107.562 201.396 103.556 199.374 99.0882 198.55C97.7594 198.306 96.8639 197.811 96.2209 196.546C93.8776 191.957 87.2666 190.989 83.3943 194.542C81.4557 196.321 81.5986 198.725 81.1557 200.941C80.6651 203.395 81.7844 205.399 83.7372 206.813C87.5333 209.56 93.1393 208.281 95.5732 204.287C96.4527 202.84 97.6641 202.427 99.2073 203.048C101.77 204.449 104.237 206.029 107.161 206.727C109.657 207.322 112.163 207.745 115.063 206.651C114.015 206.444 113.372 206.313 112.729 206.187L112.725 206.191ZM88.8383 183.104C88.8383 183.104 88.8574 183.104 88.8669 183.104C88.8669 181.956 88.9431 180.798 88.8383 179.655C88.7764 178.988 88.5192 178.146 87.6238 178.164C86.6903 178.182 86.3568 178.898 86.3235 179.745C86.2235 182.181 86.6379 184.536 87.4999 186.828C87.619 187.139 87.7286 187.584 88.1191 187.593C88.6574 187.612 88.7955 187.076 88.8145 186.724C88.8765 185.522 88.8383 184.311 88.8383 183.104ZM70.1532 212.761C70.1247 212.464 70.1008 212.144 69.5245 212.266C68.491 212.482 65.5236 215.472 65.4141 216.467C65.3188 217.346 65.6141 217.85 66.6477 217.53C67.5431 217.251 70.1818 213.666 70.1532 212.761ZM74.8162 211.942C71.7298 212.581 68.7005 215.621 68.5862 217.998C70.9344 216.319 72.8395 214.355 74.8162 211.942Z" fill="#3B97D2"/>
<path d="M30.068 249.102C33.3592 249.404 36.6171 248.706 39.9178 248.827C43.7568 248.967 47.51 249.651 51.306 250.061C57.6598 250.745 63.9946 251.362 70.4008 250.66C72.8728 250.39 75.3781 250.498 77.8739 250.318C82.5987 249.975 87.2807 249.336 91.9675 248.76C100.174 247.746 108.195 245.927 116.111 243.662C120.417 242.433 124.651 240.965 129.066 240.082C131.834 239.528 134.62 239.357 137.416 239.537C138.945 239.636 138.94 239.163 138.606 238.015C137.106 232.864 135.634 227.703 134.253 222.52C132.534 216.063 131.329 209.524 130.681 202.873C130.176 197.721 129.395 192.565 129.69 187.4C130.181 178.754 129.928 170.036 132.191 161.539C133.42 156.928 135.315 152.582 137.906 148.502C138.154 148.115 138.283 147.66 138.468 147.237C139.664 146.206 141.269 145.855 142.584 145.03C144.641 143.747 147.227 143.216 148.742 141.158C149.499 140.973 150.252 140.757 151.014 140.604C153.481 140.118 153.391 140.127 153.51 142.419C153.696 146.026 152.224 149.173 150.671 152.307C149.585 154.501 148.399 156.644 147.242 158.801C146.765 159.684 146.432 160.611 146.318 161.588C146.27 162.016 146.38 162.836 146.808 162.728C148.513 162.295 148.032 163.516 148.056 164.155C148.48 175.008 149.023 185.856 148.475 196.726C148.132 203.472 147.675 210.213 147.199 216.95C146.937 220.647 146.861 224.335 146.865 228.032C146.865 230.121 147.432 232.134 147.761 234.179C147.809 234.48 147.67 235.66 148.766 234.732C149.033 234.507 149.19 235.165 149.371 235.421C153.343 241.221 153.467 247.701 153.11 254.271C153.033 255.667 152.128 255.145 151.457 254.942C146.008 253.294 140.44 252.123 134.848 251.038C133.32 250.741 132.5 251 129 251C127.5 251 121.907 251.712 122.922 251C119.359 251.275 125.899 249.399 122.922 250.061C116.059 251.588 109.238 253.326 102.194 253.929C95.8684 254.47 89.5336 254.771 83.1655 254.524C74.7398 254.199 66.438 252.884 58.0742 252.06C53.1588 251.574 48.2054 251.43 43.2662 251.164C41.9659 251.092 40.7418 251.497 39.5606 251.979C36.679 253.164 33.6069 253.573 30.5395 254.024C29.1678 254.226 28.7868 253.754 29.1059 252.556C29.3774 251.552 29.6203 250.543 29.8727 249.539C29.9489 249.404 30.0251 249.264 30.1061 249.129L30.068 249.093V249.102ZM140.95 220.376C141.674 220.016 141.698 219.512 141.864 219.102C143.555 214.905 144.527 210.578 144.384 206.075C144.022 194.7 143.627 183.325 143.217 171.95C143.193 171.275 143.536 170.095 142.574 170.09C141.721 170.09 141.883 171.306 141.86 171.995C141.683 176.903 141.707 181.812 141.926 186.725C142.198 192.84 143.117 198.919 142.888 205.061C142.698 210.145 141.907 215.162 140.959 220.376H140.95ZM141.612 166.443C142.212 163.687 142.826 160.935 143.408 158.18C144.222 154.289 146.103 150.776 147.723 147.169C147.947 146.674 148.485 145.976 147.737 145.661C147.061 145.377 146.513 146.008 146.208 146.602C145.627 147.746 145.141 148.935 144.527 150.06C141.702 155.198 140.883 160.661 141.612 166.443ZM142.26 234.98C142.517 232.94 142.136 230.986 141.464 228.586C140.683 231.161 141.059 233.12 142.26 234.98Z" fill="#2980B9"/>
<path d="M43.5995 146.138C42.304 145.958 41.8658 146.359 42.223 147.647C42.3421 148.084 43.0089 148.849 42.2373 149.16C41.5086 149.457 41.0751 148.66 40.6798 148.192C39.1604 146.395 37.4601 144.738 36.1931 142.743C35.7787 142.094 35.1834 141.482 34.3498 141.149C34.9262 151.348 37.1171 161.242 38.8223 171.198C38.9175 171.765 38.8937 172.103 38.2317 172.184C36.2503 167.447 34.869 162.525 33.2353 157.68C31.2063 151.668 30.1727 145.499 30.549 139.158C30.6966 136.682 30.83 136.569 33.1258 137.654C37.36 139.658 40.5846 142.783 43.5995 146.134V146.138Z" fill="#3B97D2"/>
<path d="M101.355 148.619C101.66 149.196 101.365 149.304 100.812 149.295C98.0119 149.25 95.2208 149.398 92.4201 149.574C86.4712 149.952 80.4937 149.948 74.5495 150.371C70.6296 150.65 66.6811 150.974 62.8231 151.781C62.1467 151.92 61.4704 152.159 60.8084 152.483C59.7986 152.974 58.5602 153.046 57.5029 152.388C53.4972 149.889 48.9533 148.507 44.5714 146.778C44.5381 145.287 45.4954 145.274 46.6576 145.503C51.1062 146.39 55.3214 147.782 58.9508 150.484C59.5176 150.902 60.1558 151.236 60.7464 151.6C61.2084 151.317 61.137 150.893 61.0179 150.65C59.9558 148.525 61.3132 148.678 62.9326 148.543C72.1394 147.768 81.3605 147.741 90.5864 147.921C94.1777 147.993 97.788 148.074 101.351 148.624L101.355 148.619Z" fill="#3B97D2"/>
<path d="M148.742 141.162C147.227 143.216 144.641 143.747 142.583 145.035C141.269 145.854 139.664 146.21 138.468 147.241C135.12 148.727 131.743 150.164 128.785 152.316C128.494 152.528 128.166 152.69 127.89 152.911C127.228 153.438 126.437 153.73 125.718 153.253C124.894 152.704 125.689 152.01 125.794 151.38C125.822 151.209 125.87 151.042 125.908 150.875C132.786 146.098 140.483 143.031 148.742 141.167V141.162Z" fill="#3B97D2"/>
<path d="M37.7266 174.593C36.6788 179.155 36.3882 183.784 36.4073 188.436C36.4121 190.106 36.3978 191.781 36.4264 193.452C36.4454 194.407 36.7169 195.078 38.0029 195.096C40.4463 195.127 40.4463 195.19 40.1034 197.5C38.5983 198.203 37.0884 198.905 35.6452 199.576C33.2256 191.831 33.74 184.243 36.1596 176.705C36.3882 175.993 36.5597 175.273 36.7645 174.552C36.8503 174.26 36.6693 173.742 37.1932 173.791C37.398 173.809 37.5504 174.314 37.7266 174.597V174.593Z" fill="#3B97D2"/>
<path d="M37.8698 226.023C36.7315 229.784 37.6459 233.728 36.7791 237.493C35.9741 240.983 33.7355 243.707 30.9587 246.058C31.1921 245.126 31.435 244.387 32.4019 243.644C33.4212 242.861 33.4164 241.109 33.4212 239.767C33.426 237.236 33.8118 234.732 33.8308 232.211C33.8403 230.689 34.2547 229.432 35.5169 228.401C36.379 227.699 37.0887 226.825 37.865 226.023H37.8698Z" fill="#3B97D2"/>
<path d="M37.827 212.577C36.7172 216.647 37.665 220.921 36.4648 224.978C36.1933 225.717 35.5646 226.154 34.8311 226.64C34.7453 222.686 33.9309 218.755 35.2502 214.887C35.6503 213.711 36.6458 213.027 37.827 212.577Z" fill="#3B97D2"/>
<path d="M39.2843 200.554C39.4319 201.842 38.7651 202.976 38.0888 203.904C36.2884 206.385 36.5408 208.943 37.26 211.6C36.6885 211.888 36.1169 212.172 35.4215 212.523C35.0595 209.655 34.8928 206.93 34.9452 204.188C34.969 202.936 35.7692 202.206 36.8552 201.684C37.6601 201.297 38.4746 200.927 39.2843 200.554Z" fill="#3B97D2"/>
<path d="M130.028 145.508C130.123 145.283 130.3 145.179 130.557 145.193C130.381 145.296 130.204 145.404 130.028 145.508Z" fill="#BEE9D5"/>
<path d="M39.6988 200.306C39.5654 200.409 39.4368 200.513 39.3035 200.621C39.2844 200.351 39.4892 200.324 39.6988 200.306Z" fill="#2980B9"/>
<path d="M30.1062 249.138C30.0299 249.273 29.9537 249.412 29.8728 249.547C29.8537 249.363 29.8156 249.169 30.1062 249.138Z" fill="#FCAC9F"/>
<path d="M99.2026 203.053C97.6594 202.431 96.448 202.844 95.5684 204.291C93.1393 208.285 87.5285 209.56 83.7325 206.817C81.7796 205.403 80.6603 203.395 81.1509 200.945C81.5939 198.725 81.451 196.325 83.3895 194.546C87.2618 190.993 93.8776 191.961 96.2162 196.55C96.8592 197.811 97.7546 198.311 99.0835 198.554C103.551 199.374 107.552 201.4 111.705 203.026C113.168 203.597 113.525 204.813 112.72 206.196C108.557 206.155 104.666 205.147 101.032 203.237C100.465 202.94 99.9027 202.251 99.1978 203.062L99.2026 203.053ZM82.356 200.972C82.356 204.701 85.5519 206.871 88.9527 205.417C91.2341 204.44 92.3105 202.607 92.5011 200.355C92.6868 198.108 91.8438 196.181 89.9195 194.749C89.3575 194.335 88.7098 194.263 88.0191 194.29C84.7422 194.402 82.356 197.212 82.3607 200.972H82.356ZM96.7544 201.26C97.1783 198.572 97.1069 198.473 94.9302 198.725C95.3303 199.644 95.878 200.409 96.7544 201.26Z" fill="#3B97D2"/>
<path d="M86.9664 209.717C87.7761 209.177 88.1905 209.497 88.3096 210.303C88.5239 211.717 88.743 213.131 88.8811 214.549C89.4575 220.417 89.829 226.307 92.3295 231.841C93.1964 233.759 92.52 234.313 89.6003 234.268C89.9004 233.192 89.4241 232.215 89.0955 231.242C86.7235 224.213 84.985 217.134 86.9664 209.717Z" fill="#3B97D2"/>
<path d="M72.3868 192.286C72.2297 194.087 71.4723 194.519 69.6386 193.781C66.8332 192.651 65.0042 190.534 63.3705 188.206C61.4654 185.486 60.3794 182.46 59.5792 179.321C59.4744 178.907 59.3935 178.43 59.7126 177.961C60.8605 178.533 60.8509 180.159 62.2465 180.461C64.8185 184.671 67.2238 189.003 71.701 191.795C71.7391 192.2 72.0201 192.308 72.3964 192.295L72.3821 192.281L72.3868 192.286Z" fill="#2980B9"/>
<path d="M101.503 179.227C101.351 177.948 102.479 177.602 103.313 177.12C104.813 176.255 106.275 175.17 108.304 175.571C106.137 179.407 102.713 182.208 100.365 185.766C99.6597 186.837 98.9262 187.896 98.145 188.913C97.8831 189.256 97.7164 189.864 97.1305 189.796C96.4208 189.715 96.5637 188.994 96.3351 188.567C96.1494 188.22 96.1065 187.806 96.0017 187.423C97.3877 184.131 100.141 181.934 102.903 179.745C104.351 178.597 105.799 177.439 107.247 176.287C104.97 176.755 103.356 178.169 101.512 179.223L101.503 179.227Z" fill="#3B97D2"/>
<path d="M86.9666 209.718C84.9852 217.13 86.7237 224.209 89.0956 231.242C89.4243 232.215 89.9006 233.192 89.6005 234.269C86.4379 229.297 84.7042 223.907 84.2898 218.125C84.2898 217.738 84.2898 217.35 84.2898 216.963C84.5327 215.036 84.5803 213.072 85.3615 211.249C85.652 210.569 85.7473 209.583 86.9666 209.718Z" fill="#263C38"/>
<path d="M112.02 190.962C112.577 192.367 111.434 193.097 110.576 193.754C108.162 195.601 105.271 196.389 102.232 196.839C100.77 197.055 100.007 196.303 99.2263 195.411C102.965 192.579 107.39 191.503 112.024 190.962H112.02Z" fill="#3B97D2"/>
<path d="M65.495 208.038C66.8429 207.376 68.1765 206.682 69.5435 206.061C72.1345 204.881 75.7068 204.724 77.7548 205.71C75.7401 206.043 73.7968 206.093 71.944 206.673C68.6242 207.714 65.9855 209.758 63.3183 211.771C60.651 213.784 58.0266 215.846 55.3546 217.85C55.1403 218.012 54.7735 218.908 54.321 217.972C57.8409 214.455 61.3702 210.951 65.495 208.038Z" fill="#263C38"/>
<path d="M65.4949 208.038C61.3702 210.947 57.8409 214.455 54.321 217.972C53.7209 217.976 53.1827 218.021 53.559 217.139C55.5356 212.523 58.803 209.15 63.8327 207.426C64.5995 207.16 65.2854 207.011 65.4949 208.042V208.038Z" fill="#2980B9"/>
<path d="M100.326 188.215C100.865 185.599 102.675 184.032 105.17 183.091C106.185 182.708 107.285 182.816 108.038 183.617C108.881 184.509 107.985 185.261 107.476 185.887C105.98 187.724 104.027 189.089 101.946 190.287C101.16 190.741 100.555 190.579 100.241 189.715C101.336 188.918 102.432 188.116 103.68 187.202C102.174 186.9 101.379 187.922 100.326 188.215Z" fill="#3B97D2"/>
<path d="M84.3277 184.563C83.9324 185.139 84.4182 186.301 83.2656 186.328C82.3225 186.351 81.8176 185.554 81.4509 184.806C79.5124 180.839 78.8313 176.728 80.2792 172.31C80.8317 174.17 81.2937 176.066 81.97 177.885C82.3225 178.835 81.951 180.123 83.2513 180.695L83.2084 180.789C83.0417 181.303 82.6654 181.875 83.5799 182.118L83.5513 182.163C83.3799 182.591 83.2179 183.014 83.8514 183.239L83.8228 183.221C83.8228 183.716 83.3942 184.347 84.2944 184.563H84.3229H84.3277Z" fill="#2980B9"/>
<path d="M96.1351 208.245C95.8683 207.871 95.6016 207.493 95.2349 206.971C96.678 206.858 97.4592 207.804 98.3927 208.286C102.184 210.244 105.751 212.527 108.981 215.27C109.91 216.058 110.033 216.756 109.057 217.544C104.537 215.459 101.193 211.978 97.5258 208.884C97.1591 208.574 96.9305 207.795 96.1351 208.25V208.245Z" fill="#3B97D2"/>
<path d="M71.7057 191.8C67.2285 189.008 64.8232 184.671 62.2512 180.465C62.2702 180.137 61.8654 179.848 62.2702 179.331C67.0761 185.297 71.0389 192.119 79.5884 194.155C76.8259 194.659 74.673 193.241 72.3868 192.286L72.4011 192.3C72.1677 192.133 71.9391 191.966 71.7057 191.8Z" fill="#2B413D"/>
<path d="M93.6156 210.862C93.868 209.524 94.6063 209.245 95.5541 210.263C97.5212 212.366 99.3264 214.599 100.708 217.107C101.027 217.684 101.303 218.391 100.708 218.85C100.193 219.246 99.4455 218.828 99.0216 218.535C97.7022 217.625 96.4781 216.581 95.959 215.027C96.4162 214.424 95.7732 214.104 95.5351 213.721C94.9349 212.748 94.2586 211.816 93.6108 210.871L93.6156 210.862Z" fill="#3B97D2"/>
<path d="M112.02 190.962C107.385 191.503 102.96 192.579 99.2215 195.411C98.6356 195.497 98.2927 196.163 97.5925 196.028C100.065 191.854 108.195 188.544 114.687 190.39C113.663 190.611 112.839 190.787 112.015 190.962H112.02Z" fill="#2980B9"/>
<path d="M96.135 208.245C96.9304 207.794 97.1543 208.574 97.5258 208.88C101.198 211.973 104.542 215.454 109.057 217.539C109.962 218.093 110.867 218.642 111.881 219.264C107.923 219.444 100.807 214.41 96.135 208.245Z" fill="#2B413D"/>
<path d="M101.503 179.227C103.346 178.173 104.966 176.754 107.238 176.291C105.79 177.443 104.342 178.596 102.894 179.749C100.131 181.937 97.383 184.135 95.9922 187.427C95.5255 188.417 95.0587 189.413 94.5681 190.466C93.6155 188.521 95.997 184.306 100.284 180.177C100.46 180.019 100.641 179.857 100.817 179.699C100.817 179.699 100.879 179.659 100.874 179.659C101.065 179.515 101.26 179.366 101.455 179.222L101.498 179.231L101.503 179.227Z" fill="#2B413D"/>
<path d="M88.8383 183.104C88.8383 184.311 88.8764 185.518 88.8145 186.725C88.7955 187.076 88.6573 187.607 88.1191 187.594C87.7238 187.58 87.6143 187.139 87.4999 186.828C86.6378 184.541 86.2235 182.181 86.3235 179.745C86.3568 178.898 86.6902 178.182 87.6238 178.164C88.5192 178.151 88.7812 178.988 88.8383 179.655C88.9431 180.799 88.8669 181.951 88.8669 183.104C88.8574 183.104 88.8479 183.104 88.8383 183.104Z" fill="#3B97D2"/>
<path d="M83.2559 180.695C82.9178 177.93 82.3796 175.17 83.1131 172.364C83.6751 178.092 84.6753 183.726 86.6948 189.179C85.4612 187.805 85.0754 186.103 84.3276 184.563H84.299C84.2085 184.095 84.2133 183.595 83.8275 183.221L83.8561 183.239C83.7561 182.879 83.656 182.523 83.556 182.163L83.5846 182.118C83.4607 181.677 83.3369 181.231 83.2131 180.79L83.2559 180.695Z" fill="#2B413D"/>
<path d="M99.2024 203.053C99.9025 202.247 100.469 202.931 101.036 203.229C104.675 205.138 108.562 206.147 112.724 206.187C113.367 206.313 114.006 206.444 115.058 206.651C112.158 207.745 109.652 207.322 107.157 206.728C104.237 206.03 101.765 204.449 99.2024 203.048V203.053Z" fill="#2980B9"/>
<path d="M84.2943 216.968C84.2943 217.355 84.2943 217.742 84.2943 218.13C83.9752 219.206 84.2038 220.305 84.1228 221.395C84.099 221.719 84.2419 222.156 83.8132 222.304C83.2988 222.48 83.0369 222.038 82.8225 221.723C82.1128 220.67 82.0176 219.427 81.9842 218.247C81.9461 217.063 82.2033 215.856 82.4558 214.685C82.5463 214.275 82.4986 213.465 83.3036 213.595C83.9275 213.699 83.6703 214.347 83.7608 214.77C83.9228 215.509 83.3369 216.41 84.2943 216.972V216.968Z" fill="#2980B9"/>
<path d="M80.5936 190.034C79.9649 190.894 79.1742 190.611 78.5455 190.147C76.9166 188.936 75.6544 187.427 74.8638 185.599C74.7113 185.243 74.4017 184.838 74.8066 184.5C75.24 184.14 75.7211 184.329 76.1212 184.622C76.5975 184.968 77.0071 185.41 77.6691 185.437C77.9692 187.355 79.3933 188.629 80.5888 190.039L80.5936 190.034Z" fill="#2980B9"/>
<path d="M70.153 212.762C70.1816 213.667 67.5429 217.247 66.6475 217.53C65.6187 217.855 65.3186 217.346 65.4139 216.468C65.5234 215.472 68.486 212.487 69.5243 212.266C70.0959 212.145 70.1245 212.464 70.153 212.762Z" fill="#2980B9"/>
<path d="M74.8161 211.942C72.8395 214.356 70.9343 216.319 68.5862 217.999C68.7005 215.621 71.7297 212.581 74.8161 211.942Z" fill="#2980B9"/>
<path d="M74.5874 201.337C74.5589 201.945 74.1969 202.224 73.6015 202.4C71.6916 202.958 69.753 202.742 67.8336 202.598C67.3477 202.562 66.6428 202.287 66.6809 201.675C66.7238 200.941 67.3334 200.639 68.105 200.675C67.7907 201.567 68.4527 201.423 68.9862 201.414C70.8533 201.387 72.7251 201.36 74.5922 201.333L74.5874 201.337Z" fill="#2980B9"/>
<path d="M74.5875 201.337C72.7204 201.364 70.8486 201.391 68.9815 201.418C68.448 201.427 67.7907 201.571 68.1003 200.68C70.9581 199.761 73.8254 199.819 77.1214 200.63C76.0164 200.941 75.3019 201.139 74.5922 201.342L74.5875 201.337Z" fill="#2980B9"/>
<path d="M80.5935 190.034C79.398 188.625 77.9739 187.35 77.6738 185.432C79.6838 186.657 80.8841 188.517 82.3177 190.277C81.4366 190.746 81.0793 190.156 80.5935 190.03V190.034Z" fill="#2B413D"/>
<path d="M93.6155 210.862C94.2633 211.807 94.9396 212.739 95.5398 213.712C95.7779 214.099 96.4209 214.419 95.9637 215.018C93.6346 213.874 92.5343 212.037 92.4343 209.294C92.944 209.97 93.2821 210.416 93.6155 210.857V210.862Z" fill="#2980B9"/>
<path d="M100.327 188.215C101.379 187.923 102.175 186.9 103.68 187.202C102.427 188.116 101.332 188.918 100.241 189.715C99.5597 190.264 98.8738 190.814 97.9736 191.539C98.3356 189.962 99.4216 189.143 100.327 188.215Z" fill="#2B413D"/>
<path d="M101.465 179.223C101.269 179.367 101.074 179.511 100.884 179.66C100.736 179.11 101.098 179.164 101.465 179.223Z" fill="#F79080"/>
<path d="M100.822 179.7C100.641 179.858 100.465 180.02 100.288 180.177C100.326 179.88 100.312 179.524 100.822 179.7Z" fill="#F79080"/>
<path d="M140.95 220.376C141.898 215.161 142.693 210.15 142.879 205.061C143.108 198.919 142.188 192.84 141.917 186.724C141.698 181.811 141.674 176.903 141.85 171.995C141.874 171.306 141.712 170.085 142.565 170.09C143.522 170.09 143.184 171.274 143.208 171.95C143.617 183.324 144.013 194.699 144.375 206.074C144.517 210.577 143.546 214.909 141.855 219.102C141.688 219.511 141.664 220.011 140.94 220.376H140.95Z" fill="#2980B9"/>
<path d="M141.612 166.443C140.883 160.661 141.702 155.194 144.527 150.061C145.146 148.935 145.627 147.746 146.208 146.603C146.508 146.008 147.061 145.378 147.737 145.661C148.485 145.977 147.947 146.67 147.723 147.17C146.103 150.777 144.222 154.289 143.408 158.18C142.831 160.94 142.212 163.692 141.612 166.443Z" fill="#2980B9"/>
<path d="M142.259 234.98C141.059 233.12 140.688 231.166 141.464 228.585C142.136 230.986 142.512 232.935 142.259 234.98Z" fill="#2980B9"/>
<path d="M82.3558 200.973C82.3558 197.212 84.7421 194.403 88.0142 194.29C88.7001 194.267 89.3526 194.335 89.9147 194.749C91.8389 196.177 92.6867 198.104 92.4962 200.356C92.3104 202.607 91.2292 204.444 88.9478 205.417C85.547 206.872 82.3558 204.701 82.3511 200.973H82.3558ZM84.1134 202.994C84.9612 204.8 86.3234 205.237 88.3953 204.354C91.215 203.157 92.2342 199.883 90.6863 196.978C89.6384 195.01 88.8478 194.974 85.5899 196.749C83.5132 198.419 83.075 200.275 84.1086 202.994H84.1134Z" fill="#263C38"/>
<path d="M96.7541 201.26C95.873 200.409 95.33 199.644 94.9299 198.725C97.1066 198.473 97.1828 198.572 96.7541 201.26Z" fill="#3B97D2"/>
<path d="M71.7058 191.8C71.9392 191.966 72.1678 192.133 72.4012 192.3C72.0249 192.313 71.7487 192.205 71.7058 191.8Z" fill="#FCAC9F"/>
<path d="M83.2131 180.79C83.3369 181.231 83.4608 181.677 83.5846 182.118C82.6701 181.875 83.0464 181.307 83.2131 180.79Z" fill="#2980B9"/>
<path d="M83.8321 183.216C84.2179 183.59 84.2084 184.09 84.3036 184.558C83.4082 184.342 83.8368 183.712 83.8321 183.216Z" fill="#2980B9"/>
<path d="M83.5608 182.163C83.6609 182.523 83.7609 182.879 83.8609 183.239C83.2274 183.014 83.3894 182.591 83.5608 182.163Z" fill="#2980B9"/>
<path d="M85.5944 196.749C88.8523 194.974 89.643 195.011 90.6908 196.978C92.2388 199.883 91.2195 203.157 88.3998 204.354C86.3279 205.233 84.9657 204.8 84.1179 202.995C85.2848 202.625 85.5516 201.72 85.5801 200.72C85.6183 199.397 85.5944 198.073 85.5992 196.749H85.5944Z" fill="#3B97D2"/>
<path d="M85.5946 196.749C85.5946 198.072 85.6136 199.396 85.5755 200.72C85.547 201.72 85.2802 202.625 84.1133 202.994C83.0797 200.27 83.5179 198.419 85.5946 196.749Z" fill="#3B97D2"/>
<path d="M58.9553 150.479C58.9553 150.479 52.1919 144.544 44.5759 146.773C44.5759 146.773 36.5169 135.646 30.7776 137.316C30.7776 137.316 28.0293 158.634 38.2316 172.184C48.4339 185.734 37.1933 173.787 37.1933 173.787C37.1933 173.787 31.2443 186.702 35.6453 199.572L34.8308 226.636L32.0969 242.631" stroke="#414042" stroke-width="1.31712" stroke-miterlimit="10" stroke-linecap="round"/>
<path d="M104.951 148.709C101.708 148.597 98.5641 148.601 95.8921 148.795" stroke="#414042" stroke-width="1.31712" stroke-miterlimit="10" stroke-linecap="round"/>
<path d="M147.47 181.979C147.251 172.067 149.385 168.064 147.175 164.169C145.089 160.485 147.985 157.977 147.985 157.977C155.491 147.962 153.062 140.239 153.062 140.239C153.062 140.239 136.73 142.743 127.456 150.673C127.456 150.673 120.402 149.718 112.267 149.119" stroke="#414042" stroke-width="1.31712" stroke-miterlimit="10" stroke-linecap="round"/>
<path d="M153.105 254.285C156.239 241.865 148.766 234.741 148.766 234.741C148.766 234.741 149.752 237.069 147.761 234.187C145.77 231.305 147.761 211.194 147.761 211.194C148.756 208.375 147.513 199.81 147.466 190.602" stroke="#414042" stroke-width="1.31712" stroke-miterlimit="10" stroke-linecap="round"/>
<path d="M89.4907 254.6C89.4907 254.6 114.211 254.181 130.547 248.341" stroke="#414042" stroke-width="1.31712" stroke-miterlimit="10" stroke-linecap="round"/>
<path d="M174.865 166.653L164.78 244.555L182.176 244.051L191.252 165.393L174.865 166.653Z" fill="#414042"/>
<path d="M300.358 166.653L310.443 244.555L293.047 244.051L283.971 165.393L300.358 166.653Z" fill="#414042"/>
<path d="M298.651 154.634C298.847 158.164 300.169 164.304 300.617 167.806C300.752 168.876 300.556 169.985 300.97 171.016C297.827 171.021 294.684 171.016 291.547 171.049C289.917 171.066 288.494 172.523 288.656 174.047C288.947 176.764 289.289 179.475 289.67 182.176C289.956 184.215 290.634 184.792 292.578 184.798C295.962 184.809 299.346 184.803 302.729 184.803C303.329 189.476 303.934 194.154 304.533 198.832C301.2 198.832 297.861 198.815 294.527 198.832C292.779 198.837 291.995 199.711 291.995 201.605C291.995 204.149 292.404 206.653 292.774 209.146C293.2 212.042 293.928 212.586 296.623 212.58C299.861 212.58 303.099 212.563 306.337 212.552C306.937 217.152 307.536 221.751 308.141 226.345C304.707 226.345 301.273 226.329 297.838 226.345C296.04 226.357 295.205 227.292 295.2 229.242C295.194 231.735 295.609 234.189 295.973 236.631C296.427 239.674 297.032 240.094 299.923 240.094C303.262 240.094 306.595 240.111 309.934 240.116C310.343 243.209 310.758 246.296 311.161 249.388C311.772 254.044 309.648 256.649 305.25 256.649C300.696 256.649 296.135 256.649 291.581 256.649C288.169 256.649 286.146 254.61 285.883 251.007C285.608 247.22 285.306 243.433 284.981 239.651C284.768 237.119 283.126 235.192 280.807 234.71C280.286 234.603 279.748 234.553 279.222 234.553C251.495 234.547 223.769 234.542 196.042 234.553C192.815 234.553 190.535 236.463 190.25 239.438C190.009 241.92 189.846 244.413 189.656 246.906C189.538 248.413 189.448 249.92 189.314 251.422C189.023 254.548 186.905 256.638 183.969 256.649C179.073 256.671 174.176 256.677 169.28 256.649C165.952 256.632 163.711 254.077 164.03 250.486C164.338 247.018 164.876 243.578 165.319 240.122C168.994 240.116 172.669 240.122 176.344 240.094C177.751 240.082 178.933 239.214 179.112 237.864C179.493 235.052 179.835 232.233 180.025 229.399C180.171 227.259 179.252 226.351 177.269 226.345C173.885 226.334 170.501 226.345 167.117 226.345C167.717 221.746 168.316 217.146 168.921 212.552C172.406 212.563 175.896 212.591 179.381 212.575C180.95 212.563 182.132 211.723 182.317 210.345C182.698 207.532 183.039 204.703 183.23 201.868C183.375 199.734 182.457 198.837 180.457 198.832C177.213 198.821 173.969 198.832 170.72 198.837C171.319 194.165 171.924 189.487 172.524 184.809C175.963 184.809 179.398 184.815 182.838 184.798C184.58 184.787 185.319 184.131 185.577 182.305C185.896 180.058 186.205 177.806 186.423 175.543C186.754 172.058 185.852 171.049 182.563 171.044C179.801 171.044 177.045 171.027 174.283 171.021C174.703 167.688 175.129 164.355 175.532 161.016C175.683 159.783 175.779 158.545 175.902 157.307C176.63 157.301 176.658 154.623 177.386 154.623C210.06 154.623 242.632 153.8 275.306 153.805C283.059 153.805 290.914 154.64 298.668 154.646L298.651 154.634ZM237.601 212.53C250.448 212.53 263.288 212.53 276.135 212.53C280.32 212.53 282.426 210.149 282.084 205.672C281.631 199.706 281.126 193.745 280.594 187.789C280.264 184.092 278.297 182.176 274.846 182.176C250.033 182.165 225.214 182.165 200.401 182.176C196.956 182.176 194.978 184.092 194.642 187.778C194.11 193.683 193.594 199.588 193.146 205.504C192.787 210.222 194.827 212.524 199.213 212.53C212.009 212.53 224.805 212.53 237.601 212.53Z" fill="#92B7E7"/>
<path d="M299.351 155.789C291.597 155.784 283.838 155.767 276.084 155.767C243.411 155.767 210.743 155.767 178.07 155.767C177.342 155.767 176.613 155.778 175.891 155.789C171.532 156.014 168.854 153.829 168.277 149.56C167.789 145.968 170.708 142.17 174.081 142.007C174.372 141.991 174.664 142.007 174.955 142.007C216.783 142.007 258.61 142.007 300.438 142.007C303.934 142.007 306.405 144.36 306.931 148.176C307.374 151.375 305.413 154.562 302.376 155.565C301.39 155.89 300.371 155.862 299.357 155.789H299.351Z" fill="#82A3CD"/>
<path d="M309.928 238.6C306.589 238.594 303.255 238.583 299.916 238.577C297.025 238.577 296.415 238.157 295.967 235.115C295.602 232.672 295.188 230.218 295.193 227.725C295.193 225.776 296.034 224.84 297.832 224.829C301.266 224.806 304.701 224.829 308.135 224.829C308.88 229.4 309.429 234 309.928 238.605V238.6Z" fill="#82A3CD"/>
<path d="M167.099 224.822C170.483 224.822 173.867 224.811 177.251 224.822C179.228 224.827 180.147 225.741 180.007 227.875C179.817 230.704 179.475 233.528 179.094 236.34C178.909 237.691 177.733 238.559 176.326 238.57C172.651 238.593 168.976 238.593 165.301 238.598C165.799 233.993 166.348 229.393 167.094 224.822H167.099Z" fill="#82A3CD"/>
<path d="M305.996 210.693C302.757 210.704 299.519 210.721 296.281 210.721C293.586 210.721 292.858 210.183 292.432 207.286C292.068 204.793 291.653 202.289 291.653 199.745C291.653 197.852 292.443 196.978 294.186 196.972C297.519 196.961 300.858 196.972 304.192 196.972C304.841 199.398 304.903 201.93 305.301 204.401C305.637 206.48 305.766 208.592 305.99 210.687L305.996 210.693Z" fill="#82A3CD"/>
<path d="M170.702 197.314C173.946 197.314 177.189 197.297 180.439 197.309C182.439 197.314 183.358 198.211 183.212 200.345C183.021 203.18 182.68 206.009 182.299 208.822C182.114 210.2 180.932 211.04 179.363 211.051C175.878 211.074 172.388 211.04 168.903 211.029C169.329 206.429 169.873 201.852 170.707 197.314H170.702Z" fill="#82A3CD"/>
<path d="M302.556 183.286C299.172 183.286 295.788 183.286 292.404 183.28C290.46 183.275 289.782 182.698 289.497 180.659C289.116 177.953 288.768 175.247 288.483 172.529C288.32 171.006 289.749 169.555 291.373 169.532C294.516 169.493 297.654 169.504 300.797 169.499C301.519 174.076 302.209 178.653 302.556 183.286Z" fill="#82A3CD"/>
<path d="M174.265 169.499C177.027 169.504 179.783 169.515 182.545 169.521C185.834 169.521 186.736 170.535 186.405 174.02C186.193 176.283 185.879 178.535 185.559 180.782C185.302 182.608 184.568 183.264 182.82 183.275C179.38 183.292 175.946 183.28 172.506 183.286C172.539 180.434 173.178 177.661 173.469 174.843C173.654 173.05 173.99 171.28 174.259 169.499H174.265Z" fill="#82A3CD"/>
<path d="M299.5 162.5L311.5 252" stroke="black" stroke-width="1.6" stroke-linecap="round"/>
<path d="M300.667 143.207H176.63C176.63 143.207 167.554 141.974 168.831 149.952C168.831 149.952 168.562 155.588 175.885 155.062" stroke="#414042" stroke-width="2" stroke-miterlimit="10" stroke-linecap="round"/>
<path d="M200.4 181.056H272.43C272.43 181.056 278.985 180.519 280.588 186.67L283.523 207.242" stroke="#414042" stroke-width="2" stroke-miterlimit="10" stroke-linecap="round"/>
<path d="M240.441 156.147H297.11" stroke="#414042" stroke-width="2" stroke-miterlimit="10" stroke-linecap="round"/>
<path d="M210.692 156.147H223.802" stroke="#414042" stroke-width="2" stroke-miterlimit="10" stroke-linecap="round"/>
<path d="M213.952 101.041C212.327 101.178 211.064 101.59 210.371 101.839C210.371 101.839 210.128 101.923 209.874 102.042C208.659 102.546 204.822 104.975 202.507 108.431C198.79 114.029 199.791 121.293 200.123 123.233C201.8 132.946 209.135 138.521 211.212 139.978C240.59 141.803 262.888 144.03 271.93 142.77C272.844 142.638 276.584 142.819 280.952 141.251C286.303 139.326 293.302 134.731 292.714 130.2C292.584 129.299 292.139 128.099 290.679 126.799C290.91 125.467 291.308 121.894 289.273 118.262C288.221 116.378 286.936 115.233 286.436 114.829C283.178 112.114 279.17 111.839 277.247 111.674C271.331 111.216 262.932 110.247 252.289 109.11C250.714 108.188 248.18 106.847 244.865 105.733C241.445 104.602 240.47 104.891 230.757 103.159C227.433 102.572 224.572 102.132 221.018 101.595C219.302 101.334 216.934 100.79 213.918 101.046L213.952 101.041Z" fill="#348FC7"/>
<path d="M213.557 140.148C213.847 140.171 214.154 140.192 214.442 140.2C214.595 140.21 214.765 140.218 214.919 140.229C215.19 140.238 215.463 140.264 215.735 140.274C215.905 140.282 216.075 140.29 216.247 140.314C216.502 140.326 216.759 140.354 217.03 140.364C217.2 140.372 217.37 140.38 217.542 140.404C217.797 140.417 218.054 140.445 218.309 140.457C218.478 140.465 218.632 140.475 218.802 140.484C219.056 140.496 219.33 140.521 219.585 140.534C219.738 140.544 219.908 140.552 220.061 140.563C220.335 140.588 220.623 140.596 220.897 140.621C221.033 140.634 221.151 140.634 221.288 140.647C221.595 140.667 221.918 140.686 222.225 140.707C222.326 140.709 222.43 140.726 222.515 140.73C222.907 140.755 223.298 140.78 223.69 140.805C223.69 140.805 223.69 140.805 223.706 140.803C244.254 142.208 260.267 143.517 269.06 143.078C269.226 143.054 269.379 143.064 269.546 143.056C268.026 142.459 266.622 141.617 265.419 140.533C260.142 135.774 261.004 128.214 261.162 126.737C261.353 125.026 261.899 120.061 265.767 116.25C268.379 113.666 271.988 112.146 275.963 111.751C270.205 111.244 262.385 110.367 252.702 109.317C251.135 108.4 248.614 107.066 245.316 105.958C241.735 105.692 241.236 105.16 231.281 103.398C227.975 102.815 225.128 102.377 221.592 101.843C219.885 101.584 217.529 101.042 214.529 101.297C212.913 101.433 211.656 101.844 210.967 102.09C210.967 102.09 210.726 102.174 210.473 102.293C209.263 102.795 205.446 105.21 203.144 108.648C199.446 114.216 200.441 121.441 200.771 123.371C202.439 133.032 209.737 138.577 211.802 140.026C212.246 140.06 212.67 140.08 213.114 140.114C213.251 140.127 213.387 140.14 213.538 140.134L213.557 140.148Z" fill="#348FC7"/>
<path d="M277.477 138.032C282.716 137.273 286.91 133.696 288.491 132.339C289.764 131.242 290.934 130.028 291.984 128.698C291.672 128.212 291.235 127.695 290.638 127.15C289.593 128.513 288.428 129.76 287.137 130.859C285.356 132.378 279.966 136.991 273.93 136.056C273.223 135.943 271.354 135.666 269.568 134.299C265.98 131.566 266.123 126.95 266.129 126.75C266.176 125.648 266.584 121.906 269.922 119.581C272.48 117.817 276.631 117.05 279.643 119.02C281.015 119.916 283.203 122.154 282.765 124.856C282.503 126.503 281.285 127.625 280.707 128.157C280.28 128.55 279.019 129.728 277.012 130.052C276.116 130.182 274.242 130.47 273.353 129.453C272.918 128.952 272.462 127.824 273.09 126.92C273.59 126.201 274.595 125.873 275.526 126.103C276.08 126.238 276.639 125.925 276.786 125.389C276.933 124.854 276.63 124.317 276.059 124.184C274.251 123.732 272.378 124.385 271.378 125.824C270.25 127.447 270.723 129.519 271.778 130.727C273.409 132.581 276.145 132.169 277.309 131.983C279.96 131.583 281.587 130.07 282.118 129.562C282.801 128.915 284.414 127.421 284.787 125.111C285.306 121.9 283.162 118.892 280.798 117.343C276.833 114.748 271.761 115.83 268.717 117.93C264.609 120.781 264.109 125.317 264.058 126.635C264.039 127.218 263.942 132.508 268.264 135.781C270.457 137.455 272.803 137.812 273.58 137.932C274.921 138.136 276.229 138.113 277.48 137.932L277.477 138.032Z" fill="black"/>
<path d="M187.632 102.753C186.007 102.889 184.744 103.302 184.054 103.567C184.054 103.567 183.811 103.651 183.557 103.77C182.342 104.274 178.505 106.703 176.19 110.159C172.473 115.757 173.474 123.021 173.803 124.945C175.481 134.657 182.661 141.505 184.738 142.962C207.474 143.467 229.044 142.301 248.866 143.467C251.957 143.036 251.714 143.533 254.633 142.962C255.076 142.865 264.187 140.791 266.453 133.366C267.52 129.844 266.451 126.68 265.922 125.13C265.543 124.035 264.094 120.236 260.252 117.474C256.94 115.095 250.767 112.982 226.584 108.86C215.769 107.009 213.316 106.46 204.473 104.882C201.15 104.295 198.288 103.855 194.734 103.318C193.018 103.057 190.65 102.513 187.635 102.769L187.632 102.753Z" fill="#FEED77"/>
<g style="mix-blend-mode:multiply" opacity="0.4">
<path d="M226.598 108.842C215.783 106.99 213.33 106.442 204.488 104.863C201.164 104.277 198.302 103.837 194.749 103.3C193.032 103.039 190.664 102.495 187.649 102.75C186.024 102.887 184.761 103.3 184.07 103.564C184.07 103.564 183.828 103.649 183.574 103.767C182.358 104.272 178.522 106.7 176.207 110.157C172.473 115.757 173.474 123.021 173.803 124.945C175.481 134.657 182.816 140.232 184.892 141.69C211.555 143.467 234.874 144.05 247.7 144.05C246.171 143.45 239.996 143.291 238.787 142.201C235.003 138.789 233.616 133.306 234.507 128.331C235.284 123.98 237.712 119.899 241.199 117.045C242.912 115.647 244.888 114.54 246.982 113.776C247.611 113.554 248.243 113.348 248.848 113.194C243.909 111.987 236.875 110.607 226.582 108.844L226.598 108.842Z" fill="#FEED77"/>
</g>
<path d="M191.237 118.643C189.114 130.203 196.287 138.874 196.583 139.242L197.686 137.899C197.686 137.899 195.888 135.745 194.416 132.294C192.552 127.915 192.009 123.509 192.813 119.17C193.975 112.825 197.883 107.807 203.013 105.816C202.438 105.67 201.834 105.511 201.188 105.341C200.823 105.246 200.473 105.165 200.122 105.069C198.603 105.962 197.205 107.134 195.974 108.527C193.586 111.255 191.956 114.744 191.235 118.627L191.237 118.643Z" fill="black"/>
<path d="M198.714 119.845C196.647 131.069 203.686 139.578 203.986 139.929L205.132 138.58C204.864 138.257 198.449 130.529 200.334 120.333C201.487 114.071 205.385 109.088 210.537 107.044C209.603 106.802 208.669 106.559 207.665 106.31C203.13 108.987 199.802 113.888 198.712 119.829L198.714 119.845Z" fill="black"/>
<path d="M255.35 144.255C252.92 144.607 250.522 144.486 248.191 143.886C246.648 143.49 243.773 142.752 241.428 140.431C239.814 138.841 238.79 136.664 238.441 134.137C238.114 131.759 238.459 129.249 239.408 127.054C241.429 122.361 246.16 119.133 250.91 119.181C253.53 119.204 255.867 120.07 257.634 121.671C258.256 122.234 261.366 125.297 260.724 129.841C260.689 130.064 259.896 135.315 255.143 136.99C252.621 137.874 248.877 137.663 246.6 135.115C245.976 134.419 244.05 131.954 245.104 129.208C246.052 126.778 248.916 125.343 251.937 125.809C252.49 125.896 252.866 126.394 252.777 126.942C252.687 127.491 252.184 127.865 251.632 127.777C249.579 127.472 247.567 128.383 246.98 129.923C246.303 131.661 247.794 133.453 248.097 133.794C249.768 135.66 252.572 135.79 254.466 135.114C258.079 133.838 258.716 129.613 258.726 129.561C259.248 125.939 256.587 123.413 256.277 123.139C254.878 121.87 253.007 121.187 250.876 121.161C246.92 121.114 242.96 123.846 241.257 127.823C239.578 131.731 240.243 136.437 242.842 139.005C244.811 140.945 247.337 141.601 248.702 141.938C250.892 142.491 253.169 142.597 255.441 142.201C255.441 142.201 255.441 142.201 255.458 142.198C256.003 142.12 256.495 142.483 256.59 143.022C256.668 143.563 256.305 144.084 255.759 144.163C255.61 144.184 255.478 144.203 255.329 144.225L255.35 144.255Z" fill="black"/>
<path d="M257.422 83.401L197.42 72.3239C196.892 72.1869 196.334 72.0868 195.749 72.0237C194.435 71.8525 193.01 71.8452 191.487 72.0986C185.958 73.0304 182.784 76.759 181.766 78.0399C179.386 81.0458 178.065 84.8019 177.779 88.5724C177.595 90.9318 177.812 93.3647 178.738 95.5469C180.386 99.4319 184.244 102.192 188.483 103.122C188.779 103.178 189.059 103.236 189.355 103.292C189.388 103.287 189.424 103.298 189.459 103.31C209.792 107.069 230.108 110.831 250.44 114.59C252.768 104.199 255.097 93.8081 257.427 83.4332L257.422 83.401Z" fill="#28CEE8"/>
<g style="mix-blend-mode:multiply" opacity="0.6">
<path d="M257.422 83.401L197.42 72.3239C196.892 72.1869 196.334 72.0868 195.749 72.0237C194.435 71.8525 193.01 71.8452 191.487 72.0986C185.958 73.0304 182.784 76.759 181.766 78.0399C179.386 81.0458 178.065 84.8019 177.779 88.5724C177.595 90.9318 177.812 93.3647 178.738 95.5469C180.386 99.4319 184.244 102.192 188.483 103.122C188.779 103.178 189.059 103.236 189.355 103.292C189.388 103.287 189.424 103.298 189.459 103.31C209.792 107.069 230.108 110.831 250.44 114.59C252.768 104.199 255.097 93.8081 257.427 83.4332L257.422 83.401Z" fill="#96CEED"/>
</g>
<path d="M202.192 88.5372C204.737 81.1703 210.459 77.2372 214.111 75.4106L210.783 74.7918C210.348 75.0683 209.883 75.3657 209.422 75.6952C204.912 78.8616 201.775 82.9627 200.078 87.8739C198.407 92.732 198.354 97.7503 199.951 102.809C200.24 103.753 200.586 104.623 200.921 105.412C201.81 105.579 202.716 105.744 203.605 105.911C201.844 102.42 199.637 95.9546 202.192 88.5372V88.5372Z" fill="black"/>
<path d="M204.905 73.8809L197.255 72.5047C193.895 72.1634 187.477 73.2764 184.053 75.6577C180.628 78.0388 176.595 84.1883 177.7 92.122C178.708 98.7833 184.582 102.287 185.494 102.768" stroke="black" stroke-width="1.65043" stroke-linecap="round"/>
<path d="M209.775 91.1353C212.834 82.2813 220.479 78.3983 223.606 77.1571L219.964 76.485C219.052 76.9784 218.052 77.5667 217.021 78.291C212.511 81.4574 209.374 85.5585 207.677 90.4697C206.007 95.3278 205.953 100.346 207.55 105.405C207.684 105.862 207.849 106.298 207.993 106.704C208.846 106.86 209.718 107.029 210.572 107.185C208.99 103.521 207.518 97.6882 209.775 91.1353V91.1353Z" fill="black"/>
<g style="mix-blend-mode:multiply" opacity="0.2">
<path d="M250.969 112.148C240.055 110.196 231.124 108.713 224.875 107.712C213.763 105.92 206.302 104.864 195.071 102.596C189.41 101.444 184.783 100.406 181.728 99.6816C183.583 101.368 185.961 102.568 188.464 103.109C188.76 103.165 189.04 103.223 189.336 103.279C189.37 103.274 189.405 103.285 189.441 103.296C209.773 107.056 230.089 110.817 250.422 114.577C250.595 113.78 250.784 112.98 250.955 112.167L250.969 112.148Z" fill="#96CEED"/>
</g>
<path d="M264.814 86.6679C260.041 82.2825 253.505 83.0479 252.589 83.1641C246.549 83.9564 243.059 87.9607 242.017 89.1958C240.832 90.6159 238.154 94.2563 238.074 99.4427C238.018 103.393 239.496 106.219 239.821 106.829C240.216 107.56 243.452 113.285 250.438 114.574C258.278 116.018 264.039 110.601 265.369 109.012C265.861 108.431 266.799 107.293 266.672 105.833C266.571 104.665 265.821 103.821 265.445 103.448C265.976 102.78 270.031 97.5272 268.145 91.6398C267.281 88.9556 265.554 87.3328 264.83 86.6655L264.814 86.6679Z" fill="#28CEE8"/>
<g style="mix-blend-mode:multiply" opacity="0.6">
<path d="M266.616 105.562C266.458 104.583 265.862 103.864 265.488 103.507C265.2 103.861 264.877 104.204 264.534 104.532C263.983 105.056 258.99 109.688 252.584 108.661C251.472 108.477 249.388 108.138 247.595 106.525C244.843 104.032 244.017 99.6169 245.649 96.013C247.393 92.1299 251.992 89.575 256.119 90.2096C258.305 90.5503 261.776 92.0357 262.378 94.7906C262.779 96.6218 261.776 98.2455 261.447 98.7859C260.761 99.9038 259.377 101.353 256.672 101.991C255.573 102.248 253.522 102.726 252.318 101.668C251.386 100.85 251.42 99.5639 251.417 99.5478C251.464 98.2269 252.508 97.0079 254.049 96.522C254.649 96.3365 254.966 95.7156 254.78 95.1347C254.595 94.5538 253.957 94.2517 253.357 94.4372C250.926 95.2162 249.237 97.2514 249.172 99.4951C249.171 99.7252 249.137 101.833 250.805 103.283C252.885 105.118 255.788 104.435 257.181 104.102C260.657 103.287 262.465 101.366 263.37 99.8875C264.549 97.959 264.957 96.0928 264.583 94.3236C263.809 90.7392 259.847 88.5529 256.502 88.0514C251.317 87.2577 245.773 90.3109 243.593 95.1607C242.631 97.3041 242.345 99.7769 242.787 102.128C243.231 104.495 244.388 106.627 246.065 108.142C248.349 110.21 250.952 110.622 252.204 110.835C253.645 111.07 255.087 111.075 256.549 110.863C258.309 110.608 260.073 110.025 261.809 109.133C264.16 107.921 265.701 106.499 266.117 106.094C266.279 105.923 266.459 105.765 266.621 105.594L266.616 105.562Z" fill="#23ADD1"/>
</g>
<path d="M227.707 77.835L254.569 82.6145C258.406 83.2973 266.536 86.083 268.355 91.7635C269.871 96.4972 267.26 101.416 266.098 101.997" stroke="black" stroke-width="1.65043" stroke-linecap="round"/>
<path d="M155 160.5H146.5M276.5 235H193" stroke="black" stroke-width="2" stroke-linecap="round"/>
<path d="M248.5 39.5V82" stroke="black" stroke-width="2" stroke-linecap="round"/>
<path d="M172.5 162L160.5 252" stroke="black" stroke-width="1.6" stroke-linecap="round"/>
</svg>
