<svg width="56" height="56" viewBox="0 0 56 56" fill="none" xmlns="http://www.w3.org/2000/svg">
<path d="M50.1925 12.1993C50.1925 12.1993 50.1859 12.1993 50.1837 12.2015C49.7977 11.8732 49.2632 11.7312 48.733 11.8665L44.35 13C43.8221 13.1375 43.4229 13.5213 43.2432 13.9959C42.7596 14.1312 42.4691 14.6325 42.5955 15.1205C42.7219 15.6107 43.2188 15.9057 43.7068 15.7904C44.0949 16.1187 44.6295 16.2628 45.1574 16.1253L49.5404 14.9919C50.0705 14.8543 50.4676 14.4706 50.6473 13.9959C50.6495 13.9959 50.6539 13.9959 50.6561 13.9959C51.153 13.8673 51.4502 13.3616 51.3216 12.8647C51.1929 12.3678 50.685 12.0706 50.1903 12.1993H50.1925Z" fill="#F9DA58"/>
<path d="M50.1925 12.1993C50.1925 12.1993 50.1859 12.1993 50.1837 12.2015C49.7977 11.8732 49.2632 11.7312 48.733 11.8665L44.35 13C43.8221 13.1375 43.4229 13.5213 43.2432 13.9959C42.7596 14.1312 42.4691 14.6325 42.5955 15.1205C42.7219 15.6107 43.2188 15.9057 43.7068 15.7904C44.0949 16.1187 44.6295 16.2628 45.1574 16.1253L49.5404 14.9919C50.0417 14.8632 50.421 14.5105 50.614 14.0713L50.5497 12.1749C50.4321 12.1593 50.3123 12.1638 50.1903 12.1948L50.1925 12.1993Z" fill="#EEBE50"/>
<path d="M44.832 24.1992C42.8801 24.1992 42.8801 16.0144 44.832 16.0144H10.2183C10.2183 16.0144 7.30151 17.6869 7.30151 20.1068C7.30151 22.5268 10.1584 24.1992 10.1584 24.1992H44.832Z" fill="#FFF9F0"/>
<path d="M42.9268 17.6292H9.46875C9.4266 17.6292 9.39111 17.5937 9.39111 17.5516C9.39111 17.5094 9.4266 17.4739 9.46875 17.4739H42.929C42.9712 17.4739 43.0066 17.5094 43.0066 17.5516C43.0066 17.5937 42.9712 17.6292 42.929 17.6292H42.9268Z" fill="white"/>
<path d="M42.5142 19.335H9.46875C9.4266 19.335 9.39111 19.2995 9.39111 19.2573C9.39111 19.2152 9.4266 19.1797 9.46875 19.1797H42.5142C42.5564 19.1797 42.5919 19.2152 42.5919 19.2573C42.5919 19.2995 42.5564 19.335 42.5142 19.335Z" fill="white"/>
<path d="M42.5142 21.0385H9.46875C9.4266 21.0385 9.39111 21.003 9.39111 20.9609C9.39111 20.9187 9.4266 20.8832 9.46875 20.8832H42.5142C42.5564 20.8832 42.5919 20.9187 42.5919 20.9609C42.5919 21.003 42.5564 21.0385 42.5142 21.0385Z" fill="white"/>
<path d="M42.9268 22.7442H9.46875C9.4266 22.7442 9.39111 22.7087 9.39111 22.6666C9.39111 22.6244 9.4266 22.5889 9.46875 22.5889H42.929C42.9712 22.5889 43.0066 22.6244 43.0066 22.6666C43.0066 22.7087 42.9712 22.7442 42.929 22.7442H42.9268Z" fill="white"/>
<g style="mix-blend-mode:multiply">
<path d="M44.832 16.0167H10.2183C10.2183 16.0167 7.30151 17.6892 7.30151 20.1091L44.832 16.0167Z" fill="#FFEFDC"/>
</g>
<path d="M44.5923 24.6784H11.0544C8.53467 24.6784 6.48291 22.6289 6.48291 20.1069C6.48291 17.5849 8.53245 15.5353 11.0544 15.5353H44.5923C44.9184 15.5353 45.1824 15.7993 45.1824 16.1254C45.1824 16.4514 44.9184 16.7154 44.5923 16.7154H11.0544C9.18679 16.7154 7.66517 18.2348 7.66517 20.1047C7.66517 21.9745 9.18457 23.4939 11.0544 23.4939H44.5923C44.9184 23.4939 45.1824 23.7579 45.1824 24.084C45.1824 24.41 44.9184 24.674 44.5923 24.674V24.6784Z" fill="#F7CF3C"/>
<path d="M2.91162 32.3153C4.77484 32.3153 4.77484 40.1231 2.91162 40.1231H46.1382C44.275 40.1231 44.275 32.3153 46.1382 32.3153H2.91162Z" fill="#FFF9F0"/>
<path d="M43.9842 34.305H4.4929C4.45075 34.305 4.41748 34.2717 4.41748 34.2318C4.41748 34.1919 4.45075 34.1564 4.4929 34.1564H43.9842C44.0264 34.1564 44.0596 34.1896 44.0596 34.2318C44.0596 34.2739 44.0264 34.305 43.9842 34.305Z" fill="white"/>
<path d="M43.4786 35.7246H4.99876C4.95661 35.7246 4.92334 35.6913 4.92334 35.6514C4.92334 35.6115 4.95661 35.576 4.99876 35.576H43.4764C43.5185 35.576 43.5518 35.6093 43.5518 35.6514C43.5518 35.6935 43.5185 35.7246 43.4764 35.7246H43.4786Z" fill="white"/>
<path d="M43.4786 37.142H4.99876C4.95661 37.142 4.92334 37.1087 4.92334 37.0666C4.92334 37.0244 4.95661 36.9911 4.99876 36.9911H43.4764C43.5185 36.9911 43.5518 37.0244 43.5518 37.0666C43.5518 37.1087 43.5185 37.142 43.4764 37.142H43.4786Z" fill="white"/>
<path d="M43.9842 38.5616H4.4929C4.45075 38.5616 4.41748 38.5283 4.41748 38.4862C4.41748 38.444 4.45075 38.4108 4.4929 38.4108H43.9842C44.0264 38.4108 44.0596 38.444 44.0596 38.4862C44.0596 38.5283 44.0264 38.5616 43.9842 38.5616Z" fill="white"/>
<g style="mix-blend-mode:multiply">
<path d="M46.1382 40.1254C44.275 40.1254 44.275 32.3176 46.1382 32.3176H2.91162L46.1382 40.1254Z" fill="#FFEFDC"/>
</g>
<path d="M45.8011 33.2248H2.67431C2.30166 33.2248 2 32.9231 2 32.5505C2 32.1778 2.30166 31.8762 2.67431 31.8762H45.8011C46.1738 31.8762 46.4754 32.1778 46.4754 32.5505C46.4754 32.9231 46.1738 33.2248 45.8011 33.2248Z" fill="#3C5D6E"/>
<path d="M45.8011 40.5002H2.67431C2.30166 40.5002 2 40.1985 2 39.8259C2 39.4532 2.30166 39.1516 2.67431 39.1516H45.8011C46.1738 39.1516 46.4754 39.4532 46.4754 39.8259C46.4754 40.1985 46.1738 40.5002 45.8011 40.5002Z" fill="#3C5D6E"/>
<path d="M15.3975 8.43738C17.0012 8.43738 17.0012 15.1605 15.3975 15.1605H53.4537C51.85 15.1605 51.85 8.43738 53.4537 8.43738H15.3975Z" fill="#FFF9F0"/>
<path d="M51.5993 10.1497H16.7594C16.7239 10.1497 16.6951 10.1209 16.6951 10.0854C16.6951 10.0499 16.7239 10.0211 16.7594 10.0211H51.5993C51.6348 10.0211 51.6636 10.0499 51.6636 10.0854C51.6636 10.1209 51.6348 10.1497 51.5993 10.1497Z" fill="white"/>
<path d="M51.1644 11.3697H17.1962C17.1607 11.3697 17.1318 11.3408 17.1318 11.3054C17.1318 11.2699 17.1607 11.241 17.1962 11.241H51.1644C51.1999 11.241 51.2287 11.2699 51.2287 11.3054C51.2287 11.3408 51.1999 11.3697 51.1644 11.3697Z" fill="white"/>
<path d="M51.1644 12.5918H17.1962C17.1607 12.5918 17.1318 12.563 17.1318 12.5275C17.1318 12.492 17.1607 12.4632 17.1962 12.4632H51.1644C51.1999 12.4632 51.2287 12.492 51.2287 12.5275C51.2287 12.563 51.1999 12.5918 51.1644 12.5918Z" fill="white"/>
<path d="M51.5993 13.8119H16.7594C16.7239 13.8119 16.6951 13.783 16.6951 13.7476C16.6951 13.7121 16.7239 13.6832 16.7594 13.6832H51.5993C51.6348 13.6832 51.6636 13.7121 51.6636 13.7476C51.6636 13.783 51.6348 13.8119 51.5993 13.8119Z" fill="white"/>
<g style="mix-blend-mode:multiply">
<path d="M53.4537 15.1582C51.85 15.1582 51.85 8.43512 53.4537 8.43512H15.3975L53.4537 15.1582Z" fill="#FFEFDC"/>
</g>
<path d="M53.2718 9.13384H15.3841C15.1047 9.13384 14.8784 8.90759 14.8784 8.62811C14.8784 8.34862 15.1047 8.12238 15.3841 8.12238H53.2718C53.5512 8.12238 53.7775 8.34862 53.7775 8.62811C53.7775 8.90759 53.5512 9.13384 53.2718 9.13384Z" fill="#FCA383"/>
<path d="M53.2718 15.5375H15.3841C15.1047 15.5375 14.8784 15.3113 14.8784 15.0318C14.8784 14.7523 15.1047 14.5261 15.3841 14.5261H53.2718C53.5512 14.5261 53.7775 14.7523 53.7775 15.0318C53.7775 15.3113 53.5512 15.5375 53.2718 15.5375Z" fill="#FCA383"/>
<path d="M52.5708 8.12237H9.19557C7.2281 8.12237 7.2281 1 9.19557 1H52.5708C54.5383 1 54.5383 8.12237 52.5708 8.12237Z" fill="#3C5D6E"/>
<path d="M52.5708 8.12237H9.19557C7.2281 8.12237 7.2281 1 9.19557 1L52.5708 8.12237Z" fill="#5996B5"/>
<path d="M37.2349 4.97267C37.2349 6.10391 34.3912 7.01999 30.8844 7.01999C27.3776 7.01999 24.5339 6.10391 24.5339 4.97267C24.5339 3.84144 27.3776 2.92535 30.8844 2.92535C34.3912 2.92535 37.2349 3.84144 37.2349 4.97267Z" fill="#F9DA58"/>
<path d="M14.3526 1H12.842V8.12237H14.3526V1Z" fill="#F9DA58"/>
<path d="M16.4201 1H15.5483V8.12237H16.4201V1Z" fill="#F9DA58"/>
<path d="M48.9219 1H47.4114V8.12237H48.9219V1Z" fill="#F9DA58"/>
<path d="M46.2179 1H45.3462V8.12237H46.2179V1Z" fill="#F9DA58"/>
<path d="M30.8819 2.92531C28.8235 2.92531 26.9936 3.24029 25.8335 3.73049L36.9684 5.55822C37.1414 5.37189 37.2346 5.17448 37.2346 4.97042C37.2346 3.83918 34.391 2.9231 30.8841 2.9231L30.8819 2.92531Z" fill="#EEBE50"/>
<path d="M12.842 1.59889L14.3526 1.84732V1H12.842V1.59889Z" fill="#EEBE50"/>
<path d="M15.5483 2.04251L16.4201 2.18669V1H15.5483V2.04251Z" fill="#EEBE50"/>
<path d="M47.4114 1V7.27505L48.9241 7.52347V1H47.4114Z" fill="#EEBE50"/>
<path d="M45.3462 6.93567L46.2179 7.07763V1H45.3462V6.93567Z" fill="#EEBE50"/>
<path d="M51.0247 54.9978H4.72376C1.92672 54.9978 1.92672 40.5002 4.72376 40.5002H51.0247C53.8217 40.5002 53.8217 54.9978 51.0247 54.9978Z" fill="#C84A34"/>
<path d="M51.0247 54.9978H4.72376C1.92672 54.9978 1.92672 40.5002 4.72376 40.5002L51.0247 54.9978Z" fill="#F47D5D"/>
<path d="M22.7196 51.2403C22.7196 53.0725 16.083 53.0725 16.083 51.2403V44.2577C16.083 42.4255 22.7196 42.4255 22.7196 44.2577V51.2403Z" fill="#F9DA58"/>
<path d="M6.93738 40.5002H5.41797V55H6.93738V40.5002Z" fill="#F9DA58"/>
<path d="M8.78057 40.5002H8.02197V55H8.78057V40.5002Z" fill="#F9DA58"/>
<path d="M48.2677 40.5002H46.7483V55H48.2677V40.5002Z" fill="#F9DA58"/>
<path d="M50.1109 40.5002H49.3523V55H50.1109V40.5002Z" fill="#F9DA58"/>
<path d="M16.1096 44.0669L22.7196 46.1364V44.2599C22.7196 42.4943 16.5577 42.43 16.1096 44.0669Z" fill="#EEBE50"/>
<path d="M5.41797 40.7176L6.93738 41.1945V40.5002H5.41797V40.7176Z" fill="#EEBE50"/>
<path d="M8.02197 41.5338L8.78279 41.7712V40.5002H8.02197V41.5338Z" fill="#EEBE50"/>
<path d="M46.7483 53.6603L48.2677 54.1349V40.5002H46.7483V53.6603Z" fill="#EEBE50"/>
<path d="M49.3523 40.5002V54.4743L50.1131 54.7139V40.5002H49.3523Z" fill="#EEBE50"/>
<path d="M49.7092 31.874H4.9122C2.92477 31.874 2.92477 24.6784 4.9122 24.6784H49.7115C51.6989 24.6784 51.6989 31.874 49.7115 31.874H49.7092Z" fill="#58BB8C"/>
<path d="M49.7092 31.874H4.9122C2.92477 31.874 2.92477 24.6784 4.9122 24.6784L49.7115 31.874H49.7092Z" fill="#6DCEA1"/>
<path d="M32.9004 27.2692C32.9004 27.2692 32.8937 27.2692 32.8915 27.2692C32.5743 26.8189 32.0508 26.5239 31.4586 26.5239H23.1673C22.575 26.5239 22.0516 26.8189 21.7344 27.2714C21.1887 27.2825 20.7473 27.7283 20.7473 28.2784C20.7473 28.8285 21.1865 29.2743 21.7344 29.2854C22.0516 29.7357 22.575 30.0329 23.1673 30.0329H31.4586C32.0508 30.0329 32.5743 29.7379 32.8915 29.2876C32.8937 29.2876 32.8981 29.2876 32.9004 29.2876C33.4571 29.2876 33.9074 28.8374 33.9074 28.2806C33.9074 27.7239 33.4571 27.2736 32.9004 27.2736V27.2692Z" fill="#F9DA58"/>
<path d="M8.56774 24.6784H8.16626V31.874H8.56774V24.6784Z" fill="#F9DA58"/>
<path d="M9.47912 24.6784H9.07764V31.874H9.47912V24.6784Z" fill="#F9DA58"/>
<path d="M10.391 24.6784H9.9895V31.874H10.391V24.6784Z" fill="#F9DA58"/>
<path d="M46.2157 24.6784H45.8142V31.874H46.2157V24.6784Z" fill="#F9DA58"/>
<path d="M47.1273 24.6784H46.7258V31.874H47.1273V24.6784Z" fill="#F9DA58"/>
<path d="M48.0389 24.6784H47.6375V31.874H48.0389V24.6784Z" fill="#F9DA58"/>
<path d="M32.9002 27.2692C32.9002 27.2692 32.8935 27.2692 32.8913 27.2692C32.5741 26.8189 32.0506 26.5239 31.4584 26.5239H23.1671C22.5748 26.5239 22.0514 26.8189 21.7342 27.2714C21.6233 27.2714 21.5168 27.2958 21.417 27.3313L33.2351 29.23C33.6299 29.0924 33.9116 28.7198 33.9116 28.2784C33.9116 27.7216 33.4614 27.2714 32.9046 27.2714L32.9002 27.2692Z" fill="#EEBE50"/>
<path d="M8.16626 25.2019L8.56774 25.2662V24.6784H8.16626V25.2019Z" fill="#EEBE50"/>
<path d="M9.07764 25.3483L9.47912 25.4126V24.6784H9.07764V25.3483Z" fill="#EEBE50"/>
<path d="M9.9895 25.4947L10.3888 25.559V24.6784H9.9895V25.4947Z" fill="#EEBE50"/>
<path d="M45.8142 31.2485L46.2157 31.3128V24.6784H45.8142V31.2485Z" fill="#EEBE50"/>
<path d="M46.7258 31.3949L47.1251 31.4592V24.6784H46.7258V31.3949Z" fill="#EEBE50"/>
<path d="M47.6375 24.6784V31.5413L48.0367 31.6056V24.6784H47.6375Z" fill="#EEBE50"/>
<path d="M9.19546 1C9.19546 1 7.74038 0.993346 7.72041 4.56007C7.70045 8.1268 9.19546 8.12015 9.19546 8.12015H52.5707" stroke="black" stroke-width="0.5" stroke-miterlimit="10"/>
<path d="M52.7129 15.5375H15.3843" stroke="black" stroke-width="0.5" stroke-miterlimit="10"/>
<path d="M44.5922 16.7198H11.9127C11.9127 16.7198 9.33746 16.2052 7.97554 18.6961C7.40105 20.881 7.79587 21.0384 7.79587 21.0384C7.79587 21.0384 8.18404 23.4961 11.651 23.4961H44.5944" stroke="black" stroke-width="0.5" stroke-miterlimit="10" stroke-linecap="round"/>
<path d="M52.5707 9.13379C52.5707 9.13379 51.6391 12.4011 52.7148 14.5238H16.1381C16.8967 12.6717 16.0916 9.13379 16.0916 9.13379H52.5707Z" stroke="black" stroke-width="0.5" stroke-linecap="round" stroke-linejoin="round"/>
<path d="M43.6384 17.6292C43.6384 17.6292 43.004 20.0425 43.6384 22.1564" stroke="black" stroke-width="0.5" stroke-miterlimit="10" stroke-linecap="round"/>
<path d="M45.8143 24.6784H4.91231C4.91231 24.6784 4.13375 24.7228 3.8587 25.6388C3.58366 26.5549 3.25537 27.6041 3.5038 29.525C3.75223 31.4459 4.52192 31.7475 4.52192 31.7475" stroke="black" stroke-width="0.5" stroke-linecap="round" stroke-linejoin="round"/>
<path d="M45.0115 33.8082C45.0115 33.8082 44.5879 36.3213 44.9583 38.4108" stroke="black" stroke-width="0.5" stroke-linecap="round" stroke-linejoin="round"/>
<path d="M4.03857 33.8082C4.03857 33.8082 4.55318 37.2928 4.03857 38.4862" stroke="black" stroke-width="0.5" stroke-linecap="round" stroke-linejoin="round"/>
<path d="M45.8011 40.5002H2.67432" stroke="black" stroke-width="0.5" stroke-linecap="round" stroke-linejoin="round"/>
<path d="M11.3628 1H51.6637" stroke="black" stroke-width="0.5" stroke-linecap="round" stroke-linejoin="round"/>
<path d="M53.2651 1.36377C53.2651 1.36377 54.0637 2.36858 54.0437 4.76414C54.0237 7.1597 53.294 7.7231 53.294 7.7231" stroke="black" stroke-width="0.5" stroke-linecap="round" stroke-linejoin="round"/>
<path d="M3.62357 41.4384C3.62357 41.4384 1.48309 46.4913 3.5171 53.8332" stroke="black" stroke-width="0.5" stroke-linecap="round" stroke-linejoin="round"/>
<path d="M5.41797 55L51.0246 54.9977" stroke="black" stroke-width="0.5" stroke-linecap="round" stroke-linejoin="round"/>
</svg>
