<svg xmlns="http://www.w3.org/2000/svg" width="52" height="52" viewBox="0 0 52 52">
    <g fill="none" fill-rule="evenodd">
        <ellipse cx="26" cy="50.132" fill="#DCE0E9" fill-rule="nonzero" rx="26" ry="1.868"/>
        <path fill="#F7F2EF" fill-rule="nonzero" d="M46.82 47.903c.11.445-.021.915-.346 1.24-.324.324-.794.455-1.24.346-12.62-3.11-25.806-3.11-38.426 0-.446.109-.916-.022-1.241-.346-.325-.324-.457-.794-.35-1.24.336-1.38.635-2.758.896-4.137 2.183-11.36 1.878-23.06-.895-34.29-.108-.446.024-.916.35-1.24.324-.324.794-.455 1.24-.346 12.62 3.11 25.806 3.11 38.426 0 .446-.11.916.022 1.24.346.325.325.456.795.347 1.24-.264 1.083-.504 2.166-.721 3.251-2.368 11.634-2.122 23.649.72 35.176z"/>
        <path fill="#F7F2EF" fill-rule="nonzero" d="M46.82 47.903c.11.445-.021.915-.346 1.24-.324.324-.794.455-1.24.346-12.62-3.11-25.806-3.11-38.426 0-.446.109-.916-.022-1.241-.346-.325-.324-.457-.794-.35-1.24.336-1.38.635-2.758.896-4.137 2.183-11.36 1.878-23.06-.895-34.29-.108-.446.024-.916.35-1.24.324-.324.794-.455 1.24-.346 12.62 3.11 25.806 3.11 38.426 0 .446-.11.916.022 1.24.346.325.325.456.795.347 1.24-.264 1.083-.504 2.166-.721 3.251-2.368 11.634-2.122 23.649.72 35.176z"/>
        <path fill="#333" fill-rule="nonzero" d="M6.114 44.016c-.016 0-.032-.002-.048-.005-.135-.026-.224-.157-.198-.292 2.164-11.326 1.86-22.986-.893-34.184-.129-.53.029-1.09.415-1.475.387-.386.946-.543 1.477-.413 12.583 3.086 25.725 3.086 38.308 0 .53-.13 1.09.026 1.476.412.386.386.542.946.412 1.476-.262 1.078-.503 2.169-.718 3.241-.014.09-.077.166-.163.197-.087.03-.183.01-.25-.05-.069-.062-.098-.155-.077-.244.216-1.08.46-2.178.723-3.262.089-.36-.017-.742-.28-1.004-.263-.263-.644-.37-1.004-.28-12.661 3.104-25.885 3.104-38.545 0-.361-.09-.743.017-1.006.28-.263.262-.37.643-.282 1.005 2.77 11.266 3.076 22.998.898 34.394-.023.118-.125.204-.245.204z"/>
        <path fill="#26A2DE" fill-rule="nonzero" d="M45.234 49.489c-12.62-3.11-25.806-3.11-38.426 0-.446.109-.916-.022-1.241-.346-.325-.324-.457-.794-.35-1.24.336-1.38.635-2.758.896-4.137 2.814.371 5.675-.036 8.274-1.178 1.645-.723 3.374-1.236 5.147-1.528 3.015-.498 6.103-.314 9.038.54 2.82.79 8.486.523 10.966-3.897 7.427-13.24.003-21.48-2.656-23.906-.214-.2-.292-.506-.2-.784.093-.277.34-.475.63-.506 3.026-.382 6.09-.346 9.105.108-2.474 11.648-2.336 23.7.404 35.288.109.445-.022.915-.347 1.24-.324.324-.794.455-1.24.346z"/>
        <path fill="#FFF" fill-rule="nonzero" d="M32.684 37.622L32.685 37.622 32.685 37.622 32.686 37.622 32.679 37.632 32.686 37.622 32.689 37.618 32.689 37.618 32.691 37.616 32.687 37.62z"/>
        <rect width="32.487" height="20.149" x="5.18" y="29.422" fill="#FFB600" fill-rule="nonzero" rx="1.07"/>
        <path fill="#FFF083" fill-rule="nonzero" d="M33.57 32.215H9.278c-.74 0-1.34.6-1.34 1.34v11.884c0 .355.142.696.393.947.251.25.592.392.947.392H33.57c.739 0 1.338-.6 1.338-1.339V33.554c0-.739-.6-1.339-1.338-1.339z"/>
        <path fill="#C2F083" fill-rule="nonzero" d="M7.938 41.845h26.971v3.594c0 .355-.14.696-.392.947-.251.251-.592.392-.947.392H9.277c-.74 0-1.34-.6-1.34-1.339v-3.594z"/>
        <path fill="#FFF" fill-rule="nonzero" d="M18.285 46.737v.047c-.38-.014-.769-.001-1.151-.001h-6.776c.007-.036.019-.07.034-.102.275-.797.592-1.578.947-2.342.202-.545.52-1.04.932-1.45.306-.212.676-.312 1.047-.283.805-.034 1.61-.043 2.416-.043.045-.001.091.002.136.012.258.064.547.437.72.626.218.242.417.502.593.776.346.557.63 1.15.847 1.768.14.314.226.65.255.992z"/>
        <circle cx="14.152" cy="39.823" r="3.349" fill="#1B4E85" fill-rule="nonzero"/>
        <path fill="#FFDA88" fill-rule="nonzero" d="M14.19 43.169s-1.553-.084-1.917-.854c-.348-.72-.54-1.504-.563-2.303 1.168-.506 2.437-.734 3.708-.666l.594 2.25c.1.306.047.642-.14.904-.456.429-1.057.668-1.683.669z"/>
        <path fill="#1B4E85" fill-rule="nonzero" d="M17.215 34.413c-.26-.416-.728-.657-1.218-.627-.199-.008-.398.004-.594.037-.939.093-1.65.889-1.639 1.832-.002.06-.01.12-.025.178l-.199-.24c-.212-.282-.574-.409-.916-.321-.263.113-.456.347-.517.627-.062.28.014.573.205.787.069.07.122.153.156.245.048.027.099.05.151.068.28.053.566.07.85.051.56.105 1.134.082 1.683-.068.126-.07.259-.13.396-.176l.041-.009c.097-.116.178-.204.246-.301.136-.193.17-.44.089-.661-.08-.222-.265-.39-.493-.45-.222-.037-.449.025-.621.17-.117.075-.228.16-.341.242.032-.23.154-.436.34-.575.135-.133.319-.206.509-.202.19.003.37.083.501.22.186.238.354.49.502.752.174-.12.38-.203.558-.316.178-.113.546-.303.714-.422-.125-.28-.25-.561-.378-.84zm-3.328 2.35c-.335.048-.673.07-1.011.07-.337-.061-.586-.35-.596-.692-.019-.315.171-.605.468-.714.22-.07.459.022.576.22.219.327.412.67.615 1.006l-.052.11zm.706-.708l.18-.18.173-.178.002-.003.002-.002.026-.02.028-.021c.042-.032.088-.059.135-.082l.046-.02c.148-.074.327-.039.436.085l-.006.006c.023.012.04.031.05.055.08.057.126.149.126.246.085.216-.004.462-.207.574-.171.095-.355.163-.547.202-.188.033-.379.048-.57.044-.291.006-.37-.1-.202-.329.062-.083.129-.164.2-.24.042-.047.085-.092.128-.137z"/>
        <path fill="#FFF" fill-rule="nonzero" d="M15.515 35.55c-.105-.047-.224-.047-.33 0-.015.005-.03.012-.046.02-.047.022-.092.05-.135.081l-.027.021-.027.02.002-.002-.008.007h.002l-.008.011.007-.011c-.056.06-.115.119-.173.178l-.18.18c-.043.045-.086.09-.127.136-.071.077-.138.158-.2.241-.168.228-.089.335.202.33.191.003.382-.012.57-.045.192-.039.376-.107.547-.202.19-.123.279-.357.216-.576-.033-.165-.137-.307-.285-.389zM13.324 35.648c-.117-.2-.356-.29-.576-.22-.297.108-.487.398-.468.713.01.343.259.63.596.692.338 0 .676-.023 1.011-.07.092-.002.09-.058.052-.11-.204-.336-.396-.679-.615-1.005z"/>
        <circle cx="12.6" cy="43.172" r="1" fill="#ED2F46" fill-rule="nonzero"/>
        <circle cx="11.193" cy="46.327" r="1" fill="#ED2F46" fill-rule="nonzero"/>
        <circle cx="12.082" cy="45.705" r="1" fill="#ED2F46" fill-rule="nonzero"/>
        <circle cx="13.099" cy="45.392" r="1" fill="#ED2F46" fill-rule="nonzero"/>
        <circle cx="12.762" cy="46.438" r="1" fill="#ED2F46" fill-rule="nonzero"/>
        <circle cx="13.608" cy="43.458" r="1" fill="#ED2F46" fill-rule="nonzero"/>
        <circle cx="13.801" cy="44.426" r="1" fill="#ED2F46" fill-rule="nonzero"/>
        <circle cx="14.911" cy="43.44" r="1" fill="#ED2F46" fill-rule="nonzero"/>
        <circle cx="16.19" cy="43.277" r="1" fill="#ED2F46" fill-rule="nonzero"/>
        <circle cx="15.211" cy="44.458" r="1" fill="#ED2F46" fill-rule="nonzero"/>
        <circle cx="14.34" cy="45.441" r="1" fill="#ED2F46" fill-rule="nonzero"/>
        <circle cx="13.86" cy="46.296" r="1" fill="#ED2F46" fill-rule="nonzero"/>
        <circle cx="14.785" cy="46.438" r="1" fill="#ED2F46" fill-rule="nonzero"/>
        <circle cx="15.402" cy="45.783" r="1" fill="#ED2F46" fill-rule="nonzero"/>
        <circle cx="16.243" cy="44.426" r="1" fill="#ED2F46" fill-rule="nonzero"/>
        <circle cx="16.393" cy="45.441" r="1" fill="#ED2F46" fill-rule="nonzero"/>
        <circle cx="17.247" cy="44.919" r="1" fill="#ED2F46" fill-rule="nonzero"/>
        <circle cx="16.112" cy="46.39" r="1" fill="#ED2F46" fill-rule="nonzero"/>
        <circle cx="17.381" cy="46.191" r="1" fill="#ED2F46" fill-rule="nonzero"/>
        <circle cx="12.651" cy="44.214" r="1" fill="#ED2F46" fill-rule="nonzero"/>
        <circle cx="11.629" cy="44.775" r="1" fill="#ED2F46" fill-rule="nonzero"/>
        <circle cx="12.586" cy="36.142" r="1" fill="#ED2F46" fill-rule="nonzero"/>
        <circle cx="13.025" cy="36.571" r="1" fill="#ED2F46" fill-rule="nonzero"/>
        <circle cx="14.765" cy="36.481" r="1" fill="#ED2F46" fill-rule="nonzero"/>
        <circle cx="15.324" cy="35.866" r="1" fill="#ED2F46" fill-rule="nonzero"/>
        <circle cx="15.376" cy="36.376" r="1" fill="#ED2F46" fill-rule="nonzero"/>
        <circle cx="13.233" cy="36.058" r="1" fill="#ED2F46" fill-rule="nonzero"/>
        <circle cx="12.876" cy="35.671" r="1" fill="#ED2F46" fill-rule="nonzero"/>
        <path fill="#333" fill-rule="nonzero" d="M29.001 49.575h-8.608c-.138 0-.25-.112-.25-.25s.112-.25.25-.25h8.608c.138 0 .25.112.25.25s-.112.25-.25.25zM8.948 35.28c-.138 0-.25-.112-.25-.25v-.945c0-.55.446-.996.996-.996h.892c.138 0 .25.112.25.25s-.112.25-.25.25h-.892c-.274 0-.496.222-.496.496v.945c0 .138-.112.25-.25.25zM8.419 48.853h-1.38c-.529 0-.958-.43-.958-.958V44.02c0-.138.112-.25.25-.25s.25.112.25.25v3.875c0 .253.205.458.458.458h1.38c.138 0 .25.112.25.25s-.112.25-.25.25z"/>
        <path fill="#333" fill-rule="nonzero" d="M5.45 35.996c-.137 0-.25-.112-.25-.25v-5.26c.001-.6.489-1.088 1.09-1.088h13.043c.138 0 .25.112.25.25s-.112.25-.25.25H6.29c-.325 0-.588.264-.589.589v5.26c0 .065-.026.13-.073.176-.047.047-.11.073-.177.073z"/>
        <path fill="#E6E6E6" fill-rule="nonzero" d="M26.517 25.808h15.877c.292 0 .57.125.764.342.195.218.287.508.255.798l-2.51 22.35c-.08.702-.674 1.233-1.38 1.233H29.388c-.707 0-1.3-.531-1.38-1.233l-2.51-22.35c-.032-.29.06-.58.255-.798.194-.218.472-.342.764-.342z"/>
        <path fill="#BA7A68" fill-rule="nonzero" d="M42.939 31.167l-2.036 18.13c-.08.703-.673 1.234-1.38 1.234H29.388c-.706 0-1.3-.531-1.38-1.234l-2.036-18.13H42.94z"/>
        <path fill="#333" fill-rule="nonzero" d="M27.036 28.371c-.128 0-.234-.096-.248-.222-.04-.36.074-.721.316-.992.242-.27.588-.425.95-.425h6.402c.138 0 .25.112.25.25s-.112.25-.25.25h-6.401c-.22 0-.431.094-.578.258-.147.165-.217.384-.192.603.007.066-.012.132-.053.184-.042.052-.102.085-.168.093l-.028.001zM37.61 48.797h-.023c-.066-.007-.127-.038-.17-.09-.042-.05-.063-.116-.057-.182l1.383-15.209c.018-.134.136-.232.271-.226.066.006.127.038.17.089.042.05.063.116.057.182L37.859 48.57c-.012.129-.12.227-.249.227zM31.301 48.797c-.129 0-.237-.098-.248-.227L29.67 33.36c-.006-.066.015-.131.057-.182.043-.051.104-.083.17-.09.135-.006.254.092.271.227l1.382 15.209c.006.066-.014.132-.057.183-.042.05-.103.082-.17.088l-.022.001zM34.456 48.797c-.138 0-.25-.112-.25-.25V33.34c0-.138.112-.25.25-.25s.25.112.25.25v15.208c0 .138-.112.25-.25.25zM42.938 31.418H25.973c-.138 0-.25-.112-.25-.25 0-.139.112-.25.25-.25h16.965c.139 0 .25.111.25.25 0 .138-.111.25-.25.25z"/>
        <path d="M0 0H52V52H0z"/>
    </g>
</svg>
