<svg xmlns="http://www.w3.org/2000/svg" width="52" height="52" viewBox="0 0 52 52">
    <g fill="none" fill-rule="evenodd">
        <ellipse cx="26" cy="50.132" fill="#DCE0E9" fill-rule="nonzero" rx="26" ry="1.868"/>
        <path fill="#333" fill-rule="nonzero" d="M40.238 10.236h-5.45l-.09 1.863h4.83c.188 0 .368.075.502.208.133.133.208.314.207.502l-1.299 7.9c0 .189-.075.37-.208.502-.133.134-.314.208-.502.208h-4.01l-.078 1.864h4.799c1.029 0 1.863-.834 1.863-1.863l1.3-9.32c0-1.03-.835-1.864-1.864-1.864z"/>
        <path fill="#EF5252" fill-rule="nonzero" d="M32.921 40.928V31.484c.001-.67-.265-1.312-.739-1.786-.473-.473-1.115-.739-1.785-.739H18.602c-.67 0-1.312.266-1.786.74-.473.473-.74 1.115-.74 1.785v5.682c.001.586-.232 1.148-.646 1.563-.414.415-.977.648-1.563.648-2.032.001-4.741.003-4.809.005-2.679.309-4.796 2.416-5.118 5.093v3.183c0 .61.495 1.106 1.106 1.106h27.876v-7.836z"/>
        <path fill="#919596" fill-rule="nonzero" d="M3.94 46.93h28.982v1.834H5.047c-.294 0-.575-.117-.783-.324-.207-.207-.323-.489-.323-.782v-.728z"/>
        <circle cx="9.668" cy="43.492" r="2.275" fill="#333" fill-rule="nonzero"/>
        <rect width="1" height="3.304" x="9.228" y="41.84" fill="#EF5252" fill-rule="nonzero" rx=".44"/>
        <path fill="#BBB" fill-rule="nonzero" d="M28.949 28.69h-8.165c-2.786 0-5.09-2.168-5.261-4.949L14.76 8.02h20.212l-.762 15.723c-.171 2.78-2.476 4.948-5.262 4.948z"/>
        <path fill="#333" fill-rule="nonzero" d="M28.949 28.94h-8.164c-2.917-.004-5.329-2.273-5.512-5.184L14.499 7.77h20.736l-.775 15.985c-.182 2.912-2.594 5.181-5.511 5.186zM15.023 8.269l.749 15.461c.169 2.646 2.362 4.706 5.013 4.71h8.164c2.652-.004 4.846-2.067 5.012-4.714L34.71 8.27H15.023z"/>
        <path fill="#919596" fill-rule="nonzero" d="M30.33 2.547H19.403c-.761 0-1.49.305-2.024.848L14.66 6.153h20.411l-2.717-2.758c-.534-.543-1.264-.848-2.025-.848z"/>
        <path fill="#333" fill-rule="nonzero" d="M21.382.885h6.97c.44 0 .863.175 1.175.487.311.312.487.734.487 1.175H19.72c0-.918.744-1.662 1.662-1.662z"/>
        <path fill="#EF5252" fill-rule="nonzero" d="M39.325 7.973c0 .147-.058.288-.162.391-.103.104-.244.162-.39.162H10.97c-.146 0-.287-.058-.39-.162-.104-.103-.162-.244-.162-.39 0-1.008.816-1.825 1.824-1.825h25.259c1.007 0 1.824.817 1.824 1.824z"/>
        <path fill="#333" fill-rule="nonzero" d="M22.388 26.074c-1.633-.182-2.846-1.599-2.775-3.24l-.42-11.94c-.002-.067.023-.131.068-.18.045-.048.108-.077.174-.079.137 0 .25.105.259.241l.419 11.937c-.08 1.373.912 2.576 2.275 2.76.138 0 .25.112.25.25s-.112.25-.25.25zM27.346 26.074c-.138 0-.25-.112-.25-.25s.112-.25.25-.25c1.364-.186 2.355-1.39 2.275-2.764l.419-11.933c.012-.135.124-.24.259-.242.066.003.129.031.174.08.045.048.07.113.067.179l-.419 11.937c-.089 1.819-1.307 3.243-2.775 3.243z"/>
        <path fill="#333" fill-rule="nonzero" d="M42.389 32.706H43.739000000000004V36.064H42.389z" transform="rotate(45 43.063 34.385)"/>
        <path fill="#333" fill-rule="nonzero" d="M50.77 33.62c-.078 0-.151-.036-.199-.098-.639-1.013-1.712-1.67-2.904-1.78l-.07-.002c-1.243.126-2.391.723-3.208 1.668-.09.1-.244.11-.347.024-.103-.087-.119-.24-.035-.346.908-1.063 2.197-1.726 3.59-1.846l.082.001c1.345.11 2.562.84 3.29 1.977.058.076.068.178.026.263-.043.085-.13.139-.225.139z"/>
        <path fill="#EFEFEF" fill-rule="nonzero" d="M47.724 45.608l-3.023-9.446c-.209-.657-.817-1.105-1.507-1.11H28.303c-4.723 0-6.545 2.677-6.545 2.677l-5.639 6.77c-.868 1.056-1.658 2.175-2.361 3.348-.185.317-.186.708-.003 1.025.183.317.522.513.888.512l29.925.061c.543 0 1.063-.216 1.446-.6l1.221-1.222c.53-.526.72-1.305.489-2.015zm-5.782-1.782H28.904c-.048.002-.096-.001-.143-.01-2.066-.111-1.16-2.83-.448-4.448.268-.6.818-1.028 1.466-1.14v-.01c.12-.02.244-.03.366-.03h10.85c.885-.005 1.666.576 1.914 1.425l.652 2.24c.63 1.973-1.619 1.973-1.619 1.973z"/>
        <path fill="#333" fill-rule="nonzero" d="M13.735 47.873c.209-.388.446-.76.71-1.114h33.298c-.077.33-.253.63-.505.857l-1.23 1.23c-.382.382-.901.597-1.442.596l-29.946-.05c-.362 0-.696-.193-.878-.506-.182-.312-.185-.698-.007-1.013z"/>
        <path fill="#025CD3" fill-rule="nonzero" d="M36.417 42.473h4.18c.746 0 1.35.604 1.35 1.349h-6.878c0-.745.603-1.349 1.348-1.349zM20.377 36.937h-.428c-.195 0-.382.078-.52.215-.138.138-.215.326-.215.52l-.11 3.246 2.038-2.447-.03-.798c0-.195-.077-.383-.215-.52-.138-.138-.325-.216-.52-.216zM40.517 35.052c0 .978-.793 1.77-1.77 1.771h-6.963c-.974-.005-1.762-.796-1.76-1.77h10.493zM17.8 42.48c-2.303 3.37 7.724 4.278 13.696 4.278h-17.05c1.012-1.506 2.133-2.936 3.354-4.278zM28.313 39.368c-.712 1.618-1.618 4.336.448 4.448v.01c-3.359 0-3.908-.38-2.684-3.674.936-2.25 3.702-1.934 3.702-1.934v.01c-.648.112-1.198.54-1.466 1.14z"/>
        <path stroke="#333" stroke-linecap="round" stroke-linejoin="round" stroke-width=".5" d="M13.758 47.847c-.185.317-.186.708-.003 1.025.183.317.522.513.888.512l29.925.061c.543 0 1.063-.216 1.446-.6l1.221-1.222c.53-.526.72-1.305.489-2.015l-3.023-9.2c-.21-.657-.817-1.105-1.507-1.11H29.778m.113 2.647h11.105c.924.1 1.688.766 1.913 1.668l.652 2.239c.15.519.053 1.078-.263 1.516-.316.439-.816.707-1.356.728H29.78"/>
        <path fill="#333" fill-rule="nonzero" d="M21.662 42.658c-.096 0-.184-.054-.226-.14-.042-.087-.03-.19.03-.265 2.216-2.802 3.94-4.223 5.124-4.223.138 0 .25.112.25.25s-.112.25-.25.25c-.995 0-2.675 1.433-4.732 4.034-.048.06-.12.094-.196.094z"/>
        <path d="M0 0H52V52H0z"/>
    </g>
</svg>
