<svg xmlns="http://www.w3.org/2000/svg" width="52" height="52" viewBox="0 0 52 52">
    <g fill="none" fill-rule="evenodd">
        <ellipse cx="26" cy="50.132" fill="#DCE0E9" fill-rule="nonzero" rx="26" ry="1.868"/>
        <path fill="#EF5252" fill-rule="nonzero" d="M29.163 10.902l-.049.048-6.93 6.93-2.323 2.324s4.726 4.758 9.39.093c4.438-4.924-.088-9.395-.088-9.395z"/>
        <path fill="#FFB444" fill-rule="nonzero" d="M40.588 19.899c-.797-1.07-2.19-1.507-3.455-1.085-1.265.421-2.117 1.607-2.114 2.94 0 .098.02.19.03.285.113 1.31 1.043 2.403 2.317 2.727 1.274.324 2.614-.194 3.34-1.29.725-1.096.678-2.531-.118-3.577z"/>
        <path fill="#8CC63F" fill-rule="nonzero" d="M37.452 13.596c-.585-.11-1.179-.176-1.774-.197-6.5-.242-6.337 6.116-6.25 7.284.008.118.016.202.016.202 9.898 2.25 8.008-7.289 8.008-7.289z"/>
        <path fill="#5A8C40" fill-rule="nonzero" d="M23.187 18.43s.811-2.94-.9-4.755c-.698-.465-1.485-.78-2.312-.923-1.586-.233-3.188.31-4.306 1.46-3.689-1.534-7.625 1.382-5.529 5.334-4.582 1.882-2.564 7.125-.222 6.126.125.376.19.77.193 1.166.017 1.323-.064 2.644-.242 3.955h14.136v-6.458c1.309-.302 2.758-1.018 2.669-3.13.004-2.775-3.487-2.775-3.487-2.775z"/>
        <path fill="#333" fill-rule="nonzero" d="M21.24 22.273c-.132 0-.241-.103-.25-.234-.06-.597-.514-1.079-1.107-1.175-.504-.124-1.026.13-1.238.606-.036.084-.115.141-.205.15-.091.008-.18-.033-.231-.109-.051-.075-.057-.173-.016-.254.306-.684 1.055-1.055 1.784-.884.817.136 1.44.808 1.512 1.633.005.066-.018.132-.061.182-.044.05-.106.08-.172.084h-.017z"/>
        <path fill="#5A8C40" fill-rule="nonzero" d="M40.69 27.406c-.65-1.203-1.77-2.082-3.093-2.428.253-1.638-.489-3.27-1.89-4.156-.627-.34-1.315-.553-2.024-.626-1.909-.235-3.762.744-4.643 2.454 0 0-.089-.073-.24-.178-.693-.482-2.76-1.672-4.215.082-1.42 1.568-.763 3.045.05 4.113l-.264.318-3.864 4.648 10.87 9.037s2.102-3.375 3.236-3.968c1.162 2.265 6.066-.477 3.745-4.853 2.49-1.022 3.08-2.873 2.331-4.443z"/>
        <path fill="#FFB444" fill-rule="nonzero" d="M12.252 24.855c-.403-.209-.85-.32-1.303-.322-1.494-.018-2.765 1.087-2.954 2.57-.189 1.481.763 2.87 2.214 3.228 1.45.358 2.939-.428 3.461-1.828.522-1.4-.088-2.969-1.418-3.648z"/>
        <path fill="#8CC63F" fill-rule="nonzero" d="M11.365 22.895c-.04.22-.048.406-.077.613-1.1 7.992 7.041 7.039 7.041 7.039.214-.901.318-1.824.31-2.75-.103-6.307-7.274-4.902-7.274-4.902zM44.369 22.389l-.005-.029c-2.547-.479-4.242-.066-5.389.74-2.043 1.437-2.301 4.149-2.297 5.466 0 .464.034.758.034.758 2.96.673 4.817.242 5.971-.668 2.439-1.923 1.74-5.971 1.686-6.267z"/>
        <path fill="#FFB444" fill-rule="nonzero" d="M29.33 19.784c-.497-.262-1.05-.4-1.612-.405-1.822-.022-3.372 1.324-3.607 3.13-.234 1.808.922 3.505 2.69 3.948 1.767.443 3.587-.508 4.233-2.212.645-1.704-.087-3.622-1.704-4.462z"/>
        <path fill="#EF5252" fill-rule="nonzero" d="M29.887 23.318H18.21c.051 1.387.409 2.746 1.046 3.98 1.213 2.289 3.663 3.645 6.246 3.458 7.343-.381 7.3-7.438 7.3-7.438h-2.916z"/>
        <path fill="#333" fill-rule="nonzero" d="M30.349 20.336c-.104 0-.198-.064-.234-.162-.037-.097-.01-.207.068-.276l3.151-2.781c.104-.092.262-.082.353.022.092.103.082.261-.021.353l-3.152 2.781c-.046.04-.104.063-.165.063zM27.673 18.951c-.066 0-.13-.026-.176-.073l-.785-.784c-.094-.098-.093-.254.003-.35.097-.097.253-.098.35-.003l.785.783c.072.072.093.18.054.273-.038.093-.13.154-.23.154zM29.045 15.587h-1.327c-.138 0-.25-.112-.25-.25s.112-.25.25-.25h1.327c.138 0 .25.112.25.25s-.112.25-.25.25zM12.66 19.799c-.086 0-.165-.044-.211-.116-.046-.072-.052-.163-.016-.24.297-.798.929-1.426 1.729-1.717.916-.184 1.867.039 2.605.611.117.075.151.23.077.346-.074.116-.229.15-.345.076-.62-.49-1.42-.692-2.198-.553-.66.255-1.176.784-1.415 1.45-.041.087-.13.143-.226.143z"/>
        <path fill="#333" fill-rule="nonzero" d="M10.234 19.796c-.122 0-.226-.087-.246-.207-.021-.12.047-.237.162-.278.838-.303 1.756-.303 2.594.003.085.031.146.106.16.195.014.089-.021.179-.092.235-.07.056-.166.07-.25.035-.725-.262-1.52-.261-2.244.003-.027.01-.055.014-.084.014zM25.517 28.517c-.138 0-.25-.112-.25-.25v-1.23c0-.138.112-.25.25-.25s.25.112.25.25v1.23c0 .138-.112.25-.25.25zM29.231 26.955c-.066 0-.13-.027-.176-.074l-1.042-1.041c-.095-.098-.093-.254.003-.35.097-.097.253-.098.35-.003l1.042 1.041c.072.072.093.179.054.272-.038.094-.13.155-.23.155zM21.802 26.955c-.1 0-.192-.061-.23-.155-.04-.093-.018-.2.053-.272l1.041-1.042c.099-.094.255-.093.351.003.096.097.098.253.003.35l-1.041 1.042c-.047.047-.11.074-.177.074zM36.711 29.574c-.106 0-.201-.068-.236-.169-.034-.1-.001-.212.083-.278l4.507-3.502c.11-.08.262-.058.344.049.083.106.066.259-.037.345l-4.507 3.503c-.044.034-.098.052-.154.052zM18.33 30.796c-.073 0-.14-.03-.188-.084l-3.421-3.876c-.092-.103-.082-.261.022-.353.103-.091.261-.081.353.022l3.42 3.876c.066.074.082.179.041.268-.04.09-.13.147-.228.147z"/>
        <path fill="#F7F2EF" fill-rule="nonzero" d="M42.886 28.738H8.244c-.391-.003-.766.16-1.03.45-.263.29-.39.677-.351 1.067.41 3.79 1.649 10.167 7.61 13.876 2.84 1.767 6.747 2.931 12.157 2.915 15.304 0 17.231-12.133 17.637-16.815.032-.385-.1-.766-.362-1.05-.263-.284-.632-.445-1.019-.443z"/>
        <path fill="#333" fill-rule="nonzero" d="M26.517 47.295c-4.931 0-9.028-.993-12.177-2.952C9.866 41.56 7.34 36.96 6.614 30.282c-.049-.455.098-.908.404-1.248.312-.348.758-.547 1.226-.546h34.642c.46 0 .899.193 1.21.532.306.334.458.78.42 1.232-.967 11.15-7.152 17.043-17.886 17.043h-.113zM8.244 28.988c-.326 0-.636.138-.854.38-.213.233-.314.546-.279.86.707 6.515 3.158 10.993 7.493 13.69 3.069 1.91 7.077 2.877 11.914 2.877h.111c10.436 0 16.448-5.735 17.39-16.586.028-.312-.078-.622-.291-.852-.217-.235-.522-.37-.842-.37H8.244z"/>
        <path fill="#5A8C40" fill-rule="nonzero" d="M42.496 42.431l5.981-.562s3.605-.112 3.29-2.238c-.058-.395-.35-.715-.739-.81-.962-.207-1.957-.205-2.917.007l-5.554.988-.528.094c-.098.012-.196-.025-.261-.1-.065-.074-.089-.176-.063-.272.017-.072.061-.135.124-.175l4.294-2.795s2.815-1.362 1.69-2.803c-.155-.214-.375-.373-.628-.452-1.161-.37-2.788.993-2.788.993l-8.113 5.245.195.927.963 4.568c1.873.42 3.758.8 5.602 1.337 1.045.305 7.313 2.58 7.473.387.203-1.418-2.059-2.08-2.059-2.08l-6.023-1.675c-.137-.042-.226-.175-.21-.317.014-.143.128-.255.271-.267z"/>
        <path fill="#F99122" fill-rule="nonzero" d="M41.575 46.687s-.793-6.135-1.572-9.387c-.103-.43-.206-.814-.307-1.122-.863-2.64-3.621-1.11-3.621-1.11l-22.677 8.725-.313.218c-1.156.804-1.587 2.31-1.03 3.604.306.74.902 1.322 1.648 1.61h24.165c3.94 0 3.707-2.538 3.707-2.538z"/>
        <path fill="#333" fill-rule="nonzero" d="M31.684 43.089c-.12 0-.222-.084-.245-.201L30.326 37.3c-.022-.133.066-.259.198-.285.131-.026.26.057.292.187l1.113 5.588c.027.135-.06.267-.196.294-.016.003-.033.005-.05.005zM27.317 49.475c-.121 0-.225-.088-.246-.207l-.991-5.774c-.023-.136.068-.266.204-.29.136-.023.266.069.29.205l.99 5.774c.024.136-.067.265-.203.289l-.044.003zM19.652 45.463c-.117 0-.218-.081-.244-.196l-.783-3.523c-.03-.135.056-.268.19-.298.135-.03.269.055.299.19l.782 3.523c.015.064.003.132-.033.188-.035.056-.092.096-.157.11-.017.004-.035.006-.054.006zM36.268 49.475c-.118 0-.22-.082-.245-.196l-.633-2.887c-.02-.088.008-.18.074-.24.067-.061.16-.082.246-.054.086.027.15.099.168.187l.634 2.886c.03.135-.055.268-.19.298-.018.004-.036.006-.054.006zM39.09 49.378c-.122 0-.226-.088-.247-.208l-.459-2.662c-.015-.088.018-.178.087-.235.069-.057.162-.073.246-.042.084.03.145.104.16.192l.46 2.662c.012.073-.008.148-.056.205-.047.056-.118.088-.192.088z"/>
        <path fill="#EF5252" fill-rule="nonzero" d="M14.883 49.127c-1.343 1.301-2.566.69-3.551.199-.437-.267-.928-.434-1.437-.49-.509.056-1 .223-1.437.49-.559.333-1.187.532-1.836.581-.653-.017-1.272-.298-1.714-.78C1.744 46.055.59 39.364 2.71 36.337c1.75-2.5 4.828-1.758 6.817-.9l.247-.029c.113.048.006.108.125.108.15 0 .298-.037.429-.109 1.99-.845 5.02-1.543 6.752.93 2.117 3.027.966 9.718-2.197 12.79z"/>
        <path fill="#333" fill-rule="nonzero" d="M26 8.406c-.138 0-.25-.112-.25-.25V2.421c0-.138.112-.25.25-.25s.25.112.25.25v5.735c0 .138-.112.25-.25.25zM31.321 9.344c-.081 0-.158-.04-.204-.106-.047-.067-.058-.153-.03-.23l1.96-5.388c.048-.13.192-.197.321-.15.13.048.197.191.15.32l-1.962 5.39c-.036.099-.13.164-.235.164zM36.001 12.046c-.097 0-.185-.056-.226-.144-.041-.088-.028-.192.035-.267l3.686-4.393c.057-.072.147-.107.237-.092s.165.077.195.163c.03.086.012.182-.05.25l-3.686 4.394c-.047.056-.117.09-.191.089zM15.999 12.046c-.074 0-.144-.033-.191-.09L12.12 7.564c-.06-.068-.08-.164-.05-.25.031-.086.106-.148.196-.163.09-.015.18.02.237.092l3.686 4.393c.062.075.076.179.035.267-.041.088-.13.144-.226.144zM20.679 9.344c-.105 0-.2-.066-.235-.164l-1.962-5.39c-.047-.13.02-.273.15-.32.13-.047.273.02.32.15l1.962 5.389c.028.076.016.162-.03.229-.047.066-.123.106-.205.106zM9.932 37.213c-.417 0-.827-.105-1.192-.307l-.289-.16c-.12-.067-.164-.219-.097-.34.067-.12.219-.164.34-.097l.288.16c.675.37 1.504.316 2.124-.142.071-.056.168-.069.252-.034.083.036.141.114.15.204.01.09-.03.18-.104.231-.426.316-.942.486-1.472.485z"/>
        <path fill="#333" fill-rule="nonzero" d="M9.913 37.211c-.121 0-.224-.087-.245-.206-.208-.843-.033-1.736.48-2.437.439-.5 1.082-.774 1.747-.744.138 0 .25.112.25.25s-.112.25-.25.25c-.517-.028-1.019.18-1.365.565-.414.59-.55 1.331-.37 2.029.012.065-.003.133-.041.187-.038.054-.096.091-.162.103-.014.003-.03.004-.044.003z"/>
        <path d="M0 0H52V52H0z"/>
    </g>
</svg>
