<svg xmlns="http://www.w3.org/2000/svg" width="52" height="52" viewBox="0 0 52 52">
    <g fill="none" fill-rule="evenodd">
        <ellipse cx="26" cy="50.132" fill="#DCE0E9" fill-rule="nonzero" rx="26" ry="1.868"/>
        <path fill="#C4A087" fill-rule="nonzero" d="M39.201 3.741L36.88 4.949 34.56 3.741l-2.323 1.207-2.322-1.207-2.318 1.207-2.322-1.207-.04.021-.04-.02-2.281 1.185-2.282-1.185-.039.02-.038-.02-2.322 1.206-2.323-1.207-2.318 1.207-2.322-1.207-2.32 1.207-2.323-1.207-2.325 1.207v.014c.008.46.059.916.152 1.366.05.24.12.476.21.705.215.532.563.957 1.116.954h34.258c.553 0 .901-.425 1.116-.954.09-.229.16-.465.21-.705.093-.45.144-.907.152-1.366v-.016L39.2 3.742zM6.619 49.855l2.322-1.207 2.318 1.207 2.323-1.207 2.322 1.207 2.318-1.207 2.322 1.207.04-.02.04.02 2.282-1.186 2.282 1.186.038-.02.039.02 2.322-1.207 2.323 1.207 2.317-1.207 2.323 1.207 2.32-1.207 2.323 1.207 2.324-1.207v-.014c-.007-.459-.058-.916-.151-1.365-.05-.241-.12-.477-.21-.706-.215-.532-.563-.957-1.116-.954H5.78c-.552 0-.9.425-1.115.954-.09.23-.16.465-.21.706-.093.449-.144.906-.152 1.365v.016l2.316 1.205z"/>
        <path fill="#C4A087" fill-rule="nonzero" d="M5.342 7.987H40.016999999999996V45.608000000000004H5.342z"/>
        <path fill="#EF5252" fill-rule="nonzero" d="M5.317 16.146c1.126 0 2.04.913 2.04 2.04v17.236c0 1.127-.914 2.04-2.04 2.04V16.146zM40.024 16.146v21.316c-1.126 0-2.04-.913-2.04-2.04V18.186c0-1.127.914-2.04 2.04-2.04z"/>
        <rect width="28.478" height="35.804" x="8.197" y="8.902" fill="#EF5252" fill-rule="nonzero" rx=".622"/>
        <path fill="#FEFEFE" fill-rule="nonzero" d="M10.141 16.028L13.481 11.193 13.368 13.762 11.785 16.055zM17.842 16.028L14.502 11.193 14.615 13.762 16.198 16.055z"/>
        <path fill="#FFB444" fill-rule="nonzero" d="M36.675 43.85v.856H8.82c-.344 0-.622-.278-.622-.621V30.328c.224.25.487.465.777.636.53.268 1.118.387 1.63.695.472.296.875.691 1.18 1.159.252.467.588.884.99 1.232.574.288 1.2.454 1.842.488.787.16 1.543.24 2.326.417.977.271 1.885.75 2.661 1.403.364.353.839.567 1.344.607.447.065.889.17 1.318.311.442.21.838.506 1.165.87.39.414.867.738 1.396.95 1.118.387 2.372-.006 3.464.484.576.368 1.173.703 1.789 1.001.716.106 1.41.325 2.058.65.53.371.882.946 1.431 1.295.408.23.836.423 1.278.576.445.18.848.46 1.304.611.172.058.347.103.525.137z"/>
        <path fill="#333" fill-rule="nonzero" d="M40.018 8.237H5.342c-.138 0-.25-.112-.25-.25s.112-.25.25-.25h34.676c.138 0 .25.112.25.25s-.112.25-.25.25zM40.018 45.858H5.342c-.138 0-.25-.112-.25-.25s.112-.25.25-.25h34.676c.138 0 .25.112.25.25s-.112.25-.25.25z"/>
        <path fill="#F7CF3A" fill-rule="nonzero" d="M32.386 15.352h-7.278v-3.119c0-.574.466-1.04 1.04-1.04h5.198c.575 0 1.04.466 1.04 1.04v3.12z"/>
        <path fill="#F7CF3A" fill-rule="nonzero" d="M22.682 23.67v24.607c0 .46.182.9.507 1.225.325.325.766.508 1.226.508h21.488c.957 0 1.733-.776 1.733-1.733v-6.931c.072-1.33.427-2.63 1.04-3.813 1.211-2.247 1.92-4.73 2.08-7.278 0-2.426-.347-7.278-5.2-10.05-4.851-2.773-13.17-4.853-13.17-4.853h-7.278s-2.426 2.426-2.426 8.318zm9.766-3.98s.514-1.772 6.145-.179c5.199 1.386 4.505 3.12 4.505 3.12s-.366 1.785-5.545.346c-5.924-1.622-5.105-3.288-5.105-3.288zm-5.933 8.426s1.812-.203 2.04 5.168c.286 6.135-1.55 5.87-1.55 5.87s-1.844.058-2.066-5.79c-.286-5.372 1.576-5.248 1.576-5.248z"/>
        <path fill="#FFB444" fill-rule="nonzero" d="M34.537 27.296c1.112-.087 2.227.115 3.238.586.243.154.554.154.796-.001.968-.592 2.122-.804 3.237-.595 2.714.313 4.766 4.317 2.621 8.96-.84 2.03-1.377 4.174-1.592 6.362-.127 1.23-.182 2.466-.165 3.703.007.225-.077.443-.233.606-.155.163-.37.256-.595.26l-3.648.004-3.648.005c-.226-.003-.44-.096-.596-.258-.156-.163-.24-.38-.234-.606.024-1.882-.11-6.468-1.782-10.06-2.155-4.637-.112-8.647 2.601-8.966z"/>
        <path fill="#333" fill-rule="nonzero" d="M41.252 25.842c-1.42-.035-2.829-.24-4.198-.61-.134-.034-.216-.17-.182-.303.033-.134.169-.216.303-.182 4.23 1.057 6.108.5 6.94-.154.426-.305.694-.783.733-1.305 0-.138.11-.25.247-.253h.003c.136 0 .247.108.25.244-.035.672-.368 1.293-.908 1.695-.935.64-2.058.946-3.188.868zM27.166 41.767c-.135.001-.246-.106-.251-.241-.005-.135.099-.25.234-.258 2.707-.198 2.946-4.031 2.949-4.07.01-.136.126-.24.262-.236.138.007.244.125.237.263-.002.043-.265 4.311-3.412 4.542h-.018zM22.867 28.655c-.131 0-.24-.101-.25-.232-.758-10.602 2.206-13.16 2.332-13.264.045-.037.101-.057.159-.057h7.278c.138 0 .25.112.25.25s-.112.25-.25.25h-7.178c-.404.423-2.768 3.325-2.091 12.785.005.066-.017.132-.06.182-.044.05-.106.081-.172.086h-.018z"/>
        <path fill="#333" fill-rule="nonzero" d="M28.497 11.193H29.497V15.352H28.497zM30.611 11.193H31.611V15.352H30.611zM26.383 11.193H27.383V15.352H26.383zM40.747 23.905c-1.167-.035-2.324-.226-3.44-.567-3.72-1.019-4.888-2.09-5.212-2.808-.137-.256-.156-.56-.053-.83.045-.166.734-1.922 6.438-.31 3.143.839 4.214 1.833 4.558 2.52.166.282.206.62.112.934-.098.287-.304.526-.575.665-.561.297-1.194.434-1.828.396zm-6.235-4.69c-1.733 0-2.004.662-2.007.672-.05.16-.027.333.063.474.249.502 1.213 1.494 4.87 2.495h.002c3.086.858 4.356.522 4.84.247.178-.082.32-.228.395-.41.05-.202.014-.417-.1-.591-.257-.48-1.149-1.409-4.227-2.23-1.243-.39-2.534-.61-3.836-.657zM26.855 39.526c-.052 0-.064-.005-.082-.003-.245 0-2.044-.246-2.265-6.027-.173-3.25.443-4.575.99-5.114.215-.247.525-.39.853-.395.304.005.594.128.81.342.591.506 1.325 1.796 1.464 5.065.18 3.852-.48 5.293-1.063 5.823-.189.188-.441.298-.707.31zm-.494-11.04h-.006c-.208.013-.401.114-.532.278-.377.392-.985 1.526-.816 4.708v.003c.207 5.43 1.8 5.55 1.816 5.55.168 0 .326-.076.431-.206.401-.392 1.047-1.615.871-5.403-.136-3.201-.847-4.306-1.26-4.68-.132-.142-.31-.23-.504-.25zM44.001 50.005H39.44c-.138 0-.25-.112-.25-.25s.112-.25.25-.25h4.561c.138 0 .25.112.25.25s-.112.25-.25.25zM46.625 43.458c-.115 0-.216-.08-.243-.191-1.024-4.226 1.91-8.698 2.035-8.886.049-.076.135-.12.225-.114.09.005.17.059.21.14.04.08.032.177-.019.251-.03.044-2.937 4.48-1.965 8.49.032.134-.05.27-.184.302-.02.005-.04.007-.059.008z"/>
        <path fill="#8CC63F" fill-rule="nonzero" d="M10.86 46.591l-.295 1.328h15.637l-.295-1.328c-.689-3.093-.968-6.263-.829-9.428H11.69c.142 3.165-.136 6.336-.828 9.428z"/>
        <path fill="#F7F2EF" fill-rule="nonzero" d="M10.766 30.468l.095.432c.461 2.059.739 4.154.828 6.263h13.39c.09-2.108.368-4.204.828-6.263l.095-.432H10.766z"/>
        <path fill="#333" fill-rule="nonzero" d="M10.565 27.854H26.201999999999998V29.573999999999998H10.565z" transform="rotate(-180 18.384 28.714)"/>
        <path fill="#333" fill-rule="nonzero" d="M10.565 47.918H26.201999999999998V49.638H10.565z" transform="rotate(-180 18.384 48.778)"/>
        <path fill="#8CC63F" fill-rule="nonzero" d="M11.91 30.468L12.198 30.468 15.897 30.468 16.261 30.468 19.974 30.468 20.211 30.468 21.22 30.468 21.477 30.468 23.144 30.468 23.241 30.468 23.509 30.468 23.605 30.468 24.895 30.468 25.132 30.468 26.002 30.468 26.202 29.575 10.565 29.575 10.766 30.468z"/>
        <path fill="#333" fill-rule="nonzero" d="M13.75 31.7l-.123-2.256c-.002-.032.01-.064.032-.087.022-.024.053-.038.086-.038h.262c.032 0 .063.014.085.038.022.023.034.055.032.087L14 31.701c-.005.096.05.185.136.225.329.2.52.564.497.948 0 .56-.34 1.013-.758 1.013-.42 0-.76-.453-.76-1.013-.022-.384.17-.749.498-.948.087-.04.14-.13.136-.225z"/>
        <circle cx="18.384" cy="38.884" r="4.324" fill="#F7F2EF" fill-rule="nonzero"/>
        <path fill="#333" fill-rule="nonzero" d="M18.384 43.458c-2.526 0-4.574-2.048-4.574-4.574s2.048-4.574 4.574-4.574 4.573 2.048 4.573 4.574c-.002 2.525-2.048 4.57-4.573 4.574zm0-8.648c-2.25 0-4.074 1.824-4.074 4.074s1.824 4.074 4.074 4.074 4.073-1.824 4.073-4.074c-.002-2.249-1.824-4.071-4.073-4.074z"/>
        <path fill="#333" fill-rule="nonzero" d="M18.356 30.021h-.098c-.172 0-.312.098-.312.218v4.268c0 .142.199.245.41.204.211.04.41-.063.41-.204v-4.268c0-.12-.14-.218-.312-.218h-.098zM18.384 42.129c-1.79-.001-3.242-1.453-3.241-3.244 0-1.79 1.451-3.242 3.242-3.242 1.79 0 3.243 1.45 3.244 3.24 0 1.793-1.453 3.246-3.245 3.246z"/>
        <circle cx="18.349" cy="30.367" r="1" fill="#8CC63F" fill-rule="nonzero"/>
        <rect width="3.823" height="1.349" x="16.472" y="38.211" fill="#F7F2EF" fill-rule="nonzero" rx=".675"/>
        <path fill="#333" fill-rule="nonzero" d="M11.56 44.531c-.01 0-.021 0-.032-.002-.066-.008-.125-.042-.166-.095-.04-.052-.058-.119-.05-.185l.01-.079c.13-1.03.279-2.195.341-3.383.002-.067.032-.13.081-.174.05-.045.115-.067.182-.062.138.007.244.125.236.262-.063 1.206-.212 2.383-.344 3.42l-.01.08c-.016.125-.122.218-.248.218zM25.375 32.774c-.013 0-.026 0-.04-.002-.065-.01-.124-.047-.163-.1-.039-.054-.055-.121-.044-.187.12-.758.25-1.455.385-2.07.019-.088.083-.16.169-.187.085-.028.18-.007.245.054.066.06.095.152.075.24-.134.605-.261 1.293-.38 2.041-.02.122-.124.211-.247.211z"/>
        <path d="M0 0H52V52H0z"/>
    </g>
</svg>
