<svg width="510" height="510" viewBox="0 0 510 510" fill="none" xmlns="http://www.w3.org/2000/svg">
    <path fill-rule="evenodd" clip-rule="evenodd" d="M0 491.696c0-10.108 114.167-18.301 255-18.301s255 8.193 255 18.301c0 10.107-114.167 18.301-255 18.301S0 501.803 0 491.696z" fill="#DCE0E9"/>
    <path d="M354.828 277.682h-210.98v119.393h210.98V277.682z" fill="#D88A55"/>
    <path d="M191.26.644c.411-.073.847-.098 1.064-.644h163.592c2.856 5.319 6.824-.704 7.949 16.904-40.36 0-80.707-.013-121.067-.025-17.119 0-34.25-.036-51.369-.048-.048-5.392-.097-10.784-.157-16.175l-.012-.012z" fill="#E1DDE1"/>
    <path d="M196.463 396.905c0 6.339-.085 12.677 0 19.004.036 2.101-.315 3.862-1.561 5.331h-15.498c-1.076-2.696-1.076-5.562-1.04-8.476.048-5.295.012-10.577.012-15.871h18.075l.012.012zM337.493 396.893c0 6.217-.085 12.434 0 18.652.024 2.186-.315 4.08-1.524 5.695h-15.498c-1.077-2.696-1.077-5.562-1.041-8.476.049-5.295.012-10.577.012-15.871h18.063-.012z" fill="#A79BA7"/>
    <path d="M319.44 396.904c0 5.295.036 10.577-.012 15.872-.024 2.902-.036 5.78 1.04 8.476H304.45c-1.197-1.227-1.597-2.745-1.584-4.676.084-6.557.024-13.114.012-19.672h16.562zM178.377 396.904c0 5.295.036 10.577-.012 15.872-.025 2.902-.037 5.78 1.04 8.476h-16.018c-1.161-1.385-1.597-2.988-1.561-5.016.097-6.448.025-12.884.025-19.332h16.538-.012z" fill="#918291"/>
    <path d="M178.378 296.431H161.84c-2.492-.024-4.997-.06-7.489-.072-6.4-.037-10.138-4.481-10.15-12.168-.012-28.452 0-56.892 0-85.343 0-56.272.024-112.545.036-168.805l7.767.073c0 23.437.024 46.886 0 70.322 0 2.077 0 3.546 2.383 3.437 5.251-.219 10.502-.097 15.752-.11 26.991-.303 53.982.158 80.986-.412 31.044-.656 62.112-.195 93.168-.085 2.528 0 3.121-.899 3.109-3.85-.097-23.109-.036-46.23-.036-69.338 2.589-.012 5.178-.037 7.767-.049 0 84.833.012 169.655 0 254.488 0 7.274-3.835 11.791-9.896 11.84l-7.743.072h-34.613c-11.022-.024-22.043-.085-33.065-.072-24.45 0-48.913.048-73.363.072h-18.075zm-7.743-114.487c57.926 0 115.841 0 173.767.073 2.395 0 3.012-.814 3-3.655a7152.049 7152.049 0 0 1 0-62.49c0-2.562-.544-3.351-2.722-3.351-58.011.073-116.01.061-174.021.073-5.42 0-10.827.048-16.247-.061-1.706-.036-2.42.461-2.42 2.757.06 21.323.06 42.635 0 63.958 0 2.283.69 2.793 2.407 2.769 5.408-.109 10.828-.049 16.248-.049l-.012-.024zm0 105.052c57.854 0 115.695 0 173.549.073 2.529 0 3.218-.984 3.206-3.947-.073-29.484-.073-58.968 0-88.439 0-2.502-.46-3.401-2.686-3.401-58.192.073-116.384.073-174.577.073-5.25 0-10.501.061-15.74-.06-1.742-.037-2.395.534-2.395 2.793.048 29.872.06 59.757 0 89.629 0 2.696.859 3.376 2.916 3.328 5.25-.134 10.489-.049 15.739-.061l-.012.012z" fill="#D88A55"/>
    <path d="M355.131 30.02c-2.589.012-5.178.036-7.767.048-1.113-.024-2.238-.073-3.351-.073H194.648c-1.113 0-2.226-.073-3.351-.109 0-.158 0-.328-.012-.486.049-4.19.097-8.378.133-12.568 17.119.012 34.25.049 51.369.049 40.36.012 80.707.024 121.067.024 0 2.793.036 5.598.024 8.39-.012 3.413-.98 4.579-3.859 4.676-1.621.049-3.255.037-4.876.049h-.012z" fill="#CBC3CB"/>
    <path d="M191.285 29.386c0 .158.012.328.012.486-7.065.073-14.143.134-21.208.194-6.025 0-12.062.012-18.087.025l-7.767-.073c-1.718-.024-3.436 0-5.154-.073-2.613-.11-3.605-1.263-3.617-4.335-.024-6.958.024-13.916-.024-20.875-.013-2.878 1.016-4.177 3.411-4.14 4.888.084 9.788.072 14.675.097 0 3.521.025 7.055.025 10.576 0 4.42.834 5.55 4.464 5.574 8.65.037 17.312 0 25.963-.024.024 1.239.012 2.477.06 3.704.097 2.768-.932 6.278.399 8.1 1.488 2.04 4.501.449 6.836.752l.012.012z" fill="#B5ADB5"/>
    <path d="M184 16.83c-8.65.012-17.313.072-25.963.024-3.629-.012-4.464-1.154-4.464-5.574 0-3.522-.012-7.055-.024-10.577l30.052.037c-.23 5.379.109 10.722.399 16.077v.012z" fill="#CAC3CB"/>
    <path d="M184 16.83c-.291-5.356-.642-10.711-.4-16.079 2.553-.036 5.118-.06 7.671-.097.048 5.392.096 10.784.157 16.175-.048 4.19-.085 8.38-.133 12.569-2.335-.304-5.348 1.299-6.836-.753-1.33-1.822-.29-5.343-.399-8.1-.048-1.239-.036-2.465-.06-3.704v-.012z" fill="#A79BA7"/>
    <path d="M170.115 191.354c58.192 0 116.384 0 174.577-.073 2.226 0 2.685.887 2.685 3.4-.06 29.484-.072 58.968 0 88.44 0 2.963-.677 3.947-3.206 3.947-57.853-.085-115.695-.073-173.548-.073-1.174-31.876-.218-63.765-.521-95.641h.013zm75.396 25.72c-4.9-.025-9.8-.037-14.7-.098-2.202-.024-3.399 1.13-3.387 3.899.012 3.23.012 6.448 0 9.678-.012 2.768 1.185 3.934 3.387 3.91 4.9-.049 9.8-.061 14.7-.097l22.95.073c2.335 0 3.484-1.348 3.46-4.202a568.4 568.4 0 0 1 0-9.047c.024-2.841-1.113-4.213-3.46-4.201-7.646.036-15.304.048-22.95.073v.012zM170.088 30.067c7.065-.06 14.143-.133 21.208-.194 1.113.037 2.226.11 3.351.11h149.365c1.113 0 2.238.048 3.351.072 0 23.109-.061 46.23.036 69.339 0 2.95-.581 3.861-3.109 3.849-31.056-.109-62.124-.571-93.168.085-27.004.571-53.995.109-80.986.413-.012-24.566-.024-49.12-.048-73.686v.012zm74.924 30.104c-4.73-.037-9.461-.073-14.203-.085-2.347 0-3.436 1.457-3.4 4.286.036 3.024.097 6.048-.012 9.06-.109 2.998 1.065 4.152 3.4 4.116 4.899-.061 9.811-.061 14.711-.085l23.204.073c2.106 0 3.194-1.227 3.194-3.801 0-3.012.025-6.035 0-9.047-.024-3.29-.955-4.566-3.69-4.578-7.73-.036-15.473.024-23.204.048v.013zM170.634 112.579c58.01 0 116.009 0 174.02-.073 2.178 0 2.734.789 2.722 3.351a8344.047 8344.047 0 0 0 0 62.49c.012 2.841-.593 3.667-3 3.655-57.926-.085-115.84-.073-173.767-.073v-69.362l.025.012zm74.355 43.485c1.621-.109 3.242-.304 4.864-.316 6.279-.036 12.558-.061 18.837 0 2.298.024 3.314-1.117 3.242-3.922a150.337 150.337 0 0 1 0-9.059c.097-2.975-1.016-4.056-3.412-4.032-7.827.098-15.655.049-23.482.061-4.731-.012-9.461.037-14.192-.073-2.383-.06-3.52 1.02-3.436 4.008.085 3.011.097 6.047 0 9.058-.084 2.575.799 3.874 2.916 4.117 4.888.559 9.775.328 14.675.134l-.012.024z" fill="#F5A86C"/>
    <path d="M170.112 191.353c.302 31.876-.654 63.764.52 95.641-5.251 0-10.501-.073-15.74.06-2.056.049-2.915-.643-2.915-3.327.06-29.872.06-59.757 0-89.63 0-2.246.641-2.829 2.395-2.793 5.251.11 10.489.049 15.74.061v-.012zM170.115 295.581c58.192 0 116.384 0 174.577-.073 2.226 0 2.685.862 2.685 3.279-.06 28.488-.072 56.988 0 85.476 0 2.866-.677 3.813-3.206 3.813-57.853-.073-115.695-.06-173.548-.073-1.174-30.795-.218-61.615-.521-92.422h.013z" fill="#F5A86C"/>
    <path d="M170.112 295.581c.302 30.808-.654 61.628.52 92.423-5.251 0-10.501-.073-15.74.061-2.056.049-2.915-.619-2.915-3.218.06-28.877.06-57.741 0-86.618 0-2.174.641-2.733 2.395-2.696 5.251.109 10.489.048 15.74.048z" fill="#E99A58"/>
    <path d="M170.089 30.066c.012 24.566.024 49.12.048 73.686-5.25.012-10.501-.121-15.752.109-2.371.097-2.383-1.36-2.383-3.436.024-23.437 0-46.886 0-70.322 6.025 0 12.062-.012 18.087-.025v-.012zM170.632 112.58v69.362c-5.42 0-10.828-.048-16.248.049-1.718.036-2.419-.486-2.407-2.769.06-21.324.06-42.635 0-63.959 0-2.295.714-2.781 2.419-2.756 5.408.109 10.828.06 16.248.06l-.012.013z" fill="#F5A86C"/>
    <path d="M245.509 217.075c7.646-.024 15.304-.037 22.95-.073 2.335 0 3.484 1.36 3.46 4.202a568.274 568.274 0 0 0 0 9.046c.024 2.854-1.125 4.214-3.46 4.202l-22.95-.073c-1.234-1.445-1.682-3.169-1.549-5.27a52.83 52.83 0 0 0 0-6.776c-.133-2.101.327-3.813 1.549-5.27v.012z" fill="#897D74"/>
    <path d="M245.509 217.073c-1.234 1.445-1.682 3.158-1.549 5.27a52.83 52.83 0 0 1 0 6.776c-.133 2.101.315 3.826 1.549 5.271-4.9.024-9.8.048-14.7.097-2.201.024-3.399-1.154-3.387-3.91.012-3.231.012-6.448 0-9.679-.012-2.768 1.173-3.922 3.387-3.898 4.9.061 9.8.061 14.7.098v-.025zM245.012 60.17c7.731-.024 15.474-.097 23.204-.048 2.734.012 3.666 1.275 3.69 4.578.024 3.011 0 6.035 0 9.047 0 2.574-1.089 3.8-3.194 3.8l-23.204-.072c-.484-.838-1.391-1.676-1.379-2.49.084-4.942-1.029-10.018.871-14.803l.012-.012z" fill="#897D74"/>
    <path d="M245.014 60.169c-1.899 4.785-.798 9.848-.871 14.803-.012.825.895 1.663 1.379 2.49-4.9.023-9.811.023-14.711.084-2.335.024-3.509-1.13-3.4-4.117.109-3.011.061-6.035.012-9.058-.036-2.83 1.053-4.287 3.4-4.287 4.73.012 9.461.06 14.203.085h-.012zM245.035 138.823c7.828 0 15.655.036 23.483-.061 2.395-.024 3.508 1.044 3.412 4.032a150.337 150.337 0 0 0 0 9.059c.072 2.793-.944 3.946-3.243 3.922-6.279-.073-12.558-.049-18.837 0-1.621 0-3.242.206-4.863.316-1.549-5.756-1.658-11.5.036-17.244l.012-.024z" fill="#897D74"/>
    <path d="M245.037 138.823c-1.694 5.744-1.585 11.488-.036 17.244-4.888.182-9.788.425-14.675-.134-2.118-.243-3.001-1.542-2.916-4.116.097-3.012.097-6.036 0-9.059-.085-2.988 1.052-4.068 3.436-4.008 4.73.122 9.461.061 14.191.073z" fill="#897D74"/>
    <path d="M251.475 290.808h-51.296a3.031 3.031 0 0 1-3.025-3.036 3.031 3.031 0 0 1 3.025-3.036h51.296c1.67 0 3.025 1.36 3.025 3.036a3.031 3.031 0 0 1-3.025 3.036zM360.696 28.33a3.031 3.031 0 0 1-3.024-3.037V8.9c0-1.093-.387-1.433-.545-1.567-1.04-.923-3.508-.923-4.295-.825l-.387.024H193.378a3.031 3.031 0 0 1-3.024-3.036A3.031 3.031 0 0 1 193.378.46h158.898c1.161-.121 5.783-.4 8.844 2.307 1.185 1.045 2.601 2.963 2.601 6.133v16.393a3.031 3.031 0 0 1-3.025 3.036zM182.247 6.533H171.48a3.031 3.031 0 0 1-3.025-3.036A3.031 3.031 0 0 1 171.48.46h10.767c1.67 0 3.025 1.36 3.025 3.036a3.031 3.031 0 0 1-3.025 3.036zM314.289 29.519H139.083a3.031 3.031 0 0 1-3.024-3.036 3.031 3.031 0 0 1 3.024-3.036h175.194c1.67 0 3.025 1.36 3.025 3.036a3.031 3.031 0 0 1-3.025 3.036h.012zM344.291 106.288H200.552a3.031 3.031 0 0 1-3.025-3.035 3.031 3.031 0 0 1 3.025-3.036h143.739a3.031 3.031 0 0 1 3.024 3.036 3.031 3.031 0 0 1-3.024 3.035zM280.197 184.201H184.04a3.031 3.031 0 0 1-3.024-3.036 3.031 3.031 0 0 1 3.024-3.036h96.157a3.031 3.031 0 0 1 3.024 3.036 3.031 3.031 0 0 1-3.024 3.036z" fill="#414042"/>
    <path d="M98.299 494.996H79.655c-.314-.546-.847-.291-1.282-.328-7.295-.57-14.554-1.445-21.668-3.193-6.46-1.591-12.776-3.558-18.292-7.469-2.626-1.858-4.465-4.213-5.239-7.443-1.161-4.87-2.589-9.679-3.762-14.548-5.215-21.652-9.558-43.485-13.853-65.331-1.04-5.283-1.96-10.577-2.94-15.872 4.888 3.267 10.356 5.149 15.97 6.667 16.828 4.542 34.056 6.035 51.38 6.582 11.41.364 22.83.109 34.239-.814 10.126-.825 20.204-2.016 30.124-4.262 7.658-1.737 15.244-3.765 21.934-8.16-.036.425-.048.85-.121 1.263-3.145 16.32-6.279 32.641-9.739 48.889-3.303 15.531-6.569 31.062-10.912 46.351-.617 2.173-1.755 3.922-3.4 5.403-2.661 2.393-5.795 4.008-9.074 5.343-9.303 3.789-19.09 5.368-29.023 6.315-1.9.182-3.847.024-5.71.619l.012-.012zm-57.152-34.803c-1.912.013-3.182 1.713-2.686 3.656.92 3.63 1.936 7.225 2.891 10.844.242.922.763 1.566 1.525 2.112 3.895 2.806 8.166 4.748 12.848 5.805 2.117.474 3.617-.279 3.98-1.979.363-1.64-.617-2.927-2.637-3.449a39.962 39.962 0 0 1-9.062-3.582c-.992-.535-1.597-1.19-1.863-2.344-.665-2.878-1.488-5.707-2.214-8.573-.387-1.506-1.27-2.392-2.782-2.514v.024z" fill="#E8705F"/>
    <path d="M166.267 380.813c-6.69 4.408-14.276 6.424-21.934 8.161-9.921 2.246-19.998 3.448-30.125 4.262a303.964 303.964 0 0 1-34.238.814c-17.324-.547-34.552-2.028-51.38-6.582-5.602-1.518-11.07-3.412-15.97-6.667-2.045-1.275-3.303-3.145-4.065-5.391v-21.883c.665 1.178 1.27 2.405 2.286 3.34 2.82 2.586 6.146 4.286 9.727 5.537 3.182 1.421 6.533 2.332 9.896 3.182 9.752 2.477 19.684 3.873 29.69 4.857 10.38 1.02 20.784 1.409 31.189 1.348 8.19-.049 16.393-.352 24.571-1.081 9.279-.826 18.498-1.967 27.608-3.946 5.033-1.093 10.042-2.308 14.796-4.372a30.296 30.296 0 0 0 9.183-4.991c1.077-.85 1.561-2.222 2.71-2.975.036.631.109 1.263.109 1.894 0 5.38-.109 10.771.048 16.151.097 3.594-1.089 6.375-4.113 8.342h.012z" fill="#9E3639"/>
    <path d="M8.555 350.686c3.157-5.526 8.686-7.566 14.179-9.533 9.352-3.352 19.103-5.027 28.914-6.278 14.688-1.882 29.46-2.538 44.268-2.21 17.01.376 33.935 1.712 50.558 5.646 5.227 1.239 10.356 2.757 15.232 5.076a28.74 28.74 0 0 1 4.742 2.806c2.795 2.052 4.489 4.59 3.775 8.245-1.149.765-1.633 2.125-2.71 2.975a30.296 30.296 0 0 1-9.183 4.991c-.604-.887-1.403-1.555-2.274-2.162-4.162-2.853-8.928-4.25-13.719-5.464-14.857-3.752-30.052-4.845-45.296-5.307-6.243-.194-12.51-.109-18.764.17-8.19.352-16.357.911-24.475 1.967-8.251 1.081-16.43 2.538-24.293 5.356-3.315 1.19-6.606 2.525-8.917 5.44-3.58-1.251-6.908-2.951-9.727-5.538-1.016-.935-1.62-2.161-2.286-3.339v-2.854l-.024.013z" fill="#994538"/>
    <path d="M41.147 460.193c1.512.122 2.396 1.008 2.783 2.514.726 2.854 1.548 5.695 2.214 8.573.266 1.142.87 1.81 1.863 2.344a40.755 40.755 0 0 0 9.061 3.582c2.02.522 3 1.81 2.638 3.449-.375 1.688-1.875 2.453-3.98 1.979-4.67-1.056-8.953-2.999-12.849-5.804-.762-.547-1.282-1.19-1.524-2.113-.944-3.619-1.96-7.226-2.892-10.844-.496-1.943.775-3.643 2.686-3.655v-.025z" fill="#FEFCFA"/>
    <path d="M20.569 362.414c2.31-2.902 5.601-4.238 8.916-5.44 7.864-2.829 16.042-4.274 24.293-5.355 8.13-1.069 16.285-1.615 24.475-1.967 6.267-.268 12.522-.353 18.764-.17 15.244.461 30.439 1.554 45.296 5.306 4.791 1.215 9.558 2.611 13.719 5.465.884.607 1.67 1.275 2.275 2.161-4.755 2.065-9.763 3.267-14.796 4.372-9.11 1.979-18.329 3.108-27.608 3.946-8.179.729-16.381 1.045-24.572 1.081-10.404.049-20.809-.328-31.189-1.348-10.005-.983-19.938-2.38-29.689-4.857-3.363-.85-6.715-1.761-9.896-3.182l.012-.012z" fill="#BF6A1D"/>
    <path d="M92.505 367.563c22.444 0 40.638-2.881 40.638-6.436 0-3.554-18.194-6.436-40.638-6.436s-40.638 2.882-40.638 6.436c0 3.555 18.194 6.436 40.638 6.436z" fill="#843D07"/>
    <path d="M92.506 364.785c12.729 0 23.047-1.637 23.047-3.655 0-2.019-10.318-3.655-23.047-3.655-12.728 0-23.047 1.636-23.047 3.655 0 2.018 10.319 3.655 23.047 3.655z" fill="#361500"/>
    <path d="M85.706 362.805c-2.359.085-3.133-.048-4.875-.158-11.215-2.428-20.337-8.354-28.721-15.446-11.615-9.812-19.14-20.437-26.23-33.601-4.113-7.638-5.48-16.879-8.008-26.326-1.96-17.814-3.34-34.342-3.86-52.253-.024-1.008-.653-2.234.605-3.06 5.686 6.606 10.453 13.71 14.216 21.506 5.517 11.451 5.59 23.655 6.376 35.798.544 8.367 2.588 16.333 7.694 23.376 3.097 4.287 4.476 5.477 7.78 6.752-7.61-21.761-4.816-42.562 5.818-62.708 4.936-8.136 10.248-16.017 17.156-22.83 1.125-1.117 1.113-1.129 2.54-.716-1.85 7.796-1.27 15.823-2.468 23.691-.931.814-.556 1.871-.568 2.83-.037 3.704-.013 7.395-.013 11.099.121 6.314-.302 12.641.496 18.931-.774 3.607-.907 7.201.085 10.796.23 1.688.653 3.376.666 5.076.084 7.043 1.076 14.025 2.117 20.959 1.875 12.435 4.585 24.457 9.194 36.284z" fill="#9BD66C"/>
    <path d="M85.705 362.805c-4.597-11.828-7.307-23.85-9.194-36.285-1.053-6.933-2.033-13.916-2.117-20.959-.025-1.7-.436-3.388-.666-5.076-.024-3.594-.06-7.201-.084-10.795-.799-6.291-.376-12.617-.497-18.932 1.283-4.602.4-9.289.581-13.928 1.198-7.857.617-15.884 2.468-23.692 2.529 6.108 5.868 11.84 9.207 17.572 3.895 7.188 9.57 13.26 14.106 20.048.29.437.581.935 1.186.753.544-.17.665-.716.75-1.239.327-1.955-.411-3.776-.702-5.658 0-5.841.013-11.694.025-17.535.23-1.591.556-3.182.677-4.785.75-10.139 2.553-20.121 5.081-29.994 1.549-6.047 3.049-12.107 4.574-18.166 1.923-.935 1.524.983 1.742 1.518 6.158 14.802 11.965 29.727 13.997 45.659.061.498.206.983.315 1.481-10.671 7.796-18.934 17.414-24.705 28.95-.701 1.396-.834 2.477-.084 3.934 2.093 4.093 3.665 8.391 4.597 12.86.569 2.732 1.004 5.489 1.5 8.233.799 6.12.266 12.216-.629 18.276-.786 5.367-2.093 10.625-3.69 15.847-1.803 5.889-4.392 11.451-6.884 17.049-2.274 5.1-4.912 10.055-7.38 15.07-1.282 0-2.88-.206-4.162-.219l-.012.013z" fill="#5EAF5A"/>
    <path d="M147.128 315.262c-4.259 8.537-7.332 12.435-13.26 19.952-7.779 9.872-16.695 17.425-25.72 26.302-3.194 1.19-12.691 1.749-18.28 1.494 2.48-5.015 5.117-9.97 7.38-15.07 2.491-5.598 5.08-11.16 6.883-17.049 1.597-5.234 2.904-10.48 3.69-15.847.895-6.06 1.428-12.156.629-18.264.169-2.173 1.416-3.995 2.347-5.889 8.142-16.54 18.547-31.755 30.645-45.939 4.803-5.634 9.449-11.451 15.389-16.126-.629 4.092-2.492 7.845-3.581 11.816-2.722 9.909-4.368 19.903-3.557 30.176-.182 2.817.472 5.525 1.101 8.257 1.016 4.36-.932 30.723-3.666 36.187z" fill="#478444"/>
    <path d="M56.501 256.671c-10.634 20.134-13.429 40.948-5.82 62.709-3.302-1.276-4.681-2.466-7.778-6.752-5.093-7.043-7.15-15.009-7.695-23.376-.786-12.143-.859-24.347-6.375-35.799-3.75-7.796-8.53-14.899-14.216-21.505 20.01-2.004 33.79 5.804 41.195 23.339.193.461.447.911.677 1.372l.012.012z" fill="#5EB05A"/>
    <path d="M156.833 228.828c-5.94 4.676-10.586 10.492-15.389 16.127-12.086 14.171-22.503 29.399-30.645 45.938-.931 1.894-2.177 3.716-2.347 5.889-.496-2.744-.919-5.5-1.5-8.233-.932-4.468-2.504-8.767-4.597-12.859-.75-1.458-.617-2.538.084-3.935 5.771-11.548 14.034-21.154 24.705-28.95 8.36-5.816 17.216-10.783 26.931-14.304 1.076-.389 2.093-1.045 3.339-.875l-.037-.036c-.012.218-.036.425-.048.643-.181.219-.375.425-.557.644l.049-.036.012-.013zM100.745 264.614c.29 1.882 1.016 3.704.702 5.659-.085.522-.206 1.069-.751 1.239-.604.182-.895-.328-1.185-.753-4.537-6.788-10.211-12.86-14.107-20.049 1.38-3.521 1.125-7.286 1.84-10.905 3.193-16.32 9.666-31.172 21.474-43.691.701-.741 1.282-1.64 2.383-1.968-1.524 6.06-3.025 12.12-4.573 18.167-2.529 9.872-4.331 19.854-5.081 29.994-.121 1.603-.448 3.181-.678 4.784-1.15 1.227-.629 2.733-.556 4.068.241 4.493-.775 9.023.544 13.479l-.012-.024zM157.425 227.613c.049-.085.085-.159.134-.244l-.17.207.036.037z" fill="#9BD66D"/>
    <path d="M156.77 228.862c.181-.218.375-.425.556-.643-.024.34.048.753-.556.643z" fill="#478444"/>
    <path d="M73.73 256.818c-.181 4.639.702 9.326-.58 13.929 0-3.704-.025-7.396.011-11.099 0-.96-.35-2.028.569-2.83zM73.645 289.678c.025 3.594.061 7.201.085 10.795-.992-3.594-.859-7.189-.085-10.795zM100.745 264.613c-1.318-4.444-.302-8.986-.544-13.479-.073-1.335-.58-2.829.557-4.068 0 5.853-.013 11.694-.025 17.535l.012.012z" fill="#A4D788"/>
    <path d="M35.28 479.709a2.559 2.559 0 0 1-2.493-2.015l-20.3-93.613-6.485-7.699v-23.303l.17-.449c3-7.736 24.16-14.427 28.37-15.69a2.56 2.56 0 0 1 3.181 1.725 2.571 2.571 0 0 1-1.718 3.193c-15.026 4.518-23.361 9.739-24.898 12.289v20.365l6.098 7.237.133.62 20.434 94.244c.302 1.384-.569 2.756-1.948 3.048a2.802 2.802 0 0 1-.544.061v-.013zM107.918 363.012a2.562 2.562 0 0 1-2.081-1.069 2.574 2.574 0 0 1 .593-3.582c34.504-24.785 41.134-43.109 40.626-64.651-1.125-48.646 6.593-64.093 6.92-64.724a2.555 2.555 0 0 1 3.448-1.093 2.575 2.575 0 0 1 1.089 3.449c-.121.255-7.428 15.482-6.352 62.246.629 27.42-10.961 46.109-42.767 68.95a2.491 2.491 0 0 1-1.488.474h.012zM55.518 259.657l-1.863-2.999c-14.953-24.092-36.101-20.789-36.996-20.644a2.561 2.561 0 0 1-2.952-2.088 2.552 2.552 0 0 1 2.068-2.963c.992-.17 23.604-3.862 40.324 20.109 3.278-3.704 9.787-10.783 17.264-17.292a2.544 2.544 0 0 1 3.605.255 2.567 2.567 0 0 1-.254 3.619c-10.21 8.901-18.849 19.198-18.946 19.308l-2.262 2.708.012-.013zM50.681 321.941a2.556 2.556 0 0 1-2.407-1.712 69.627 69.627 0 0 1-2.783-10.37 2.567 2.567 0 0 1 2.033-3 2.568 2.568 0 0 1 2.988 2.04 65.806 65.806 0 0 0 2.577 9.618 2.577 2.577 0 0 1-1.549 3.278 2.584 2.584 0 0 1-.859.146zM46.905 303.132a2.56 2.56 0 0 1-2.553-2.404c-1.282-20.401 5.699-36.297 5.989-36.964a2.538 2.538 0 0 1 3.375-1.288 2.581 2.581 0 0 1 1.295 3.388c-.073.158-6.75 15.471-5.553 34.548a2.564 2.564 0 0 1-2.396 2.72h-.169.012zM126.827 243.885a2.551 2.551 0 0 1-2.541-2.368c-1.948-24.845-14.748-43.521-14.868-43.703a2.573 2.573 0 0 1 .629-3.571 2.55 2.55 0 0 1 3.556.632c.557.801 13.72 19.951 15.777 46.242a2.566 2.566 0 0 1-2.348 2.756h-.205v.012z" fill="#414042"/>
    <path d="M68.974 360.231a2.58 2.58 0 0 1-1.246-.328c-31.31-17.62-44.038-44.493-49.204-63.947-5.577-21.02-3.81-37.668-3.726-38.372a2.555 2.555 0 0 1 2.819-2.259 2.553 2.553 0 0 1 2.25 2.829c-.012.158-1.742 16.539 3.642 36.661 7.174 26.8 22.89 47.201 46.711 60.607a2.575 2.575 0 0 1 .98 3.498 2.551 2.551 0 0 1-2.226 1.311zM91.777 395.326c-33.004 0-58.592-6.885-59.028-7.007a2.574 2.574 0 0 1-1.79-3.157 2.563 2.563 0 0 1 3.145-1.797c.726.206 73.642 19.781 131.048-8.197a2.548 2.548 0 0 1 3.412 1.19 2.566 2.566 0 0 1-1.186 3.425c-24.656 12.021-52.022 15.531-75.601 15.531v.012z" fill="#414042"/>
    <path d="M425.218 491.122c-11.24.024-23.568.073-34.807.085-23.41.012-46.808 0-70.218 0-12.727 0-19.841-5.1-23.93-17.134-.109-.316-.387-.571-.593-.863V321.346c6.763-20.231 16.841-39.053 24.91-58.725.351-.85.847-1.639 1.27-2.453 1.21.036 2.408.097 3.618.097H447.89c1.209 0 2.419-.061 3.617-.085.121.219.254.437.375.656-.411.728-.883 1.421-1.21 2.186a11156.45 11156.45 0 0 0-12.86 30.309c-3.4 8.051-6.751 16.127-10.163 24.166-1.137 2.683-.968 5.646-1.923 8.366-.884.838-.508 1.931-.508 2.915-.025 51.621-.013 162.344-.013 162.344h.013zm-10.611-93.212c-.036-29.071-23.156-54.548-54.538-54.548-30.052 0-54.624 23.631-54.636 54.778-.024 31.282 24.838 54.73 54.575 54.852 30.246.121 54.624-24.566 54.612-55.07l-.013-.012z" fill="#B86B32"/>
    <path d="M425.736 325.854c.956-2.72.787-5.683 1.936-8.367 3.412-8.051 6.763-16.114 10.163-24.165a9232.802 9232.802 0 0 1 12.86-30.31c.327-.765.811-1.457 1.21-2.186 6.787 16.041 13.513 32.107 20.373 48.112 2.129 4.954 4.815 9.703 4.997 15.288-1.525-.048-2.868-.704-4.235-1.287-6.146-2.623-12.267-5.306-18.425-7.869-4.501-1.87-5.965-.862-5.965 3.971V443.62l.012 39.587-22.877 7.881s-.024-113.455-.037-165.21l-.012-.024z" fill="#693300"/>
    <path d="M451.53 260.182c-1.21.024-2.42.085-3.618.085H325.49c-1.209 0-2.407-.061-3.617-.097 0-11.476 0-22.951.012-34.427 0-4.893 2.069-6.958 6.945-6.958h115.731c4.876 0 6.932 2.077 6.944 6.97.025 11.476.025 22.951.025 34.427zm-67.896-13.88h34.565c2.988 0 5.323-1.421 5.722-3.874.884-5.476.085-10.224-7.537-10.176-18.679.109-37.347.037-56.027.037-3.629 0-7.246-.061-10.876.012-4.9.109-6.472 2.137-6.4 7.966.061 4.238 1.984 6.035 6.533 6.035h34.02z" fill="#D7D3C9"/>
    <path d="M477.614 331.985c.024 12.387.085 24.785.085 37.171 0 18.822-.036 85.465-.061 104.287l-22.817 7.687V326.387c0-.753.012-1.493 0-2.246-.024-1.385.436-1.895 1.851-1.275 6.969 3.06 13.962 6.084 20.942 9.119z" fill="#693300"/>
    <path d="m454.822 481.129-6.158 2.064s-.012-122.635-.012-164.166c0-4.82 1.464-5.84 5.965-3.97 6.17 2.562 12.292 5.245 18.425 7.868 1.367.583 2.71 1.239 4.235 1.288.859 2.55.314 5.173.338 7.759-6.98-3.036-13.973-6.059-20.942-9.119-1.415-.62-1.887-.11-1.851 1.275.013.74 0 1.493 0 2.246v154.755z" fill="#BA834C"/>
    <path d="M414.608 397.911c.012 30.504-24.366 55.204-54.611 55.07-29.725-.121-54.599-23.558-54.575-54.851.024-31.148 24.583-54.778 54.635-54.778 31.383 0 54.515 25.488 54.539 54.547l.012.012zm-55.664 31.658v-.012c3.811 0 7.634.146 11.433-.036 4.779-.231 8.614-2.393 10.889-6.679 2.165-4.08 1.052-7.893-1.452-11.524-2.964-4.299-5.723-8.731-8.663-13.042a14.573 14.573 0 0 0-24.281.048c-2.867 4.251-5.565 8.61-8.481 12.824-2.504 3.606-3.786 7.407-1.681 11.512 2.323 4.517 6.327 6.715 11.336 6.885 3.617.121 7.247.024 10.876.024h.024zm30.512-27.444c4.767.037 8.808-3.473 8.916-7.759.085-3.461-2.964-6.291-6.75-6.278-4.489.024-8.711 3.898-8.784 8.063-.06 3.388 2.771 5.938 6.63 5.974h-.012zm-23.446-26.824c-.061 3.885 2.395 6.569 6.013 6.593 4.343.025 8.347-4.201 8.359-8.84 0-3.534-2.649-6.29-6.097-6.327-4.222-.048-8.215 4.093-8.275 8.574zm-35.654 26.836c4.029.025 6.654-2.27 6.703-5.853.072-4.298-3.908-8.111-8.566-8.196-3.738-.073-6.63 2.501-6.702 5.986-.085 4.384 3.786 8.039 8.553 8.063h.012zm20.083-26.593c.037-4.651-3.895-8.853-8.251-8.817-3.508.025-5.855 2.563-5.879 6.351-.037 4.785 3.702 8.804 8.19 8.792 3.46 0 5.916-2.623 5.952-6.326h-.012z" fill="#F6BD78"/>
    <path d="M425.229 491.122c-.024-51.622-.024-110.723 0-162.344 0-.984-.375-2.077.509-2.915 0 51.755.024 113.455.036 165.21l-.545.061v-.012z" fill="#C29161"/>
    <path d="M358.942 429.568c-3.629 0-7.258.097-10.876-.024-5.021-.17-9.025-2.368-11.336-6.886-2.105-4.104-.823-7.905 1.682-11.511 2.915-4.214 5.613-8.574 8.481-12.824a14.573 14.573 0 0 1 24.281-.048c2.94 4.311 5.698 8.743 8.662 13.042 2.504 3.63 3.617 7.443 1.452 11.524-2.275 4.298-6.11 6.46-10.889 6.678-3.798.183-7.621.037-11.432.037v.012h-.025zM389.453 402.137c-3.859-.024-6.69-2.586-6.63-5.974.073-4.165 4.295-8.039 8.784-8.063 3.786-.025 6.835 2.817 6.75 6.278-.109 4.286-4.137 7.796-8.916 7.759h.012zM366.009 375.302c.06-4.481 4.065-8.622 8.275-8.573 3.448.036 6.11 2.793 6.098 6.327-.013 4.638-4.017 8.864-8.36 8.84-3.618-.024-6.074-2.708-6.013-6.594zM330.356 402.149c-4.767-.024-8.639-3.679-8.554-8.063.073-3.473 2.952-6.06 6.703-5.987 4.645.085 8.638 3.898 8.565 8.197-.06 3.582-2.686 5.865-6.702 5.853h-.012zM350.44 375.556c-.024 3.704-2.492 6.327-5.952 6.327-4.489 0-8.227-4.007-8.191-8.792.024-3.788 2.371-6.314 5.88-6.351 4.355-.036 8.287 4.166 8.251 8.816h.012z" fill="#693300"/>
    <path d="M367.607 485.649c.327-.667.641-1.323.968-1.991 7.247 1.821 14.639 3.011 22.067 3.303 10.09.401 20.18.085 30.185-1.773 13.308-2.477 25.939-6.57 36.996-14.596 6.134-4.457 11.324-9.836 13.901-17.256.339-.061.678-.109 1.017-.17l5.674.109 2.31.11c7.38 2.38 11.724 7.383 13.708 14.936 1.827 6.934 3.557 11.706 5.819 18.518.617 1.846-1.198 4.226-3.061 4.214-25.757-.061-49.445-.048-75.202-.036-17.591 0-32.024-1.117-49.627-1.105-1.029 0-2.033-.437-3.061-.51.448-1.3-2.299-1.118-1.851-2.417l.145-1.348.012.012z" fill="#BB2B3D"/>
    <path d="M392.529 443.659c1.924-.802 3.92-1.178 6.013-.972 1.04.109 1.5-.231 1.682-1.396.653-4.08 3.81-6.74 7.875-6.788 1.343-.025 2.698.036 4.041.048.581.777.775.34 1.113-.267 3.291-5.683 7.477-6.946 13.453-3.959.98.486 1.307.231 1.912-.473 4.162-4.724 9.316-4.991 14.022-.741.689.619 1.198.753 2.093.474 5.746-1.798 8.989-.571 12.013 4.602.533.923.968.704 1.718.546 6.025-1.287 9.8.899 11.469 6.703.279.972.666 1.288 1.646 1.166a8.75 8.75 0 0 1 3.799.304c4.609 1.469 6.787 5.731 5.347 10.467l-2.311-.109c-1.875-.777-3.774-.546-5.674-.121-.339.06-.677.109-1.016.17l-.024-.098c-.678-.631-1.513-.388-2.287-.388-25.648 0-51.284 0-76.932.024-.775 0-1.609-.255-2.299.352-.339 0-.69.012-1.028.025l-.472-.474c-.641-3.849 1.306-6.594 3.835-9.108l.012.013zm45.562-4.785c.423-2.052-.061-3.048-2.504-2.987-2.178.048-2.868.607-2.807 2.817.06 2.04.169 3.182 2.758 3.121 2.335-.061 3.025-.826 2.553-2.951zm-19.103 1.761c-.315 1.943-.145 3.23 2.432 3.096 2.032-.097 3.036-.376 2.879-2.744-.121-1.931 0-3.303-2.686-3.181-2.178.097-3.17.595-2.625 2.829zm30.27 3.424c-.521 2.065-.013 3.145 2.552 3.048 2.021-.073 2.892-.473 2.698-2.671-.157-1.785.278-3.473-2.589-3.255-2.032.146-3.303.365-2.674 2.878h.013z" fill="#D39F26"/>
    <path d="M389.165 453.239c.339 0 .69-.012 1.028-.024 21.015.036 42.042.085 63.056.097 6.158 0 12.304-.049 18.462-.073l.024.097c-2.577 7.42-7.767 12.799-13.901 17.256-11.057 8.027-23.688 12.119-36.996 14.596-10.017 1.858-20.095 2.174-30.185 1.773-7.44-.291-14.82-1.481-22.067-3.303 1.911-6.084 3.738-12.192 5.771-18.227 2.395-7.116 7.537-11.002 14.82-12.192h-.012z" fill="#DA3644"/>
    <path d="M472.752 453.166c1.899-.437 3.799-.668 5.674.121a894.898 894.898 0 0 1-5.674-.121zM471.725 453.24c-6.158.024-12.304.085-18.462.072-21.027-.024-42.041-.06-63.056-.097.69-.607 1.524-.352 2.299-.352 25.648-.024 51.284-.024 76.932-.024.774 0 1.609-.243 2.287.388v.013z" fill="#D87F6C"/>
    <path d="M438.08 438.875c.472 2.125-.217 2.902-2.552 2.95-2.589.061-2.698-1.08-2.759-3.12-.06-2.223.629-2.769 2.807-2.818 2.444-.06 2.928.935 2.504 2.988zM418.978 440.636c-.545-2.235.435-2.733 2.625-2.83 2.698-.121 2.565 1.251 2.686 3.182.157 2.38-.847 2.647-2.88 2.744-2.576.134-2.746-1.166-2.431-3.096z" fill="#806B42"/>
    <path d="M449.247 444.071c-.641-2.514.642-2.732 2.674-2.878 2.867-.219 2.432 1.481 2.589 3.254.194 2.198-.677 2.599-2.698 2.672-2.565.097-3.073-.996-2.553-3.048h-.012z" fill="#806A40"/>
    <path d="M450.756 259.577a3.031 3.031 0 0 1-3.024-3.036V224.98c.048-1.384-.218-2.319-.762-2.878-.763-.765-2.105-.898-2.565-.886H337.13a3.031 3.031 0 0 1-3.025-3.036 3.031 3.031 0 0 1 3.025-3.036h107.093c.738-.024 4.319 0 6.957 2.599 1.258 1.239 2.722 3.509 2.589 7.334v31.464a3.031 3.031 0 0 1-3.025 3.036h.012zM497.975 491.15h-127.89a3.031 3.031 0 0 1-3.024-3.036 3.031 3.031 0 0 1 3.024-3.036h127.89c1.67 0 3.025 1.36 3.025 3.036a3.031 3.031 0 0 1-3.025 3.036zM419.687 321.644h-14.385a3.031 3.031 0 0 1-3.025-3.036 3.031 3.031 0 0 1 3.025-3.036h14.385a3.031 3.031 0 0 1 3.024 3.036 3.031 3.031 0 0 1-3.024 3.036zM388.052 321.644h-89.164a3.031 3.031 0 0 1-3.025-3.036 3.031 3.031 0 0 1 3.025-3.036h89.164a3.031 3.031 0 0 1 3.024 3.036 3.031 3.031 0 0 1-3.024 3.036z" fill="#414042"/>
    <path d="M297.267 397.112a3.031 3.031 0 0 1-3.025-3.035v-76.746l.254-.583 25.527-58.422c.678-1.542 2.469-2.234 3.981-1.566a3.046 3.046 0 0 1 1.56 3.995l-25.273 57.839v75.471a3.031 3.031 0 0 1-3.024 3.035v.012z" fill="#414042"/>
    <path d="m333.257 437.51-4.911 43.388-204.98 6.472-13.829-50.419-12.606-19.939-4.029-12.702 16.635-17.219 201.653-3.327 26.265 9.969-4.198 43.777z" fill="#00AEEF"/>
    <path d="M256.421 371.875c21.233.024 42.465.061 63.71.085 5.541 0 7.767 1.542 9.848 6.97 1.911 4.979 3.738 9.994 5.601 14.985-9.691 0-19.381.024-29.072.024-.024-.364-.133-.74-.073-1.08.509-2.842-.677-3.425-3.218-3.376-8.541.17-17.094.061-25.636.061-2.911 0-4.44 1.465-4.585 4.395-14.409 0-28.818.025-43.227-.036-1.778 0-2.903.219-2.565 2.477.194 1.312-.242 2.004-1.681 1.98-4.428-.073-8.856-.049-13.284 0-1.186 0-1.888-.353-1.682-1.7.375-2.478-.823-2.769-2.819-2.757-14.324.085-28.636.036-42.96.036-.025-.364-.134-.74-.073-1.08.508-2.842-.678-3.425-3.23-3.376-8.542.17-17.095.061-25.636.061-2.912 0-4.44 1.465-4.586 4.395-4.149-.024-8.287-.06-12.437-.085-.024-6.399-.52-12.871 2.71-18.773.509-.923 1.065-1.882.944-3.048 18.232-.024 36.476-.049 54.708-.085 1.391 0 2.771-.049 4.162-.073H256.434h-.013z" fill="#00AEEF"/>
    <path d="M328.587 479.201c-.085.728-.17 1.457-.242 2.186-.557 6.29-3.678 9.314-9.715 9.314H119.881c-7.029 0-9.63-2.453-10.514-9.897l-6.605-54.973c-.049-.364 0-.729 0-1.093 5.879-.012 11.747-.036 17.627-.049l.532.11c.581 5.598 1.125 11.208 1.766 16.794.751 6.582 1.61 13.151 2.384 19.733.399 3.339.617 6.703 1.137 10.018.762 4.882 4.21 7.808 8.929 7.808 11.021 0 173.827.037 193.426.049h.024zM256.423 371.877h-8.36c0-7.686-.121-15.373.06-23.06.061-2.696-.75-3.679-3.206-3.242-.339.061-.689 0-1.04 0-15.789 0-31.589.036-47.377-.049-1.984 0-2.71.474-2.674 2.72.133 7.869.061 15.738.073 23.619h-8.36c0-9.581.145-19.162-.072-28.731-.121-5.209 1.717-8.731 6.266-10.698 19.007-.025 38.013-.061 57.019-.049 4.041 0 7.634 4.032 7.646 8.44.025 10.346.025 20.692.025 31.038v.012zM118.817 393.868c-5.529.013-11.046.037-16.575.049 2.008-5.343 3.787-8.464 5.819-13.783 1.537-4.007 5.892-7.067 9.981-7.019 1.9.025 2.517-1.08 4.416-1.056.121 1.166-.435 2.137-.943 3.048-3.231 5.889-2.735 12.362-2.71 18.773l.012-.012z" fill="#0066B2"/>
    <path d="M191.732 332.461c-4.549 1.967-6.376 5.488-6.267 10.698.218 9.569.061 19.15.073 28.731h-4.198c0-9.617.012-19.223.024-28.84 0-7.651 3.146-10.856 10.368-10.589z" fill="#00AEEF"/>
    <path d="M163.655 432.218c-.859-.049-1.73-.097-3.206-.194 2.202-2.332 4.38-4.129 5.965-6.4 3.932-5.61 8.928-7.674 15.473-6.812 2.613.34 4.719.68 6.57 2.89 2.637 3.157 5.625 5.974 8.408 8.998.907.984 1.815 1.469 3.17 1.469 12.582-.048 25.164-.048 37.746 0 1.355 0 2.262-.497 3.17-1.481 3.157-3.4 6.4-6.715 9.545-10.128 1.041-1.129 2.154-1.445 3.618-1.688 7.706-1.262 13.804 1.154 18.389 7.942 1.222 1.822 3 3.218 4.621 4.894-1.113.729-2.093.243-2.976.51-3.448-.024-6.884-.073-10.332-.085-3.278-.012-3.278 0-3.206 3.57 0 .267.037.547.061.814-.049 2.015-.097 4.031-.158 6.059H177.29c-.048-2.016-.097-4.031-.157-6.059.024-.547 0-1.093.084-1.627.387-2.344-.629-2.915-2.722-2.793-3.605.194-7.222.097-10.84.133v-.012z" fill="#D0CDC8"/>
    <path d="M177.276 442.563H260.5c0 .085.024.182.036.267.242 2.162-.859 5.027.46 6.339 1.524 1.518 4.282.449 6.496.522 2.928.097 5.868.024 9.231.024-1.064 1.458-1.923 2.623-2.782 3.789-3.037 2.186-5.251 5.295-7.901 7.905-2.213 2.174-12.957 2.174-15.122-.073-.932-.959-1.839-1.942-2.759-2.914-2.274-2.392-4.585-4.748-6.799-7.201-.968-1.069-1.972-1.554-3.412-1.542-12.678.048-25.345.048-38.024 0-1.416 0-2.444.425-3.436 1.494-3.206 3.485-6.473 6.897-9.751 10.309-2.033 2.113-12.885 2.065-14.929-.048-.993-1.02-1.948-2.089-2.952-3.097-1.682-1.712-3.388-3.388-5.082-5.088-.822-1.032-1.645-2.052-2.831-3.546h11.953c2.872 0 4.311-1.469 4.319-4.408 0-.911.049-1.821.073-2.744l-.012.012z" fill="#B9B5B2"/>
    <path d="M163.759 453.262c1.694 1.688 3.4 3.376 5.081 5.088 1.005 1.02 1.96 2.076 2.952 3.096 2.045 2.113 12.897 2.162 14.93.049 3.266-3.412 6.545-6.825 9.751-10.31.98-1.068 2.008-1.505 3.436-1.493 12.679.048 25.345.048 38.024 0 1.44 0 2.444.473 3.412 1.542 2.214 2.453 4.525 4.809 6.799 7.201.92.971 1.839 1.955 2.759 2.914 2.165 2.247 12.92 2.259 15.122.073 2.65-2.611 4.864-5.719 7.9-7.905.557 1.676-.012 2.902-1.197 4.104-2.045 2.065-3.956 4.287-5.916 6.448-.315.182-.642.352-.956.535h-14.748c-.169 0-.339 0-.508-.025-3-3.801-6.521-7.067-9.812-10.576-.846-.911-1.984-.984-3.145-.984-12.498.024-25.007.024-37.505 0-1.161 0-2.298.073-3.145.984-3.291 3.509-6.811 6.775-9.812 10.576-.169.025-.338.025-.508.025h-14.748a35.219 35.219 0 0 0-.955-.535c-1.9-2.088-3.714-4.262-5.723-6.217-1.343-1.312-1.911-2.708-1.464-4.566l-.024-.024zM163.652 432.219c3.618-.025 7.235.06 10.84-.134 2.093-.109 3.097.449 2.722 2.793-.084.534-.06 1.081-.084 1.627-.884-.825-1.876-1.165-3.086-1.117-2.431.085-4.863-.024-7.295.037-2.153.06-3.339-.778-3.097-3.218v.012zM260.644 436.518c-.024-.267-.06-.547-.06-.814-.073-3.57-.073-3.582 3.206-3.57 3.448.012 6.884.049 10.332.085.254 2.441-.944 3.279-3.085 3.218-2.432-.073-4.864.049-7.295-.036-1.21-.037-2.202.291-3.085 1.117h-.013z" fill="#808285"/>
    <path d="M243.875 371.891v-26.303c.351 0 .702.049 1.041 0 2.456-.425 3.266.547 3.206 3.242-.17 7.687-.061 15.374-.061 23.061h-4.198.012z" fill="#B9B5B2"/>
    <path d="m118.817 393.869-7.187 13.163 9.304 17.754-18.16 1.032-9.872-21.506 9.352-10.394 16.563-.049z" fill="#0066B2"/>
    <path d="M334.298 404.335H145.239a3.031 3.031 0 0 1-3.024-3.035 3.031 3.031 0 0 1 3.024-3.036h189.059c1.67 0 3.025 1.36 3.025 3.036a3.031 3.031 0 0 1-3.025 3.035zM131.595 404.335h-11.033a3.031 3.031 0 0 1-3.025-3.035 3.031 3.031 0 0 1 3.025-3.036h11.033c1.67 0 3.025 1.36 3.025 3.036a3.031 3.031 0 0 1-3.025 3.035z" fill="#414042"/>
    <path d="M112.14 472.896a3.04 3.04 0 0 1-2.976-2.477l-9.594-51.84-4.585-1.093-5.493-17.45 10.272-10.88 4.669-9.035c7.634-11.791 16.127-11.014 18.39-10.552l54.369-.085c1.67 0 3.025 1.36 3.025 3.036a3.031 3.031 0 0 1-3.025 3.035l-55.168.085-.447-.133c-.182-.049-5.953-1.445-12.002 7.808l-4.839 9.399-8.408 8.913 3.387 10.759 5.081 1.215 10.32 55.713a3.043 3.043 0 0 1-2.419 3.546 2.911 2.911 0 0 1-.557.048v-.012zM335.511 391.984a3.028 3.028 0 0 1-2.613-1.493l-4.235-7.238c-4.428-6.545-5.553-7.601-10.912-7.601H262.28a3.031 3.031 0 0 1-3.024-3.036 3.031 3.031 0 0 1 3.024-3.036h55.471c8.589 0 11.239 3.352 15.969 10.346l.109.17 4.283 7.323a3.04 3.04 0 0 1-1.077 4.153 3.032 3.032 0 0 1-1.524.412zM326.933 465.305c-.133 0-.254 0-.388-.024-1.657-.206-2.831-1.736-2.613-3.4l4.356-34.244c.205-1.664 1.73-2.83 3.387-2.623 1.658.206 2.831 1.736 2.613 3.4l-4.355 34.244a3.03 3.03 0 0 1-3 2.647zM316.466 491.389c-.605 0-1.089-.048-1.392-.085H208.308a3.031 3.031 0 0 1-3.025-3.036 3.032 3.032 0 0 1 3.025-3.036h107.275l.278.049s2.214.34 3.932-1.105c1.621-1.36 2.516-4.08 2.577-7.857a3.029 3.029 0 0 1 3.024-2.987h.049c1.669.024 3 1.409 2.976 3.084-.097 5.744-1.73 9.946-4.852 12.496-2.528 2.076-5.335 2.465-7.101 2.465v.012z" fill="#414042"/>
</svg>
