<svg xmlns="http://www.w3.org/2000/svg" width="52" height="52" viewBox="0 0 52 52">
    <g fill="none" fill-rule="evenodd">
        <ellipse cx="26" cy="50.132" fill="#DCE0E9" fill-rule="nonzero" rx="26" ry="1.868"/>
        <path fill="#C9CBCA" fill-rule="nonzero" d="M18.445 16.389s-4.444-.33-6.816 3.101h13.633c-2.373-3.43-6.817-3.101-6.817-3.101z"/>
        <path fill="#4CF29E" fill-rule="nonzero" d="M25.424 33.446c-.403-1.058-.403-2.228 0-3.287.723-1.444 2.326-6.739 0-10.428-.052-.083-.107-.162-.162-.24H11.63c-.055.078-.11.157-.162.24-2.326 3.69-.722 8.984 0 10.428.404 1.059.404 2.229 0 3.287-3.018 6.223-1.4 12.73-.487 15.414.261.762.979 1.273 1.785 1.272h11.361c.806.001 1.524-.51 1.785-1.272.913-2.683 2.532-9.19-.487-15.414z"/>
        <rect width="10.71" height="16.46" x="13.091" y="26.14" fill="#A2BA42" fill-rule="nonzero" rx="5.355"/>
        <path fill="#C9CBCA" fill-rule="nonzero" d="M15.343 15.591H20.891V16.985H15.343z"/>
        <path fill="#08348B" fill-rule="nonzero" d="M16.786 9.836H19.529V11.839H16.786z"/>
        <path fill="#08348B" fill-rule="nonzero" d="M19.591 7.402l.674.674c.07.071.11.167.11.267s-.04.196-.11.267l-1.97 1.97-1.208-1.207 1.97-1.97c.07-.072.167-.111.267-.111s.196.04.267.11z"/>
        <rect width="3.598" height="1" x="16.359" y="9.274" fill="#08348B" fill-rule="nonzero" rx=".281"/>
        <rect width="6.26" height="3.809" x="14.987" y="11.782" fill="#F44F2F" fill-rule="nonzero" rx=".378"/>
        <path fill="#333" fill-rule="nonzero" d="M12.999 27.82c-.112 0-.21-.074-.24-.181-.07-.24-1.646-5.923 1.732-8.352.073-.056.17-.067.253-.03.083.036.14.116.148.207.008.09-.034.178-.11.23-3.09 2.223-1.558 7.752-1.543 7.808.038.132-.039.27-.171.308-.023.007-.046.01-.069.01zM15.954 14.903c-.138 0-.25-.112-.25-.25v-1.98c0-.138.112-.25.25-.25s.25.112.25.25v1.98c0 .138-.112.25-.25.25z"/>
        <path fill="#F44F2F" fill-rule="nonzero" d="M29.907 3.854l3.532-2.807c.17-.135.413-.133.581.006l2.458 2.032c.17.14.217.382.112.576L34.44 7.62l-4.533-3.766z"/>
        <path fill="#F44F2F" fill-rule="nonzero" d="M34.245 1.24L35.68.1c.17-.136.413-.133.581.006l.792.654c.17.14.217.382.111.576l-.868 1.598-2.051-1.694z"/>
        <path fill="#0940B7" fill-rule="nonzero" d="M25.684 19.217l-.606-7.676c-.015-.195 0-.39.047-.58.29-1.195 1.565-5.612 4.782-7.107L34.44 7.62s-.381.501.526 1.687c.907 1.187 7.955 9.561 7.955 12.98V48.84c0 .637-.516 1.153-1.153 1.153H26.484c-.608 0-1.111-.47-1.151-1.076-.292-4.45-1.323-21.378-.416-25.791 1.046-5.095.767-3.908.767-3.908z"/>
        <path fill="#FEFEFE" fill-rule="nonzero" d="M40.566 24.645c-.321 5.262-.377 10.537-.166 15.805 0 0-1.34 3.674-10.574.33-.428-4.215-.486-8.46-.176-12.686 4.459-4.378 10.916-3.45 10.916-3.45z"/>
        <path fill="#333" fill-rule="nonzero" d="M40.565 22.095c-.098 0-.188-.058-.228-.148-2.127-4.737-7.81-8.631-10.98-9.771-.13-.047-.197-.19-.15-.32.046-.13.19-.198.32-.15 3.25 1.168 9.08 5.168 11.267 10.036.056.126 0 .274-.125.33-.033.015-.068.023-.104.023zM31.7 4.611c-.075 0-.145-.033-.192-.09-.043-.052-.063-.117-.057-.183.007-.066.039-.127.09-.17l2.727-2.252c.069-.057.163-.073.246-.041.084.03.145.104.16.193.014.088-.02.177-.088.234l-2.727 2.252c-.044.037-.1.058-.159.057zM33.583 6.114c-.046 0-.092-.012-.13-.037-.057-.035-.098-.09-.113-.155-.016-.065-.005-.133.03-.19l1.852-3.005c.034-.057.09-.098.154-.113.065-.015.133-.004.19.032.056.034.096.09.112.155.015.064.004.132-.03.189l-1.852 3.006c-.045.074-.126.119-.213.118zM36.887 45.39c-2.046-.056-4.073-.406-6.02-1.039-.132-.04-.206-.18-.166-.312.042-.131.18-.205.313-.166 2.96.908 7.042 1.672 9.688.162.12-.069.273-.027.341.093.069.12.027.273-.093.341-1.252.652-2.652.97-4.063.92z"/>
        <path fill="#FCE655" fill-rule="nonzero" d="M33.157 47.894c-.03.108-.064.212-.103.316-.653 1.71-2.328 2.81-4.158 2.729-11.602-.497-8.03-.497-19.632 0-1.799.08-3.452-.983-4.126-2.652-.053-.129-.098-.26-.135-.393-.387-1.322-.387-2.726 0-4.047.549-1.876 2.309-3.132 4.26-3.043 11.604.494 8.03.494 19.633 0 1.952-.09 3.712 1.167 4.261 3.043.387 1.321.387 2.725 0 4.047z"/>
        <path fill="#333" fill-rule="nonzero" d="M31.759 46.909c-.012 0-.023-.001-.034-.003-.137-.018-.233-.144-.214-.281.14-1.118-.143-2.249-.79-3.17-.632-.667-1.526-1.019-2.442-.96l-6.101.236c-.137.002-.25-.104-.26-.24-.006-.138.102-.254.24-.26l6.112-.237c1.065-.063 2.103.353 2.83 1.134.747 1.029 1.072 2.304.907 3.565-.017.124-.123.216-.248.216zM5.238 48.554c-.1 0-.19-.06-.23-.15-.682-1.451-.77-3.111-.245-4.626.585-1.984 2.445-3.314 4.511-3.224 2.612.111 4.422.27 5.876.398 1.019.09 1.824.161 2.53.18.138.001.249.115.247.253-.002.138-.115.248-.253.246h-.007c-.722-.018-1.533-.09-2.56-.18-1.45-.128-3.254-.286-5.854-.397-1.842-.103-3.51 1.086-4.01 2.861-.489 1.404-.408 2.943.224 4.289.027.06.028.13.003.191-.024.062-.072.111-.133.138-.031.013-.065.02-.099.02z"/>
        <path fill="#1C6749" fill-rule="nonzero" d="M33.04 48.247c-.614 1.748-2.292 2.895-4.144 2.83-11.602-.515-8.03-.515-19.632 0-1.852.085-3.558-1-4.266-2.713 2.725-.725 7.2-1.306 14.081-1.306 4.683-.12 9.365.278 13.96 1.19z"/>
        <path d="M0 0H52V52H0z"/>
    </g>
</svg>
