<svg xmlns="http://www.w3.org/2000/svg" width="52" height="52" viewBox="0 0 52 52">
    <g fill="none" fill-rule="evenodd">
        <ellipse cx="26" cy="50.132" fill="#DCE0E9" fill-rule="nonzero" rx="26" ry="1.868"/>
        <path fill="#894039" fill-rule="nonzero" d="M37.731 7.22h6.639l2.86 19.933c.012.07.019.142.019.213v21.249c0 .675-.548 1.223-1.224 1.223h-10.15c-.676 0-1.223-.548-1.223-1.223V27.374c0-.076.007-.153.021-.227L37.731 7.22z"/>
        <path fill="#DD4432" fill-rule="nonzero" d="M34.652 31.28H47.249V43.452H34.652z"/>
        <path fill="#F3D24F" fill-rule="nonzero" d="M37.731 7.22h6.639l.818 5.588h-1.912c-.456.006-.874.257-1.094.657-.235.408-.67.66-1.142.66-.471 0-.906-.252-1.142-.66-.22-.4-.637-.65-1.093-.657h-1.95l.876-5.588z"/>
        <path fill="#333" fill-rule="nonzero" d="M45.318 29.252c-.138 0-.25-.112-.25-.25-.048-1.991-.224-3.977-.528-5.945l-1.429-8.42c-.023-.135.068-.265.204-.288.066-.012.133.003.188.041.054.039.09.098.1.164l1.43 8.422c.308 1.995.487 4.007.536 6.026 0 .066-.027.13-.074.176-.047.047-.11.074-.177.074z"/>
        <rect width="8.609" height="6.289" x="36.736" y=".931" fill="#DD4432" fill-rule="nonzero" rx=".489" transform="rotate(-180 41.04 4.075)"/>
        <path fill="#333" fill-rule="nonzero" d="M43.759 6.293c-.138 0-.25-.112-.25-.25V2.27c0-.138.112-.25.25-.25s.25.112.25.25v3.773c0 .138-.112.25-.25.25z"/>
        <path fill="#FFEA00" fill-rule="nonzero" d="M37.91 45.53c-.19.09-.39.17-.58.25H12.25c-.19-.08-.39-.16-.58-.25 1.93-21.23 1.93-6.12 0-27.36.19-.09.39-.17.58-.25h25.08c.19.08.39.16.58.25-1.93 21.24-1.93 6.13 0 27.36z"/>
        <path fill="#FF4800" fill-rule="nonzero" d="M33.465 22.658c-.557-2.063-5.632-2.855-10.952-1.42-.332.089-.66.184-.98.284-4.823 1.506-8.006 4.443-7.33 6.328.013.053.034.105.06.153 1.674 4.051 7.877-.826 12.176 3.85.675-6.2 8.257-4.355 7.026-9.195z"/>
        <path fill="#F2C900" fill-rule="nonzero" d="M37.91 18.17H11.67c0-.067.025-.13.073-.177.047-.048.11-.074.177-.073h25.74c.067 0 .13.025.177.073.048.047.074.11.073.177zM37.91 45.53c0 .067-.025.13-.073.177-.047.048-.11.074-.177.073H11.92c-.067 0-.13-.025-.177-.073-.048-.047-.074-.11-.073-.177h26.24z"/>
        <path fill="#333" fill-rule="nonzero" d="M37.91 18.17c0 .067-.025.13-.073.177-.047.048-.11.074-.177.073H11.92c-.138 0-.25-.112-.25-.25s.112-.25.25-.25h25.74c.067 0 .13.025.177.073.048.047.074.11.073.177zM37.91 45.53c0 .067-.025.13-.073.177-.047.048-.11.074-.177.073H11.92c-.138 0-.25-.112-.25-.25s.112-.25.25-.25h25.74c.067 0 .13.025.177.073.048.047.074.11.073.177z"/>
        <path fill="#47AED6" fill-rule="nonzero" d="M34.169 36.665c-1.454.072-2.894.324-4.286.752-3.433.937-7.11 2.582-10.42 3.407-1.29.299-2.61.457-3.934.473v-1.534c1.226-.05 2.443-.243 3.624-.578 3.266-.83 7.18-2.598 10.55-3.523 1.458-.374 2.96-.553 4.466-.532v1.535z"/>
        <path fill="#F2C900" fill-rule="nonzero" d="M37.91 14.46v3.71c0-.067-.025-.13-.073-.177-.047-.048-.11-.074-.177-.073H11.92c-.067 0-.13.025-.177.073-.048.047-.074.11-.073.177v-3.71h26.24zM37.91 45.53v3.71H11.67v-3.71c0 .067.025.13.073.177.047.048.11.074.177.073h25.74c.067 0 .13-.025.177-.073.048-.047.074-.11.073-.177z"/>
        <path fill="#5A23B6" fill-rule="nonzero" d="M43.911 42.873L42.931 44.126 43.911 45.384 43.909 45.386 42.931 46.637 42.933 46.64 42.931 46.642 43.909 47.895 42.931 49.146 42.934 49.149 42.92 49.167 40.448 49.767 39.151 50.068 39.129 50.066 37.022 50.068 34.075 50.068 7.926 50.082 4.121 49.169 3.139 47.914 4.121 46.658 3.139 45.405 4.121 44.147 3.139 42.89 4.121 41.636 3.139 40.379 4.129 39.111 7.874 38.196 39.122 38.196 40.247 38.465 42.934 39.111 43.911 40.362 42.931 41.618z"/>
        <path fill="#FFEA00" fill-rule="nonzero" d="M10.015 44.881v-5.168c0-.11.09-.2.2-.2h5.22c.11 0 .2.09.2.2v3.747c.002.051-.017.101-.052.139-.035.037-.084.059-.135.06-1.795.075-3.55.55-5.138 1.392-.06.035-.135.034-.196 0-.06-.035-.098-.1-.099-.17z"/>
        <path fill="#FF4800" fill-rule="nonzero" d="M10.767 40.065h4.116c.11 0 .2.09.2.2v2.673c.003.103-.076.19-.178.198-1.4.12-2.77.47-4.055 1.037-.061.029-.133.024-.19-.012-.057-.036-.092-.098-.092-.166v-3.73c0-.11.089-.2.199-.2z"/>
        <path fill="#C19968" fill-rule="nonzero" d="M37.138 48.842l-.177.057-.728.237-1.275.417-.725.237-.854.278h-1.475l-.278-.858-.28-.858-.084-.255-.408-1.253-.28-.858-.188-.576c-.034-.104-.026-.217.023-.314.05-.098.136-.171.24-.205l.428-.141.727-.237 1.275-.415.729-.237 1.275-.415.266-.087c.127-.042.267-.02.374.059.069.051.12.122.145.204l.39 1.197v.002l.28.855.492 1.509.159.487.121.372.09.279c.035.103.026.216-.023.314-.05.097-.135.171-.24.205z"/>
        <path fill="#603813" fill-rule="nonzero" d="M31.804 44.514L30.853 46.845 30.573 45.986 31.078 44.751zM33.808 43.861L31.625 49.21 31.345 48.352 33.079 44.098zM35.723 43.418l-1.598 3.92-1.112 2.73h-.633l.942-2.31 1.76-4.313.267-.086c.127-.042.267-.02.374.06zM36.538 45.677L34.957 49.552 34.232 49.789 36.258 44.821zM37.31 48.045L36.962 48.899 36.233 49.136 37.03 47.184z"/>
        <path fill="#8C584B" fill-rule="nonzero" d="M38.827 48.012c-.27.381-.62.72-.92 1.076-.313.35-.65.677-1.007.98l-.983-.001-2.107.001h-2.947c.035-.177.086-.35.153-.518.147-.572-.606-.798-.99-1.003-.7-.37-1.345-.838-2.041-1.22-.212-.115-1.129-.448-.651-.778.381-.264.98.175 1.333.311.753.282 1.486.612 2.195.99.334.191.688.345 1.057.457.05.014.1.026.152.037.178.04.36.057.542.052.18-.005.357-.037.527-.096.214-.08.422-.18.62-.296.23-.14.47-.266.717-.376.091-.04.186-.074.283-.1.259-.073.526-.113.794-.119.163-.004.325.008.485.035l.058.01h.002c.174.034.342.095.497.18.113.067.213.158.327.221.059.035.123.058.19.068.034.006.067.007.1.004.288-.076.558-.208.795-.387.217-.115.572-.378.83-.23.262.15.122.515-.011.702z"/>
        <path fill="#4C2365" fill-rule="nonzero" d="M3.139 47.914L4.121 49.169 4.115 49.167z"/>
        <path fill="#9884D8" fill-rule="nonzero" d="M25.148 44c-.112.081-.14.236-.063.351.4.515.492 1.206.24 1.808-.643 1.357-2.119 2.112-3.595 1.838-.77-.104-1.492-.428-2.082-.934-.57-.487-.851-1.232-.746-1.974.106-.743.584-1.38 1.267-1.688.069-.04.115-.111.124-.19.01-.08-.017-.158-.074-.215-.397-.336-.6-.848-.542-1.365.27-1.272 2.258-1.84 3.27-1.145.528.33.723 1.005.452 1.565-.305.414-.863.55-1.325.325-.144-.063-.246-.194-.273-.35-.007-.2.47-.417.195-.591-.233-.138-.533-.078-.696.139-.467.594.493 1.24.946 1.386.042.01.072.047.073.09.002.043-.025.082-.066.096-.332.104-.636.282-.89.519-.473.49-.689 1.173-.586 1.846.118.522.482.955.977 1.16.568.265 1.236.199 1.741-.172.519-.379.72-1.058.49-1.658-.117-.285-.35-.507-.64-.61-.29-.103-.61-.077-.88.07-.133.095-.24.221-.313.367-.064.105-.08.233-.045.351.025.055.084.087.144.077.044-.016.08-.05.097-.094l.008-.018c.09-.227.245-.475.508-.512.32-.019.62.162.753.455.124.246.135.535.032.79-.343.573-1.03.84-1.67.647-.113-.03-.222-.075-.323-.135-.466-.373-.66-.99-.496-1.563.155-.497.526-.898 1.01-1.09.74-.346 1.604-.196 2.357-.53.556-.232.996-.678 1.22-1.238.047-.127.094-.417.255-.216.16.198.106.609.094.836-.065.64-.413 1.216-.948 1.572z"/>
        <path fill="#333" fill-rule="nonzero" d="M7.927 50.121c-.138 0-.25-.112-.25-.25V38.407c0-.138.112-.25.25-.25s.25.112.25.25V49.87c0 .138-.112.25-.25.25zM39.084 50.121c-.138 0-.25-.112-.25-.25V38.407c0-.138.112-.25.25-.25s.25.112.25.25V49.87c0 .138-.112.25-.25.25z"/>
        <path d="M0 0H52V52H0z"/>
    </g>
</svg>
