<svg width="339" height="281" viewBox="0 0 339 281" fill="none" xmlns="http://www.w3.org/2000/svg">
<path fill-rule="evenodd" clip-rule="evenodd" d="M20 266.514C20 259.067 86.7096 253.029 169 253.029C251.29 253.029 318 259.067 318 266.514C318 273.962 251.29 280 169 280C86.7096 280 20 273.962 20 266.514Z" fill="#DCE0E9"/>
<path d="M206.341 221.753H133.436L116.638 70.5718H223.138L206.341 221.753Z" fill="#BBE2A1"/>
<path d="M192.672 70.5718L175.874 221.753H206.341L223.14 70.5718H192.672Z" fill="#A9CE91"/>
<path d="M133.437 221.753H206.341V250.061H133.437V221.753Z" fill="#B2B0AD"/>
<path d="M174.866 240.753H154.911C151.918 240.753 149.226 242.573 148.112 245.351L146.223 250.059H183.552L181.663 245.351C180.55 242.573 177.858 240.753 174.866 240.753Z" fill="#827F7E"/>
<path d="M189.626 266.455H130.152C126.444 266.455 123.437 263.45 123.437 259.74V250.059H196.341V259.74C196.341 263.448 193.334 266.455 189.626 266.455Z" fill="#A3A09D"/>
<path d="M116.638 54H223.138V70.5699H116.638V54Z" fill="#A3A09D"/>
<path d="M222.832 54.1602V70.617L204.808 221.863V261.829C204.808 263.658 203.398 267.158 197.755 266.531C192.113 265.904 165.74 265.739 148.5 266" stroke="black" stroke-width="2" stroke-linecap="round"/>
<path d="M223.832 54.1602H117.255V70.617H205.025M119.606 94.1267L128.226 181.896M145.952 250.075L148.845 243.132C149.466 241.642 150.922 240.671 152.537 240.671H176.394C177.909 240.671 179.294 241.527 179.971 242.882L183.568 250.075" stroke="black" stroke-width="2" stroke-linecap="round"/>
<path fill-rule="evenodd" clip-rule="evenodd" d="M109.192 55.4209C109.088 54.5189 108.326 53.8379 107.419 53.8364H74.9737C74.0745 53.8477 73.3237 54.5263 73.2206 55.4209L70.5786 78.5624H111.834L109.192 55.4209Z" fill="#2536D8"/>
<path fill-rule="evenodd" clip-rule="evenodd" d="M43.3297 40.3077L52.3447 36.4397C52.7353 36.2723 53.1629 36.21 53.5851 36.2588L75.2043 38.9189L78.0611 31.7747L54.3518 28.293C53.9294 28.2317 53.4984 28.2822 53.1016 28.4397L40.4338 33.4862C39.8192 33.7341 39.3316 34.2216 39.0829 34.8366C38.8342 35.4517 38.8459 36.1415 39.1153 36.7478L40.1554 39.0705C40.7024 40.2777 42.1103 40.8286 43.3297 40.3125V40.3077Z" fill="#3D53FB"/>
<path fill-rule="evenodd" clip-rule="evenodd" d="M91.2843 27H91.1134C76.3596 27.0684 74.9526 35.636 74.9526 35.636V53.8654H107.445V35.636C107.445 35.636 106.038 27.0684 91.2843 27Z" fill="#3D53FB"/>
<path fill-rule="evenodd" clip-rule="evenodd" d="M135.213 267.126H47.2094C44.4323 267.133 41.7776 265.984 39.8812 263.955C37.9849 261.926 37.0179 259.2 37.2119 256.43L48.7722 90.3611C48.9386 87.3984 50.9199 84.8473 53.749 83.9528L70.5791 78.5507H111.844L128.674 83.9528C131.49 84.8566 133.457 87.4031 133.621 90.3562L145.182 256.425C145.375 259.191 144.411 261.913 142.52 263.942C140.63 265.97 137.981 267.121 135.208 267.121L135.213 267.126Z" fill="#EDEFFF"/>
<path fill-rule="evenodd" clip-rule="evenodd" d="M69.062 147.939H113.395V156.614H69.062V147.939Z" fill="#292F47"/>
<path fill-rule="evenodd" clip-rule="evenodd" d="M69.062 156.612H113.395V165.238H69.062V156.612Z" fill="#FCD58C"/>
<path fill-rule="evenodd" clip-rule="evenodd" d="M79.9428 116.019C79.2657 116.019 78.7168 115.47 78.7168 114.793V105.268C78.7168 104.591 79.2657 104.042 79.9428 104.042H102.51C103.187 104.042 103.736 104.591 103.736 105.268V114.793C103.736 115.47 103.187 116.019 102.51 116.019H79.9428Z" fill="#FF5F5F"/>
<path fill-rule="evenodd" clip-rule="evenodd" d="M99.0856 267.128H47.2592C44.1446 267.144 41.1668 265.85 39.0529 263.563C36.9283 261.292 35.8406 258.242 36.0488 255.139L42.3745 182.509C42.4606 181.844 43.048 181.359 43.7178 181.4C44.3856 181.465 44.8763 182.056 44.8168 182.724L38.4668 255.325C38.3085 257.754 39.1645 260.139 40.8309 261.913C42.4973 263.687 44.8248 264.691 47.2592 264.686H99.0856C99.76 264.686 100.307 265.233 100.307 265.907C100.307 266.581 99.76 267.128 99.0856 267.128Z" fill="#333333"/>
<path fill-rule="evenodd" clip-rule="evenodd" d="M134.216 117.218C133.576 117.22 133.044 116.724 133 116.084L131.212 90.4176C131.072 87.9642 129.44 85.8487 127.104 85.0907L111.629 80.9074C111.191 80.8092 110.841 80.4779 110.72 80.0449C110.599 79.6118 110.725 79.1471 111.049 78.8351C111.372 78.5232 111.841 78.4143 112.269 78.5518L127.793 82.7449C131.114 83.7966 133.445 86.7869 133.654 90.2661L135.437 115.909C135.485 116.58 134.98 117.164 134.309 117.213L134.216 117.218Z" fill="#333333"/>
<path fill-rule="evenodd" clip-rule="evenodd" d="M57.367 108.162H57.279C56.9544 108.139 56.6522 107.988 56.4393 107.742C56.2264 107.496 56.1203 107.176 56.1445 106.851L56.7509 98.1728C56.9627 94.7205 59.2625 91.7486 62.5502 90.6785L68.6918 88.7218C69.3359 88.5165 70.0244 88.8723 70.2297 89.5167C70.4349 90.161 70.0792 90.8499 69.4351 91.0552L63.2934 93.0119C60.9453 93.7475 59.3053 95.8706 59.186 98.3293L58.5894 107.022C58.548 107.666 58.0119 108.166 57.367 108.162Z" fill="#333333"/>
<path fill-rule="evenodd" clip-rule="evenodd" d="M103.05 50.2406C102.379 50.2406 101.834 49.6933 101.834 49.0183V40.0033C102.107 37.5074 100.77 35.1134 98.5068 34.0487C98.219 33.8997 98.0023 33.6414 97.9046 33.3313C97.8069 33.0211 97.8363 32.6846 97.9862 32.3963C98.3023 31.8052 99.0298 31.5753 99.6257 31.8781C102.689 33.3687 104.531 36.5932 104.267 40.0033V49.0183C104.267 49.6933 103.722 50.2406 103.05 50.2406Z" fill="#333333"/>
<path fill-rule="evenodd" clip-rule="evenodd" d="M280.078 216.297V254.442C280.067 257.91 278.675 261.233 276.207 263.685C273.739 266.137 270.394 267.52 266.904 267.531H280.375C283.865 267.52 287.21 266.137 289.678 263.685C292.146 261.233 293.537 257.91 293.548 254.442V207.276C293.548 204.514 291.31 202.276 288.548 202.276H280.078V216.297Z" fill="#7CC9C5"/>
<path fill-rule="evenodd" clip-rule="evenodd" d="M275.551 187.191V203.271H285.711V187.191C285.709 186.053 285.293 184.962 284.557 184.157C283.82 183.352 282.821 182.899 281.779 182.896H271.605C272.649 182.9 273.648 183.353 274.387 184.157C275.126 184.962 275.544 186.052 275.551 187.191Z" fill="#27B0AB"/>
<path fill-rule="evenodd" clip-rule="evenodd" d="M254.819 162.912C260.509 152.308 256.459 139.512 246.199 139.011C245.027 164.604 192.89 150.641 191.692 185.94C191.629 188.008 191.716 190.078 191.953 192.133L270.9 192.3C272.544 190.534 273.869 188.505 274.819 186.299C279.975 174.222 271.355 160.399 254.819 162.914V162.912Z" fill="#F9EAB0"/>
<path fill-rule="evenodd" clip-rule="evenodd" d="M244.961 143.761C251.355 147.53 253.171 157.647 248.501 166.306C262.761 164.151 271.196 173.972 270.116 184.463H275.576C278.97 172.875 270.326 160.68 254.592 163.066C260.341 152.394 256.25 139.515 245.883 139.011C245.825 140.631 245.514 142.233 244.961 143.76V143.761Z" fill="#E0D39E"/>
<path fill-rule="evenodd" clip-rule="evenodd" d="M187.761 184.012H281.787C282.809 184.015 283.788 184.422 284.511 185.145C285.234 185.867 285.641 186.847 285.644 187.869V211.757C285.641 212.779 285.234 213.758 284.511 214.481C283.788 215.204 282.809 215.611 281.787 215.613H187.761C186.737 215.614 185.754 215.208 185.029 214.485C184.303 213.762 183.894 212.781 183.891 211.757V187.87C183.894 186.846 184.303 185.865 185.029 185.142C185.754 184.419 186.737 184.013 187.761 184.014V184.012Z" fill="#38C7C2"/>
<path fill-rule="evenodd" clip-rule="evenodd" d="M288.548 202.308C291.31 202.308 293.548 204.546 293.548 207.308V254.577C293.537 258.12 292.125 261.514 289.62 264.019C287.115 266.524 283.721 267.936 280.179 267.947H189.369C185.826 267.938 182.431 266.527 179.925 264.021C177.42 261.516 176.009 258.121 176 254.577V207.308C176 204.546 178.238 202.308 181 202.308H288.548Z" fill="#8ADFDB"/>
<path d="M294 208.5V255C293.833 259.5 291.2 268.5 282 268.5C272.8 268.5 217.5 268.5 191 268.5" stroke="black" stroke-width="2" stroke-linecap="round"/>
<path d="M245.745 139.011C251.491 140.84 261.261 148.258 254.365 163.305C260.373 162.521 273.173 164.088 276.307 176.627" stroke="black" stroke-width="2" stroke-linecap="round"/>
<path d="M242.61 148.415C236.863 152.072 227.721 157.887 213.615 160.954C195.591 164.872 195.068 176.627 191.672 183.68" stroke="black" stroke-width="2" stroke-linecap="round"/>
<path fill-rule="evenodd" clip-rule="evenodd" d="M234.768 250.835C250.562 250.835 263.454 243.773 263.454 235.128C263.454 226.471 250.562 219.409 234.768 219.409C218.973 219.409 206.093 226.471 206.093 235.128C206.093 243.772 218.973 250.835 234.768 250.835Z" fill="#38C7C2"/>
<path d="M229.504 219.788C216.705 221.361 207.093 227.649 207.093 235.128C207.093 242.442 216.314 248.624 228.72 250.353" stroke="black" stroke-width="2" stroke-linecap="round"/>
<path fill-rule="evenodd" clip-rule="evenodd" d="M231.855 219.183C245.021 220.474 255.017 226.891 255.017 234.624C255.017 242.344 245.021 248.761 231.855 250.052C233.475 250.215 235.103 250.294 236.731 250.291C252.217 250.291 264.769 243.272 264.769 234.624C264.769 225.963 252.217 218.944 236.731 218.944C235.103 218.941 233.475 219.02 231.855 219.183Z" fill="#27B0AB"/>
<path fill-rule="evenodd" clip-rule="evenodd" d="M229 219.238C242.166 220.53 252.162 226.946 252.162 234.68C252.162 242.4 242.166 248.817 229 250.108C230.62 250.27 232.248 250.35 233.876 250.346C249.362 250.346 261.914 243.328 261.914 234.68C261.914 226.019 249.362 219 233.876 219C232.248 218.996 230.62 219.076 229 219.238Z" fill="#27B0AB"/>
<path d="M171.412 170.997C186.135 170.997 198.071 159.061 198.071 144.338C198.071 129.614 186.135 117.678 171.412 117.678C156.688 117.678 144.752 129.614 144.752 144.338C144.752 159.061 156.688 170.997 171.412 170.997Z" fill="#99BC82"/>
<path d="M171.412 170.997C186.135 170.997 198.071 159.061 198.071 144.338C198.071 129.614 186.135 117.678 171.412 117.678C163.666 117.678 156.692 120.982 151.821 126.256C147.433 131.008 144.752 137.36 144.752 144.338" stroke="black" stroke-width="2" stroke-linecap="round"/>
<path d="M135.72 138.759L123.147 185.676H144.103V133.729L135.72 138.759Z" fill="#FF5975"/>
<path d="M110.573 153.849V185.676H135.72V138.759L110.573 153.849Z" fill="#FF738B"/>
<path d="M139.912 177.293L123.147 223.955H148.294V177.293H139.912Z" fill="#FFF396"/>
<path d="M106.382 223.955H139.911V177.293H106.382V223.955Z" fill="#FFFCD1"/>
<path d="M144.102 219.764L127.338 236.528H152.485V219.764H144.102Z" fill="#FFE570"/>
<path d="M144.102 236.528H102.191V219.764H144.102V236.528Z" fill="#FFF396"/>
<path d="M118.956 236.528L144.102 265.866H152.485V236.528H118.956Z" fill="#B5575C"/>
<path d="M102.191 265.866H144.102V236.528H102.191V265.866Z" fill="#CF5B5D"/>
<path d="M152.485 240.719V265.866H102.191V240.719" stroke="black" stroke-width="3" stroke-miterlimit="10" stroke-linecap="round" stroke-linejoin="round"/>
<path d="M106.382 219.764V177.293H148.294V219.764" stroke="black" stroke-width="3" stroke-miterlimit="10" stroke-linecap="round" stroke-linejoin="round"/>
<path d="M152.485 232.337H144.103V240.719H152.485C154.799 240.719 156.676 238.843 156.676 236.528C156.676 234.213 154.799 232.337 152.485 232.337Z" fill="#FFF396"/>
<path d="M148.294 236.528C148.294 234.213 146.417 232.337 144.103 232.337H102.191C99.8765 232.337 98 234.213 98 236.528C98 238.843 99.8765 240.719 102.191 240.719H144.103C146.417 240.719 148.294 238.843 148.294 236.528Z" fill="#FFFCD1"/>
<path d="M110.573 232.337H152.485M152.485 232.337C154.799 232.337 156.676 234.213 156.676 236.528C156.676 238.843 154.799 240.719 152.485 240.719H102.191C99.8765 240.719 98 238.843 98 236.528C98 234.213 99.8765 232.337 102.191 232.337V219.764H152.485V232.337Z" stroke="black" stroke-width="3" stroke-miterlimit="10" stroke-linecap="round" stroke-linejoin="round"/>
<path d="M144.103 133.729V177.293" stroke="black" stroke-width="3" stroke-miterlimit="10" stroke-linecap="round" stroke-linejoin="round"/>
<path d="M110.573 177.293V153.849" stroke="black" stroke-width="3" stroke-miterlimit="10" stroke-linecap="round" stroke-linejoin="round"/>
<path d="M142.329 128.773C146.469 132.912 143.113 142.98 134.834 151.26C126.554 159.539 116.486 162.895 112.346 158.756C108.207 154.616 111.563 144.548 119.842 136.268C128.122 127.989 138.19 124.633 142.329 128.773Z" fill="#FF5975"/>
<path d="M142.329 128.773C146.469 132.912 143.113 142.98 134.834 151.26C126.554 159.539 116.486 162.895 112.346 158.756C108.207 154.616 111.563 144.548 119.842 136.268C128.122 127.989 138.19 124.633 142.329 128.773Z" stroke="black" stroke-width="3" stroke-miterlimit="10" stroke-linecap="round" stroke-linejoin="round"/>
</svg>
