<svg width="339" height="281" viewBox="0 0 339 281" fill="none" xmlns="http://www.w3.org/2000/svg">
<g clip-path="url(#clip0_4561_86)">
<path fill-rule="evenodd" clip-rule="evenodd" d="M21 266.514C21 259.067 87.7096 253.029 170 253.029C252.29 253.029 319 259.067 319 266.514C319 273.962 252.29 280 170 280C87.7096 280 21 273.962 21 266.514Z" fill="#DCE0E9"/>
<path d="M257.895 63.6839L260.791 66.0627L263.251 63.0743L251.767 53.6464L256.941 47.3445L253.953 44.8844L248.775 51.1922L243.176 46.5954L249.427 38.9773L246.435 36.5192L240.183 44.1393L234.586 39.5444L239.951 33.0063L236.955 30.554L231.594 37.0863L225.996 32.4895L227.56 30.5811C228.238 29.7546 228.118 28.5353 227.291 27.8578C226.465 27.1804 225.247 27.3004 224.568 28.1269L223.004 30.0314L219.369 27.0469L216.901 30.0275L220.548 33.0218L216.87 37.5024L207.561 29.8572L205.103 32.8476L214.414 40.4947L210.723 44.9948L197.593 34.2198L195.142 37.2179L199.672 40.9341L196 45.409L189.127 39.7689L186.667 42.7573L193.546 48.4012L189.857 52.8974L181.567 46.0922L179.111 49.0845L187.4 55.8897L183.719 60.3762L175.319 53.48L172.861 56.4703L181.263 63.3665L177.58 67.8569L172.846 63.9723L168.39 60.3955L165.967 63.4149L175.089 70.8917L171.442 75.3356L164.12 69.3279L161.658 72.3143L168.986 78.3279L165.291 82.8299L159.8 78.3221L157.348 81.3183L171.438 92.8868L167.769 97.3597L158.718 89.9351L156.26 92.9274L165.313 100.352L161.618 104.856L157.743 101.746L155.32 104.765L159.138 107.879L157.836 109.468L160.847 111.899L162.14 110.324L175.71 121.387L178.17 118.397L173.209 114.33L176.889 109.846L191.593 121.908L194.053 118.917L187.939 113.902L191.602 109.439L217.461 130.672L219.925 127.687L219.828 127.608L223.53 123.094L230.881 129.127L233.34 126.135L225.987 120.1L229.658 115.623L237.78 122.279L240.236 119.287L232.118 112.625L235.8 108.137L244.449 115.236L246.904 112.242L238.256 105.144L241.937 100.658L250.31 107.531L252.766 104.538L244.393 97.6655L248.088 93.1616L255.04 98.8675L257.497 95.8752L250.544 90.1693L254.22 85.6886L258.338 89.068L260.795 86.0757L248.082 75.6453L251.762 71.1627L260.795 78.5815L263.255 75.5911L254.218 68.1704L257.895 63.6839ZM240.72 49.5838L246.319 54.1806L242.64 58.6633L237.042 54.0664L240.72 49.5838ZM183.038 84.8525L186.688 80.4028L192.282 84.988L188.628 89.4416L183.038 84.8525ZM186.171 92.4319L182.475 96.9378L176.887 92.3506L180.582 87.8448L186.171 92.4319ZM207.038 84.5273L203.355 89.0158L197.755 84.4209L201.439 79.9325L207.038 84.5273ZM203.895 76.9402L207.576 72.4537L213.174 77.0486L209.492 81.5351L203.895 76.9402ZM210.03 86.9835L215.624 91.5745L211.939 96.0629L206.347 91.4738L210.03 86.9835ZM212.485 83.9912L216.166 79.5047L221.759 84.0957L218.076 88.5822L212.485 83.9912ZM218.622 76.5124L222.315 72.0124L227.91 76.6053L224.216 81.1054L218.622 76.5124ZM224.771 69.0201L228.445 64.5414L234.042 69.1343L230.367 73.6111L224.771 69.0201ZM227.909 59.0949L222.309 54.5019L225.998 50.0077L231.594 54.6026L227.909 59.0949ZM225.452 62.0872L221.779 66.564L216.181 61.9691L219.855 57.4923L225.452 62.0872ZM219.323 69.5562L215.63 74.0563L210.032 69.4614L213.725 64.9614L219.323 69.5562ZM207.04 67.0053L201.446 62.4143L205.137 57.9162L210.733 62.5072L207.04 67.0053ZM204.584 69.9975L200.903 74.484L195.311 69.893L198.992 65.4065L204.584 69.9975ZM198.446 77.4763L194.763 81.9647L189.171 77.3757L192.855 72.8853L198.446 77.4763ZM195.276 87.4422L200.877 92.0332L197.219 96.4907L191.62 91.8958L195.276 87.4422ZM203.872 94.4874L209.465 99.0726L205.801 103.536L200.21 98.9468L203.872 94.4874ZM212.461 101.527L218.059 106.116L214.391 110.585L208.795 105.992L212.461 101.527ZM214.931 98.5191L218.614 94.0306L224.208 98.6216L220.527 103.11L214.931 98.5191ZM221.07 91.0384L224.754 86.5519L230.347 91.1429L226.666 95.6294L221.07 91.0384ZM227.21 83.5615L230.905 79.0615L236.498 83.6525L232.803 88.1545L227.21 83.5615ZM233.361 76.0692L237.036 71.5905L242.63 76.1795L238.954 80.6583L233.361 76.0692ZM236.5 66.144L230.901 61.551L234.586 57.0607L240.183 61.6575L236.5 66.144ZM232.132 42.5328L237.729 47.1277L234.052 51.6103L228.456 47.0154L232.132 42.5328ZM223.54 35.4798L229.14 40.0767L225.462 44.5573L219.865 39.9605L223.54 35.4798ZM217.41 42.9528L223.008 47.5496L219.319 52.0458L213.721 47.4528L217.41 42.9528ZM211.263 50.4451L216.861 55.0381L213.187 59.5149L207.592 54.9219L211.263 50.4451ZM202.666 43.3902L208.271 47.989L204.599 52.4658L198.994 47.867L202.666 43.3902ZM196.536 50.8593L202.141 55.46L198.45 59.9581L192.845 55.3574L196.536 50.8593ZM190.391 58.3478L195.998 62.9504L192.317 67.4369L186.71 62.8343L190.391 58.3478ZM184.253 65.8265L189.861 70.4292L186.177 74.9195L180.568 70.3169L184.253 65.8265ZM178.083 73.3479L183.696 77.9486L180.048 82.3963L174.438 77.7918L178.083 73.3479ZM168.285 85.288L171.98 80.7841L177.591 85.3886L173.897 89.8925L168.285 85.288ZM170.215 111.878L164.627 107.297L168.309 102.808L173.897 107.391L170.215 111.878ZM176.351 104.399L170.763 99.8158L174.431 95.3448L180.017 99.932L176.351 104.399ZM184.946 111.448L179.345 106.853L183.011 102.386L188.61 106.983L184.946 111.448ZM191.066 103.991L185.467 99.3939L189.166 94.8881L194.765 99.4829L191.066 103.991ZM194.057 106.447L197.755 101.939L203.345 106.526L199.644 111.034L194.057 106.447ZM202.639 113.492L206.339 108.982L211.935 113.575L208.232 118.085L202.639 113.492ZM216.837 125.152L211.226 120.545L214.929 116.033L220.54 120.638L216.837 125.152ZM222.996 117.646L217.385 113.041L221.055 108.57L226.668 113.171L222.996 117.646ZM229.128 110.171L223.519 105.568L227.202 101.08L232.809 105.682L229.128 110.171ZM235.263 102.688L229.656 98.0855L233.338 93.599L238.943 98.1997L235.263 102.688ZM241.399 95.2094L235.794 90.6087L239.489 86.1067L245.092 90.7054L241.399 95.2094ZM251.226 83.2325L247.55 87.7132L241.947 83.1164L245.622 78.6376L251.226 83.2325ZM245.086 73.1892L239.493 68.6001L243.176 64.1136L248.765 68.7046L245.086 73.1892ZM251.222 65.7123L245.632 61.1213L249.311 56.6387L254.901 61.2278L251.222 65.7123Z" fill="#D6EAE8"/>
<path d="M229.28 134.603C245.281 123.091 256.775 110.603 262.873 95.4492C272.454 71.6426 268.99 46.4423 252.131 32.6229C229.97 14.4292 193.021 22.7905 169.621 51.3198C151.079 73.9071 146.608 102.359 156.556 122.237C150.556 124.637 144.982 127.83 139.93 131.682C124.059 143.817 113.492 162.534 112.311 183.766C112.233 185.082 112.195 186.398 112.195 187.734C112.195 189.824 112.292 191.895 112.485 193.947H112.466L96.7107 213.128C94.5817 215.74 94.9494 219.592 97.5624 221.741L102.653 225.921C105.266 228.07 109.137 227.683 111.266 225.07L118.311 216.495C121.64 223.947 126.227 230.721 131.821 236.528C142.93 248.121 157.989 255.902 174.827 257.76C177.402 258.051 180.015 258.205 182.666 258.205C199.563 258.205 215.067 252.263 227.202 242.354C236.512 234.766 243.867 224.818 248.318 213.437C250.196 208.638 255.78 192.103 251.78 174.603C248.318 164.103 246.28 156.603 237.925 143.103C236.28 140.446 232.28 136.603 229.28 134.603ZM260.164 75.5523C259.912 79.1523 259.273 82.8297 258.267 86.5072C257.415 89.7395 256.273 92.9911 254.822 96.1847C253.544 99.146 251.996 102.069 250.196 104.933C248.531 107.623 246.635 110.256 244.544 112.811C242.454 115.365 240.247 117.727 237.925 119.895C235.486 122.178 232.931 124.269 230.28 126.127C228.092 127.675 225.828 129.069 223.544 130.308C221.763 129.03 219.925 127.849 218.028 126.746C216.054 125.604 214.021 124.559 211.95 123.611L211.931 123.591C206.396 121.056 200.473 119.217 194.279 118.211C192.615 117.92 190.95 117.707 189.247 117.553C187.079 117.34 184.892 117.243 182.666 117.243C179.84 117.243 177.053 117.417 174.305 117.727C171.111 118.114 167.976 118.714 164.918 119.507C163.021 116.295 161.608 112.791 160.66 109.056C160.389 108.049 160.156 107.023 159.963 105.978C159.208 101.817 158.995 97.4428 159.363 92.9718C159.614 89.3717 160.253 85.6943 161.26 82.0168C162.111 78.7652 163.273 75.5329 164.705 72.32C166.002 69.3587 167.55 66.4554 169.331 63.5909C170.995 60.9005 172.892 58.2683 174.982 55.7134C177.073 53.1585 179.299 50.7972 181.602 48.6295C184.06 46.3262 186.615 44.2359 189.266 42.3972C192.112 40.3649 195.073 38.6036 198.073 37.1132C201.499 35.4294 204.983 34.0745 208.466 33.1068C212.802 31.8874 217.118 31.2487 221.338 31.1713C226.738 31.0938 231.963 31.9648 236.763 33.8229C240.247 35.1971 243.518 37.0745 246.48 39.5133C249.441 41.952 251.938 44.7972 253.931 47.952C256.718 52.2876 258.596 57.2424 259.544 62.5264C260.319 66.6877 260.531 71.0619 260.164 75.5523Z" fill="#F69552"/>
<path d="M118.311 216.495L111.266 225.07C109.137 227.683 105.266 228.07 102.653 225.921L97.5624 221.741C94.9494 219.592 94.5817 215.741 96.7107 213.128L112.466 193.947H112.485C113.162 201.921 115.175 209.508 118.311 216.495Z" fill="#655F68"/>
<path d="M164.705 72.32C163.273 75.5329 162.111 78.7652 161.26 82.0168C160.253 85.6943 159.614 89.3717 159.363 92.9718C158.995 97.4428 159.208 101.817 159.963 105.978C160.156 107.023 160.389 108.049 160.66 109.056C161.608 112.791 163.021 116.295 164.918 119.507C162.053 120.243 159.266 121.153 156.556 122.237C146.608 102.359 151.079 73.9071 169.621 51.3198C193.021 22.7905 229.97 14.4292 252.131 32.6229C268.99 46.4423 272.454 71.6426 262.873 95.4492C261.964 97.7331 260.919 99.9976 259.757 102.243C257.106 107.411 253.815 112.443 249.906 117.204C243.867 124.559 236.938 130.559 229.583 135.127C229.06 134.662 228.518 134.198 227.976 133.733C227.976 133.733 227.957 133.733 227.918 133.695C227.918 133.695 227.899 133.714 227.899 133.695C226.505 132.495 225.054 131.372 223.544 130.308C225.828 129.069 228.092 127.675 230.28 126.127C232.931 124.269 235.486 122.178 237.925 119.895C240.247 117.727 242.454 115.365 244.544 112.811C246.635 110.256 248.531 107.623 250.196 104.933C251.996 102.069 253.544 99.146 254.822 96.1847C256.273 92.9911 257.415 89.7395 258.267 86.5072C259.273 82.8297 259.912 79.1523 260.164 75.5523C260.531 71.0619 260.319 66.6877 259.544 62.5264C258.596 57.2424 256.718 52.2876 253.931 47.952C251.938 44.7972 249.441 41.952 246.48 39.5133C243.518 37.0745 240.247 35.1971 236.763 33.8229C231.963 31.9648 226.738 31.0938 221.338 31.1713C217.118 31.2487 212.802 31.8874 208.466 33.1068C204.983 34.0745 201.499 35.4294 198.073 37.1132C195.073 38.6036 192.112 40.3649 189.266 42.3972C186.615 44.2359 184.06 46.3262 181.602 48.6295C179.299 50.7972 177.073 53.1585 174.982 55.7134C172.892 58.2683 170.995 60.9005 169.331 63.5909C167.55 66.4554 166.002 69.3587 164.705 72.32Z" fill="#655F68"/>
<path d="M223.544 130.307C225.054 131.372 226.505 132.494 227.899 133.694C226.873 133.327 216.015 129.92 192.421 142.636C181.428 128.585 194.279 118.21 194.279 118.21C200.473 119.217 206.396 121.056 211.931 123.591L211.95 123.61C214.021 124.559 216.054 125.604 218.028 126.746C219.925 127.849 221.763 129.03 223.544 130.307Z" fill="#C57742"/>
<path d="M251.977 174.863C252.751 179.024 253.157 183.34 253.157 187.734C253.157 196.792 251.435 205.463 248.318 213.437C243.867 224.818 236.512 234.766 227.202 242.354C227.202 242.354 194.957 181.289 170.221 157.017C178.602 150.766 185.995 146.101 192.421 142.637C203.415 156.669 221.57 153.727 232.989 156.901C244.428 160.095 251.977 174.863 251.977 174.863Z" fill="#C57742"/>
<path d="M164.821 234.302C166.311 246.94 174.363 257.199 174.828 257.76C157.989 255.902 142.931 248.121 131.821 236.527C131.821 236.527 130.021 198.901 156.886 169.133C173.628 180.553 163.273 221.276 164.821 234.302Z" fill="#C57742"/>
<path d="M170.221 157.017C165.131 160.811 160.718 164.895 156.885 169.134C140.143 157.714 112.311 183.766 112.311 183.766C113.492 162.533 124.059 143.817 139.93 131.682C139.93 131.682 145.505 132.727 170.221 157.017Z" fill="#C57742"/>
<path d="M156.78 122.103C150.114 109.769 144.48 77.0026 175.28 44.6026C187.28 32.2026 203.28 26.436 209.78 25.1026C218.614 22.2693 240.28 20.7026 256.28 37.1026C265.48 46.7026 267.148 58.1025 267.78 63.6025C268.412 69.1025 267.78 76.1025 267.78 76.1025M249.28 118.103C245.614 122.103 236.48 131.103 229.28 135.103M170.28 62.1025L239.28 118.603M165.78 70.6025L231.78 124.603M161.28 84.1025L200.28 116.214M206.28 121.103L200.28 116.214M176.28 54.6025L243.28 109.603M183.28 47.6025L234.78 89.6025M245.28 85.6025L191.28 41.6025M200.28 36.1025L252.78 79.6025M259.78 73.1025L210.78 32.6025L159.28 95.6025L184.78 117.103L247.78 41.6025M218.78 31.6025L259.78 65.6025M238.78 35.1025L171.28 117.103M226.78 31.6025L161.28 111.603M254.78 50.1025L200.28 116.214M200.28 116.214L197.78 119.103M234.78 91.1025L209.78 122.103M238.78 104.103L220.28 127.603M240.28 85.6025L259.28 62.1025M164.28 118.603C160.614 113.936 155.78 98.6025 164.28 73.1025C172.78 47.6025 200.28 33.6025 215.28 31.6025C221.28 30.9359 230.78 28.1025 246.28 39.1025C261.78 50.1025 259.614 69.2692 259.78 79.6025" stroke="black" stroke-width="1.5"/>
<path d="M252.847 181.211C253.06 183.359 253.157 185.546 253.157 187.734C253.157 196.792 251.434 205.463 248.318 213.437C243.867 224.818 236.512 234.766 227.202 242.353C227.202 242.353 223.234 234.844 217.041 224.063C229.718 215.353 242.067 201.747 252.847 181.211Z" fill="#AC6839"/>
<path d="M217.041 224.063C223.234 234.844 227.202 242.353 227.202 242.353C215.066 252.263 199.563 258.205 182.666 258.205C180.015 258.205 177.402 258.05 174.827 257.76C174.402 257.257 167.685 248.702 165.363 237.631C181.118 238.85 199.408 236.16 217.041 224.063Z" fill="#DD864A"/>
<path d="M165.363 237.631C167.685 248.702 174.402 257.257 174.827 257.76C157.989 255.902 142.93 248.121 131.821 236.528C131.821 236.528 131.685 233.779 132.034 229.153C139.776 232.521 151.601 236.566 165.363 237.631Z" fill="#AC6839"/>
<path d="M132.034 229.153C131.685 233.779 131.821 236.528 131.821 236.528C128.259 232.831 125.104 228.747 122.433 224.334C122.433 224.334 125.975 226.54 132.034 229.153Z" fill="#DD864A"/>
<path d="M116.907 92.131C115.989 89.5266 113.134 88.1594 110.529 89.0773L79.4299 100.038C76.8255 100.956 75.4584 103.811 76.3763 106.416L128.405 254.039C129.046 255.856 129.78 258.103 131.28 261.103C133.28 265.103 133.543 267.771 135.28 268.603C141.095 271.387 150.2 268.746 156.28 266.603C162.361 264.459 170.996 260.918 173.78 255.103C174.612 253.365 172.177 249.526 172.28 247.603C172.384 245.679 169.577 241.571 168.936 239.754L116.907 92.131Z" fill="#F4B917"/>
<path d="M146.367 264.754C150.957 264.767 155.456 263.478 159.344 261.038C163.231 258.598 166.347 255.106 168.331 250.967C169.164 249.229 169.645 247.344 169.749 245.42C169.853 243.497 169.577 241.571 168.936 239.754L120.155 101.346C116.609 101.117 113.061 101.77 109.83 103.248C106.598 104.726 103.784 106.982 101.638 109.815C99.4917 112.647 98.0816 115.967 97.5333 119.478C96.985 122.989 97.3158 126.581 98.496 129.932L145.045 262.006C145.389 262.965 145.832 263.886 146.367 264.754Z" fill="#F8D502"/>
<path d="M107.139 90.2724C105.401 89.4405 103.844 88.2744 102.557 86.8407C101.27 85.407 100.278 83.7339 99.6373 81.9168L87.1795 46.57L70.9672 52.284L83.4265 87.6348C84.7183 91.3036 84.5002 95.3353 82.8204 98.8434L107.139 90.2724Z" fill="#383838"/>
<path d="M94.9935 94.5456C96.5761 93.9878 98.3112 94.8186 98.869 96.4012L116.845 147.405C117.403 148.987 116.572 150.722 114.989 151.28V151.28C113.407 151.838 111.672 151.007 111.114 149.424L93.1379 98.421C92.5801 96.8385 93.4109 95.1034 94.9935 94.5456V94.5456Z" fill="#F4B917"/>
<path d="M95.1174 94.509L107.139 90.2721C105.401 89.4402 103.844 88.2741 102.557 86.8404C101.27 85.4067 100.278 83.7336 99.6374 81.9165L90.1422 54.9758C88.0678 55.7827 86.3883 57.3644 85.4584 59.3866C84.5285 61.4088 84.421 63.7134 85.1586 65.8134L94.7582 93.0568C94.9032 93.5343 95.0231 94.019 95.1174 94.509Z" fill="#4C4C4C"/>
<path d="M85.496 36.1112C84.7327 35.7453 83.9047 35.5335 83.0595 35.4877C82.2142 35.442 81.3683 35.5633 80.5699 35.8448L69.3915 39.7845C68.5932 40.0659 67.8581 40.5018 67.2283 41.0674C66.5985 41.633 66.0863 42.3171 65.7211 43.0808C64.9837 44.6227 64.8887 46.3942 65.4568 48.0061C66.0249 49.6181 67.2097 50.9385 68.7509 51.6773C69.5142 52.0432 70.3422 52.255 71.1875 52.3008C72.0327 52.3465 72.8787 52.2251 73.677 51.9437L84.8554 48.004C85.6538 47.7226 86.3888 47.2867 87.0186 46.7211C87.6484 46.1555 88.1606 45.4714 88.5258 44.7077C89.2632 43.1658 89.3583 41.3943 88.7901 39.7824C88.222 38.1704 87.0372 36.85 85.496 36.1112Z" fill="#F4B917"/>
<path d="M84.8554 48.004C85.803 47.6722 86.6595 47.1226 87.3558 46.3993C88.0521 45.676 88.5688 44.7993 88.8644 43.8397C89.1599 42.8802 89.2259 41.8647 89.0572 40.875C88.8885 39.8853 88.4897 38.949 87.893 38.1416C87.2665 38.1607 86.6461 38.2712 86.0515 38.4694L74.8731 42.4092C73.9255 42.7409 73.0691 43.2906 72.3728 44.0139C71.6765 44.7372 71.1597 45.6139 70.8642 46.5734C70.5687 47.5329 70.5026 48.5484 70.6713 49.5382C70.84 50.5279 71.2388 51.4642 71.8355 52.2716C72.4622 52.2534 73.0826 52.1429 73.6771 51.9438L84.8554 48.004Z" fill="#F8D502"/>
<path d="M78.1291 107.803C77.9639 107.335 77.45 107.089 76.9812 107.254C76.5124 107.419 76.2662 107.933 76.4314 108.402L78.1291 107.803ZM129.78 257.103L128.931 257.402L128.936 257.414L129.78 257.103ZM117.628 92.3005C117.461 91.8322 116.946 91.5879 116.478 91.7548C116.01 91.9216 115.766 92.4364 115.932 92.9046L117.628 92.3005ZM132.436 266.914C132.608 267.38 133.125 267.619 133.591 267.447C134.058 267.275 134.297 266.758 134.125 266.291L132.436 266.914ZM76.4314 108.402L128.931 257.402L130.629 256.803L78.1291 107.803L76.4314 108.402ZM115.932 92.9046L162.432 223.405L164.128 222.8L117.628 92.3005L115.932 92.9046ZM128.936 257.414L132.436 266.914L134.125 266.291L130.625 256.791L128.936 257.414Z" fill="black"/>
<path d="M155.779 231.529C149.981 243.638 155.097 258.155 167.207 263.953C179.316 269.751 193.833 264.635 199.631 252.525C205.429 240.416 200.313 225.899 188.203 220.101C176.094 214.303 161.577 219.419 155.779 231.529Z" fill="#DE1201"/>
<path d="M199.631 252.525C201.777 248.052 202.495 243.026 201.689 238.13C198.876 233.171 194.409 229.358 189.069 227.36C183.729 225.362 177.857 225.306 172.48 227.201C167.102 229.096 162.563 232.822 159.656 237.727C156.749 242.632 155.659 248.403 156.578 254.03C158.768 257.893 161.976 261.081 165.851 263.249C169.727 265.418 174.122 266.482 178.561 266.327C182.999 266.172 187.309 264.803 191.024 262.37C194.739 259.937 197.716 256.532 199.631 252.525Z" fill="#F5291F"/>
<path d="M191.571 261.978L176.001 217.799C171.637 218.112 167.437 219.592 163.841 222.085L179.412 266.263C183.776 265.951 187.976 264.47 191.571 261.978Z" fill="#D2D2D2"/>
<path d="M191.571 261.977L178.858 225.905C174.494 226.218 170.294 227.698 166.698 230.191L179.412 266.263C183.776 265.95 187.976 264.47 191.571 261.977Z" fill="#EFEFEF"/>
<path d="M278.252 117.672L274.457 118.603L274.292 90.9503C274.14 84.6171 275.384 74.907 281.083 76.8566C286.781 78.819 287.441 107.185 278.252 117.672Z" fill="#B8D3CF"/>
<path d="M268.001 120.603L259.28 85.1353C259.28 85.1353 261.696 75.8685 266.903 76.6492C273.647 77.6732 274.112 91.3174 274.112 91.3174L274.28 119.092L268.001 120.603Z" fill="#C3DDDA"/>
<path d="M259.472 85.3357L268.28 120.121L261.938 121.603H261.925L249.072 97.3493C249.046 97.2991 249.02 97.2614 249.007 97.2112C248.354 95.8304 243.435 84.9967 248.654 81.3563C252.961 78.3434 259.472 85.3357 259.472 85.3357Z" fill="#D6EAE8"/>
<path d="M257.471 122.603C244.406 117.568 231.904 92.1903 236.11 87.8403C240.264 83.5409 245.812 91.3786 248.625 97.0349C248.638 97.0857 248.663 97.1237 248.689 97.1745L261.28 121.677L257.471 122.603Z" fill="#E7F2F1"/>
<path d="M261.981 123.603C261.675 123.603 261.395 123.499 261.174 123.325C261.098 123.268 261.031 123.203 260.97 123.131L245.582 104.73C245.122 104.18 245.196 103.362 245.747 102.904C246.298 102.445 247.117 102.519 247.578 103.068L262.894 121.385C263.132 121.62 263.28 121.943 263.28 122.301C263.28 123.015 262.698 123.603 261.981 123.603Z" fill="#D6EAE8"/>
<path d="M274.451 120.603C274.368 120.603 274.283 120.593 274.197 120.573C273.567 120.418 273.169 119.726 273.308 119.028L277.97 95.62C278.109 94.9214 278.729 94.4781 279.363 94.6336C279.993 94.7879 280.392 95.48 280.253 96.1786L275.59 119.586C275.47 120.19 274.987 120.603 274.451 120.603Z" fill="#ACCCC6"/>
<path d="M267.554 121.603C267.455 121.603 267.355 121.591 267.254 121.568C266.571 121.405 266.151 120.731 266.316 120.061C268.14 112.655 268.207 104.248 266.517 95.0747C266.393 94.3969 266.852 93.7478 267.543 93.6242C268.238 93.4957 268.896 93.9525 269.022 94.6303C270.774 104.148 270.696 112.901 268.79 120.646C268.649 121.219 268.128 121.603 267.554 121.603Z" fill="#B8D3CF"/>
<path d="M267.981 121.603C267.618 121.603 267.257 121.457 267.001 121.174C261.575 115.182 257.315 107.459 254.338 98.218C254.127 97.56 254.511 96.8621 255.196 96.6589C255.881 96.4545 256.607 96.8234 256.82 97.4814C259.689 106.39 263.775 113.811 268.962 119.54C269.432 120.06 269.375 120.846 268.833 121.298C268.588 121.502 268.284 121.603 267.981 121.603Z" fill="#C3DDDA"/>
<path d="M261.976 121.682L267.983 120.124L273.99 118.566L277.686 117.603L279.28 124.546V124.56L259.862 129.603L258.28 122.645L261.964 121.682H261.976Z" fill="#655F68"/>
<path d="M281.927 129.05C283.483 135.417 279.749 141.783 273.589 143.287C267.429 144.778 261.179 140.837 259.635 134.483C259.22 132.81 259.182 131.138 259.454 129.556L279.826 124.603C280.786 125.886 281.525 127.377 281.927 129.05Z" fill="#D6EAE8"/>
<path d="M281.921 129.05C283.506 135.416 279.701 141.782 273.424 143.285C268.746 144.4 264.029 142.495 261.28 138.825C261.822 138.942 277.666 141.95 275.525 125.614L279.78 124.603C280.758 125.886 281.511 127.377 281.921 129.05Z" fill="#C3DDDA"/>
<path d="M279.78 124.603C281.78 127.103 284.58 133.603 279.78 139.603C274.98 145.603 267.78 143.769 264.78 142.103C263.28 141.269 260.08 138.203 259.28 132.603" stroke="black" stroke-width="1.5"/>
<path d="M279.78 76.6027L280.059 75.9064L280.059 75.9064L279.78 76.6027ZM285.28 88.1027L284.537 88.2019L285.28 88.1027ZM284.28 103.103L284.992 103.34L284.998 103.32L285.004 103.3L284.28 103.103ZM277.78 117.603L277.976 118.327L278.257 118.251L278.413 118.005L277.78 117.603ZM248.78 97.1027L248.088 97.3912L248.101 97.4219L248.116 97.4514L248.78 97.1027ZM236.78 97.1027L236.095 97.4073L236.099 97.4156L236.103 97.4238L236.78 97.1027ZM259.28 122.603L259.427 123.338L259.452 123.333L259.476 123.327L259.28 122.603ZM258.616 117.451C258.809 117.818 259.262 117.959 259.629 117.767C259.996 117.574 260.137 117.121 259.944 116.754L258.616 117.451ZM276.28 79.1027L275.559 78.8967L276.28 79.1027ZM274.28 87.6025L275.023 87.7086L274.28 87.6025ZM279.502 77.2991C280.114 77.5438 281.127 78.3701 282.125 80.1418C283.11 81.8915 284.044 84.5045 284.537 88.2019L286.024 88.0036C285.511 84.1572 284.528 81.3535 283.432 79.4058C282.347 77.4801 281.114 76.3283 280.059 75.9064L279.502 77.2991ZM284.537 88.2019C285.517 95.5558 284.047 101.109 283.557 102.905L285.004 103.3C285.514 101.43 287.043 95.6497 286.024 88.0036L284.537 88.2019ZM283.569 102.866C282.573 105.854 279.896 112.881 277.148 117.2L278.413 118.005C281.265 113.524 283.988 106.352 284.992 103.34L283.569 102.866ZM249.473 96.8143C248.621 94.7714 247.063 91.7761 245.135 89.427C244.172 88.2533 243.087 87.204 241.919 86.526C240.743 85.8431 239.433 85.5111 238.083 85.8792L238.478 87.3263C239.328 87.0944 240.222 87.2749 241.166 87.8232C242.119 88.3764 243.072 89.2771 243.976 90.3785C245.781 92.5793 247.273 95.434 248.088 97.3912L249.473 96.8143ZM238.083 85.8792C236.79 86.2318 235.898 86.9786 235.348 87.9616C234.811 88.9204 234.626 90.0564 234.63 91.1807C234.639 93.4224 235.405 95.8544 236.095 97.4073L237.466 96.7981C236.823 95.3511 236.138 93.133 236.13 91.1748C236.126 90.1991 236.291 89.3476 236.657 88.6939C237.009 88.0644 237.571 87.5737 238.478 87.3263L238.083 85.8792ZM236.103 97.4238C237.618 100.622 241.943 108.704 247.185 115.558L248.376 114.647C243.217 107.901 238.943 99.9167 237.458 96.7817L236.103 97.4238ZM247.185 115.558C249.838 119.028 252.376 121.065 254.505 122.191C256.612 123.305 258.367 123.55 259.427 123.338L259.133 121.867C258.527 121.989 257.132 121.883 255.206 120.865C253.301 119.857 250.923 117.977 248.376 114.647L247.185 115.558ZM259.476 123.327L277.976 118.327L277.585 116.879L259.085 121.879L259.476 123.327ZM248.116 97.4514L258.616 117.451L259.944 116.754L249.444 96.7541L248.116 97.4514ZM280.059 75.9064C279.48 75.675 278.586 75.5803 277.698 75.9995C276.785 76.4304 276.003 77.344 275.559 78.8967L277.001 79.3088C277.358 78.0614 277.909 77.5584 278.338 77.356C278.792 77.1418 279.247 77.1971 279.502 77.2991L280.059 75.9064ZM275.559 78.8967C274.562 82.3873 274.046 83.9369 273.538 87.4965L275.023 87.7086C275.514 84.2681 275.999 82.8182 277.001 79.3088L275.559 78.8967ZM273.538 87.4965C273.324 88.9959 273.459 91.0838 273.633 93.1527C273.81 95.2677 274.03 97.3937 274.03 99.1025H275.53C275.53 97.3114 275.3 95.0874 275.128 93.0274C274.951 90.9213 274.837 89.0092 275.023 87.7086L273.538 87.4965Z" fill="black"/>
<path d="M259.28 85.1026C258.114 82.4359 254.58 77.9026 249.78 81.1026C244.98 84.3026 244.614 88.6026 245.78 91.1025" stroke="black" stroke-width="1.5" stroke-linecap="round"/>
<path d="M274.28 112.603C275.08 104.203 274.614 95.7692 274.28 92.6025C273.88 88.2025 272.78 83.1025 271.78 81.1025C270.78 79.1025 269.48 76.6025 266.28 76.6025C260.28 77.0025 259.447 82.4359 259.78 85.1025L267.28 114.603" stroke="black" stroke-width="1.5" stroke-linecap="round"/>
<path d="M184.78 117.103L184.757 117.852L184.78 117.103ZM235.78 140.603L235.201 141.079L235.203 141.081L235.78 140.603ZM253.28 185.103L252.53 185.118L253.28 185.103ZM243.28 223.603L242.673 223.163L242.646 223.2L242.624 223.24L243.28 223.603ZM215.28 250.603L214.883 249.967L214.883 249.967L215.28 250.603ZM197.28 255.853C196.866 255.853 196.53 256.188 196.53 256.603C196.53 257.017 196.866 257.353 197.28 257.353V255.853ZM229.137 134.103L229.616 133.525L229.137 134.103ZM253.042 181.103L253.788 181.03L253.042 181.103ZM140.78 131.115L140.323 130.52L140.323 130.52L140.78 131.115ZM198.28 193.103L198.907 192.691L198.28 193.103ZM252.53 185.118C252.927 204.149 246.081 218.457 242.673 223.163L243.888 224.042C247.48 219.082 254.434 204.456 254.03 185.087L252.53 185.118ZM214.883 249.967C207.976 254.283 202.112 255.853 197.28 255.853V257.353C202.449 257.353 208.585 255.672 215.678 251.239L214.883 249.967ZM184.757 117.852C204.24 118.452 219.667 127.228 228.659 134.68L229.616 133.525C220.447 125.926 204.71 116.966 184.803 116.353L184.757 117.852ZM228.659 134.68C231.536 137.064 233.741 139.303 235.201 141.079L236.36 140.126C234.829 138.264 232.553 135.959 229.616 133.525L228.659 134.68ZM229.25 133.361C214.664 131.149 178.323 137.354 148.172 179.164L149.389 180.041C179.237 138.651 215.039 132.723 229.025 134.844L229.25 133.361ZM235.203 141.081C240.419 147.372 250.588 163.66 252.295 181.175L253.788 181.03C252.041 163.11 241.685 146.547 236.358 140.124L235.203 141.081ZM252.295 181.175C252.423 182.485 252.503 183.8 252.53 185.118L254.03 185.087C254.002 183.729 253.919 182.375 253.788 181.03L252.295 181.175ZM252.356 180.798C249.426 187.397 243.277 197.932 234.379 208.006C225.479 218.082 213.872 227.65 200.037 232.393L200.524 233.812C214.689 228.955 226.502 219.19 235.503 208.999C244.505 198.807 250.737 188.142 253.727 181.407L252.356 180.798ZM134.85 137.591C136.265 135.939 138.416 133.876 141.237 131.71L140.323 130.52C137.436 132.738 135.206 134.871 133.711 136.615L134.85 137.591ZM141.237 131.71C150.05 124.941 165.276 117.253 184.757 117.852L184.803 116.353C164.897 115.741 149.34 123.594 140.323 130.52L141.237 131.71ZM140.314 131.703C154.783 143.174 177.715 163.108 197.653 193.514L198.907 192.691C178.846 162.097 155.777 142.048 141.246 130.527L140.314 131.703ZM242.624 223.24C240.728 226.676 235.291 234.044 226.296 241.644L227.264 242.79C236.376 235.092 241.939 227.586 243.937 223.965L242.624 223.24ZM226.296 241.644C222.974 244.451 219.169 247.287 214.883 249.967L215.678 251.239C220.029 248.519 223.892 245.64 227.264 242.79L226.296 241.644ZM197.653 193.514C209.801 212.039 219.123 228.196 226.106 242.546L227.455 241.889C220.437 227.468 211.08 211.255 198.907 192.691L197.653 193.514Z" fill="black"/>
<path d="M153.039 244.717C153.102 245.126 153.485 245.407 153.894 245.344C154.304 245.281 154.585 244.898 154.522 244.489L153.039 244.717ZM196.129 227.475C196.335 227.834 196.793 227.959 197.152 227.754C197.512 227.548 197.637 227.09 197.431 226.731L196.129 227.475ZM163.073 222.352L178.573 266.352L179.988 265.853L164.488 221.853L163.073 222.352ZM175.075 218.359L191.075 262.359L192.485 261.846L176.485 217.846L175.075 218.359ZM154.522 244.489C154.04 241.36 154.232 236.334 156.39 231.522C158.534 226.738 162.627 222.148 170.006 219.818L169.554 218.387C161.734 220.857 157.326 225.767 155.021 230.908C152.728 236.021 152.52 241.346 153.039 244.717L154.522 244.489ZM170.006 219.818C184.813 215.142 193.607 223.061 196.129 227.475L197.431 226.731C194.62 221.811 185.147 213.464 169.554 218.387L170.006 219.818Z" fill="black"/>
<path d="M202.399 239.603C202.342 239.193 201.963 238.906 201.553 238.964C201.142 239.021 200.856 239.4 200.913 239.81L202.399 239.603ZM159.07 256.236C158.87 255.873 158.413 255.742 158.051 255.942C157.688 256.143 157.557 256.599 157.757 256.961L159.07 256.236ZM192.051 261.824L177.173 217.61L175.751 218.088L190.629 262.302L192.051 261.824ZM179.993 265.647L164.615 221.426L163.198 221.919L178.576 266.14L179.993 265.647ZM200.913 239.81C201.351 242.945 201.088 247.968 198.863 252.749C196.651 257.502 192.494 262.034 185.083 264.26L185.514 265.697C193.369 263.337 197.845 258.49 200.223 253.382C202.587 248.302 202.87 242.981 202.399 239.603L200.913 239.81ZM185.083 264.26C170.211 268.727 161.53 260.685 159.07 256.236L157.757 256.961C160.499 261.92 169.854 270.4 185.514 265.697L185.083 264.26Z" fill="black"/>
<path d="M81.2803 35.6025L68.2803 40.1025" stroke="black" stroke-width="1.5" stroke-linecap="round"/>
<path d="M87.7803 49.1025L99.7803 83.1025C100.447 85.1025 102.78 89.3025 106.78 90.1025" stroke="black" stroke-width="1.5" stroke-linecap="round"/>
</g>
<defs>
<clipPath id="clip0_4561_86">
<rect width="339" height="281" fill="white"/>
</clipPath>
</defs>
</svg>
